<?xml version="1.0" encoding="utf-8" standalone="no"?>
<!DOCTYPE svg PUBLIC "-//W3C//DTD SVG 1.1//EN"
  "http://www.w3.org/Graphics/SVG/1.1/DTD/svg11.dtd">
<svg xmlns:xlink="http://www.w3.org/1999/xlink" width="504pt" height="360pt" viewBox="0 0 504 360" xmlns="http://www.w3.org/2000/svg" version="1.1">
 <metadata>
  <rdf:RDF xmlns:dc="http://purl.org/dc/elements/1.1/" xmlns:cc="http://creativecommons.org/ns#" xmlns:rdf="http://www.w3.org/1999/02/22-rdf-syntax-ns#">
   <cc:Work>
    <dc:type rdf:resource="http://purl.org/dc/dcmitype/StillImage"/>
    <dc:date>2026-04-21T00:10:12.753960</dc:date>
    <dc:format>image/svg+xml</dc:format>
    <dc:creator>
     <cc:Agent>
      <dc:title>Matplotlib v3.10.7, https://matplotlib.org/</dc:title>
     </cc:Agent>
    </dc:creator>
   </cc:Work>
  </rdf:RDF>
 </metadata>
 <defs>
  <style type="text/css">*{stroke-linejoin: round; stroke-linecap: butt}</style>
 </defs>
 <g id="figure_1">
  <g id="patch_1">
   <path d="M 0 360 
L 504 360 
L 504 0 
L 0 0 
L 0 360 
z
" style="fill: none"/>
  </g>
  <g id="axes_1">
   <g id="patch_2">
    <path d="M 10.8 349.2 
L 493.2 349.2 
L 493.2 10.8 
L 10.8 10.8 
L 10.8 349.2 
z
" style="fill: none"/>
   </g>
   <g id="matplotlib.axis_1"/>
   <g id="matplotlib.axis_2"/>
   <g id="LineCollection_1">
    <path d="M 471.272727 26.452385 
L 471.272727 26.181818 
" clip-path="url(#p3e393eb00b)" style="fill: none; stroke: #118848; stroke-opacity: 0.7"/>
    <path d="M 32.727273 36.93325 
L 32.727273 36.93325 
" clip-path="url(#p3e393eb00b)" style="fill: none; stroke: #118848; stroke-opacity: 0.7"/>
   </g>
   <g id="line2d_1">
    <defs>
     <path id="m801d4c0039" d="M 3 0 
L -3 -0 
" style="stroke: #118848; stroke-opacity: 0.7"/>
    </defs>
    <g clip-path="url(#p3e393eb00b)">
     <use xlink:href="#m801d4c0039" x="471.272727" y="26.452385" style="fill: #118848; fill-opacity: 0.7; stroke: #118848; stroke-opacity: 0.7"/>
     <use xlink:href="#m801d4c0039" x="32.727273" y="36.93325" style="fill: #118848; fill-opacity: 0.7; stroke: #118848; stroke-opacity: 0.7"/>
    </g>
   </g>
   <g id="line2d_2">
    <g clip-path="url(#p3e393eb00b)">
     <use xlink:href="#m801d4c0039" x="471.272727" y="26.181818" style="fill: #118848; fill-opacity: 0.7; stroke: #118848; stroke-opacity: 0.7"/>
     <use xlink:href="#m801d4c0039" x="32.727273" y="36.93325" style="fill: #118848; fill-opacity: 0.7; stroke: #118848; stroke-opacity: 0.7"/>
    </g>
   </g>
   <g id="LineCollection_2">
    <path d="M 471.272727 36.665033 
L 471.272727 35.535797 
" clip-path="url(#p3e393eb00b)" style="fill: none; stroke: #06733d; stroke-opacity: 0.7"/>
    <path d="M 32.727273 39.940544 
L 32.727273 39.940544 
" clip-path="url(#p3e393eb00b)" style="fill: none; stroke: #06733d; stroke-opacity: 0.7"/>
   </g>
   <g id="line2d_3">
    <defs>
     <path id="ma5e8037b76" d="M 3 0 
L -3 -0 
" style="stroke: #06733d; stroke-opacity: 0.7"/>
    </defs>
    <g clip-path="url(#p3e393eb00b)">
     <use xlink:href="#ma5e8037b76" x="471.272727" y="36.665033" style="fill: #06733d; fill-opacity: 0.7; stroke: #06733d; stroke-opacity: 0.7"/>
     <use xlink:href="#ma5e8037b76" x="32.727273" y="39.940544" style="fill: #06733d; fill-opacity: 0.7; stroke: #06733d; stroke-opacity: 0.7"/>
    </g>
   </g>
   <g id="line2d_4">
    <g clip-path="url(#p3e393eb00b)">
     <use xlink:href="#ma5e8037b76" x="471.272727" y="35.535797" style="fill: #06733d; fill-opacity: 0.7; stroke: #06733d; stroke-opacity: 0.7"/>
     <use xlink:href="#ma5e8037b76" x="32.727273" y="39.940544" style="fill: #06733d; fill-opacity: 0.7; stroke: #06733d; stroke-opacity: 0.7"/>
    </g>
   </g>
   <g id="LineCollection_3">
    <path d="M 471.272727 42.677162 
L 471.272727 40.653825 
" clip-path="url(#p3e393eb00b)" style="fill: none; stroke: #05713c; stroke-opacity: 0.7"/>
    <path d="M 32.727273 44.951467 
L 32.727273 44.951467 
" clip-path="url(#p3e393eb00b)" style="fill: none; stroke: #05713c; stroke-opacity: 0.7"/>
   </g>
   <g id="line2d_5">
    <defs>
     <path id="m74af0a58e9" d="M 3 0 
L -3 -0 
" style="stroke: #05713c; stroke-opacity: 0.7"/>
    </defs>
    <g clip-path="url(#p3e393eb00b)">
     <use xlink:href="#m74af0a58e9" x="471.272727" y="42.677162" style="fill: #05713c; fill-opacity: 0.7; stroke: #05713c; stroke-opacity: 0.7"/>
     <use xlink:href="#m74af0a58e9" x="32.727273" y="44.951467" style="fill: #05713c; fill-opacity: 0.7; stroke: #05713c; stroke-opacity: 0.7"/>
    </g>
   </g>
   <g id="line2d_6">
    <g clip-path="url(#p3e393eb00b)">
     <use xlink:href="#m74af0a58e9" x="471.272727" y="40.653825" style="fill: #05713c; fill-opacity: 0.7; stroke: #05713c; stroke-opacity: 0.7"/>
     <use xlink:href="#m74af0a58e9" x="32.727273" y="44.951467" style="fill: #05713c; fill-opacity: 0.7; stroke: #05713c; stroke-opacity: 0.7"/>
    </g>
   </g>
   <g id="LineCollection_4">
    <path d="M 471.272727 47.834155 
L 471.272727 46.406372 
" clip-path="url(#p3e393eb00b)" style="fill: none; stroke: #006837; stroke-opacity: 0.7"/>
    <path d="M 32.727273 46.847796 
L 32.727273 46.847796 
" clip-path="url(#p3e393eb00b)" style="fill: none; stroke: #006837; stroke-opacity: 0.7"/>
   </g>
   <g id="line2d_7">
    <defs>
     <path id="m6257da1a5a" d="M 3 0 
L -3 -0 
" style="stroke: #006837; stroke-opacity: 0.7"/>
    </defs>
    <g clip-path="url(#p3e393eb00b)">
     <use xlink:href="#m6257da1a5a" x="471.272727" y="47.834155" style="fill: #006837; fill-opacity: 0.7; stroke: #006837; stroke-opacity: 0.7"/>
     <use xlink:href="#m6257da1a5a" x="32.727273" y="46.847796" style="fill: #006837; fill-opacity: 0.7; stroke: #006837; stroke-opacity: 0.7"/>
    </g>
   </g>
   <g id="line2d_8">
    <g clip-path="url(#p3e393eb00b)">
     <use xlink:href="#m6257da1a5a" x="471.272727" y="46.406372" style="fill: #006837; fill-opacity: 0.7; stroke: #006837; stroke-opacity: 0.7"/>
     <use xlink:href="#m6257da1a5a" x="32.727273" y="46.847796" style="fill: #006837; fill-opacity: 0.7; stroke: #006837; stroke-opacity: 0.7"/>
    </g>
   </g>
   <g id="LineCollection_5">
    <path d="M 471.272727 54.209827 
L 471.272727 54.174555 
" clip-path="url(#p3e393eb00b)" style="fill: none; stroke: #0a7b41; stroke-opacity: 0.7"/>
    <path d="M 32.727273 48.143256 
L 32.727273 48.143256 
" clip-path="url(#p3e393eb00b)" style="fill: none; stroke: #0a7b41; stroke-opacity: 0.7"/>
   </g>
   <g id="line2d_9">
    <defs>
     <path id="m33bfd60ef2" d="M 3 0 
L -3 -0 
" style="stroke: #0a7b41; stroke-opacity: 0.7"/>
    </defs>
    <g clip-path="url(#p3e393eb00b)">
     <use xlink:href="#m33bfd60ef2" x="471.272727" y="54.209827" style="fill: #0a7b41; fill-opacity: 0.7; stroke: #0a7b41; stroke-opacity: 0.7"/>
     <use xlink:href="#m33bfd60ef2" x="32.727273" y="48.143256" style="fill: #0a7b41; fill-opacity: 0.7; stroke: #0a7b41; stroke-opacity: 0.7"/>
    </g>
   </g>
   <g id="line2d_10">
    <g clip-path="url(#p3e393eb00b)">
     <use xlink:href="#m33bfd60ef2" x="471.272727" y="54.174555" style="fill: #0a7b41; fill-opacity: 0.7; stroke: #0a7b41; stroke-opacity: 0.7"/>
     <use xlink:href="#m33bfd60ef2" x="32.727273" y="48.143256" style="fill: #0a7b41; fill-opacity: 0.7; stroke: #0a7b41; stroke-opacity: 0.7"/>
    </g>
   </g>
   <g id="LineCollection_6">
    <path d="M 471.272727 65.620563 
L 471.272727 62.686157 
" clip-path="url(#p3e393eb00b)" style="fill: none; stroke: #16914d; stroke-opacity: 0.7"/>
    <path d="M 32.727273 51.014926 
L 32.727273 51.014926 
" clip-path="url(#p3e393eb00b)" style="fill: none; stroke: #16914d; stroke-opacity: 0.7"/>
   </g>
   <g id="line2d_11">
    <defs>
     <path id="m2759a6bbbc" d="M 3 0 
L -3 -0 
" style="stroke: #16914d; stroke-opacity: 0.7"/>
    </defs>
    <g clip-path="url(#p3e393eb00b)">
     <use xlink:href="#m2759a6bbbc" x="471.272727" y="65.620563" style="fill: #16914d; fill-opacity: 0.7; stroke: #16914d; stroke-opacity: 0.7"/>
     <use xlink:href="#m2759a6bbbc" x="32.727273" y="51.014926" style="fill: #16914d; fill-opacity: 0.7; stroke: #16914d; stroke-opacity: 0.7"/>
    </g>
   </g>
   <g id="line2d_12">
    <g clip-path="url(#p3e393eb00b)">
     <use xlink:href="#m2759a6bbbc" x="471.272727" y="62.686157" style="fill: #16914d; fill-opacity: 0.7; stroke: #16914d; stroke-opacity: 0.7"/>
     <use xlink:href="#m2759a6bbbc" x="32.727273" y="51.014926" style="fill: #16914d; fill-opacity: 0.7; stroke: #16914d; stroke-opacity: 0.7"/>
    </g>
   </g>
   <g id="LineCollection_7">
    <path d="M 471.272727 79.742317 
L 471.272727 73.274458 
" clip-path="url(#p3e393eb00b)" style="fill: none; stroke: #3faa59; stroke-opacity: 0.7"/>
    <path d="M 32.727273 53.443279 
L 32.727273 53.443279 
" clip-path="url(#p3e393eb00b)" style="fill: none; stroke: #3faa59; stroke-opacity: 0.7"/>
   </g>
   <g id="line2d_13">
    <defs>
     <path id="m185ec9d858" d="M 3 0 
L -3 -0 
" style="stroke: #3faa59; stroke-opacity: 0.7"/>
    </defs>
    <g clip-path="url(#p3e393eb00b)">
     <use xlink:href="#m185ec9d858" x="471.272727" y="79.742317" style="fill: #3faa59; fill-opacity: 0.7; stroke: #3faa59; stroke-opacity: 0.7"/>
     <use xlink:href="#m185ec9d858" x="32.727273" y="53.443279" style="fill: #3faa59; fill-opacity: 0.7; stroke: #3faa59; stroke-opacity: 0.7"/>
    </g>
   </g>
   <g id="line2d_14">
    <g clip-path="url(#p3e393eb00b)">
     <use xlink:href="#m185ec9d858" x="471.272727" y="73.274458" style="fill: #3faa59; fill-opacity: 0.7; stroke: #3faa59; stroke-opacity: 0.7"/>
     <use xlink:href="#m185ec9d858" x="32.727273" y="53.443279" style="fill: #3faa59; fill-opacity: 0.7; stroke: #3faa59; stroke-opacity: 0.7"/>
    </g>
   </g>
   <g id="LineCollection_8">
    <path d="M 471.272727 94.178476 
L 471.272727 88.637909 
" clip-path="url(#p3e393eb00b)" style="fill: none; stroke: #75c465; stroke-opacity: 0.7"/>
    <path d="M 32.727273 57.284935 
L 32.727273 57.284935 
" clip-path="url(#p3e393eb00b)" style="fill: none; stroke: #75c465; stroke-opacity: 0.7"/>
   </g>
   <g id="line2d_15">
    <defs>
     <path id="m4ff099fb33" d="M 3 0 
L -3 -0 
" style="stroke: #75c465; stroke-opacity: 0.7"/>
    </defs>
    <g clip-path="url(#p3e393eb00b)">
     <use xlink:href="#m4ff099fb33" x="471.272727" y="94.178476" style="fill: #75c465; fill-opacity: 0.7; stroke: #75c465; stroke-opacity: 0.7"/>
     <use xlink:href="#m4ff099fb33" x="32.727273" y="57.284935" style="fill: #75c465; fill-opacity: 0.7; stroke: #75c465; stroke-opacity: 0.7"/>
    </g>
   </g>
   <g id="line2d_16">
    <g clip-path="url(#p3e393eb00b)">
     <use xlink:href="#m4ff099fb33" x="471.272727" y="88.637909" style="fill: #75c465; fill-opacity: 0.7; stroke: #75c465; stroke-opacity: 0.7"/>
     <use xlink:href="#m4ff099fb33" x="32.727273" y="57.284935" style="fill: #75c465; fill-opacity: 0.7; stroke: #75c465; stroke-opacity: 0.7"/>
    </g>
   </g>
   <g id="LineCollection_9">
    <path d="M 471.272727 114.119667 
L 471.272727 104.137383 
" clip-path="url(#p3e393eb00b)" style="fill: none; stroke: #b5df74; stroke-opacity: 0.7"/>
    <path d="M 32.727273 59.322936 
L 32.727273 59.322936 
" clip-path="url(#p3e393eb00b)" style="fill: none; stroke: #b5df74; stroke-opacity: 0.7"/>
   </g>
   <g id="line2d_17">
    <defs>
     <path id="m986cd27746" d="M 3 0 
L -3 -0 
" style="stroke: #b5df74; stroke-opacity: 0.7"/>
    </defs>
    <g clip-path="url(#p3e393eb00b)">
     <use xlink:href="#m986cd27746" x="471.272727" y="114.119667" style="fill: #b5df74; fill-opacity: 0.7; stroke: #b5df74; stroke-opacity: 0.7"/>
     <use xlink:href="#m986cd27746" x="32.727273" y="59.322936" style="fill: #b5df74; fill-opacity: 0.7; stroke: #b5df74; stroke-opacity: 0.7"/>
    </g>
   </g>
   <g id="line2d_18">
    <g clip-path="url(#p3e393eb00b)">
     <use xlink:href="#m986cd27746" x="471.272727" y="104.137383" style="fill: #b5df74; fill-opacity: 0.7; stroke: #b5df74; stroke-opacity: 0.7"/>
     <use xlink:href="#m986cd27746" x="32.727273" y="59.322936" style="fill: #b5df74; fill-opacity: 0.7; stroke: #b5df74; stroke-opacity: 0.7"/>
    </g>
   </g>
   <g id="LineCollection_10">
    <path d="M 471.272727 138.941703 
L 471.272727 123.721214 
" clip-path="url(#p3e393eb00b)" style="fill: none; stroke: #eff8aa; stroke-opacity: 0.7"/>
    <path d="M 32.727273 61.883593 
L 32.727273 61.883593 
" clip-path="url(#p3e393eb00b)" style="fill: none; stroke: #eff8aa; stroke-opacity: 0.7"/>
   </g>
   <g id="line2d_19">
    <defs>
     <path id="mddb5f06a93" d="M 3 0 
L -3 -0 
" style="stroke: #eff8aa; stroke-opacity: 0.7"/>
    </defs>
    <g clip-path="url(#p3e393eb00b)">
     <use xlink:href="#mddb5f06a93" x="471.272727" y="138.941703" style="fill: #eff8aa; fill-opacity: 0.7; stroke: #eff8aa; stroke-opacity: 0.7"/>
     <use xlink:href="#mddb5f06a93" x="32.727273" y="61.883593" style="fill: #eff8aa; fill-opacity: 0.7; stroke: #eff8aa; stroke-opacity: 0.7"/>
    </g>
   </g>
   <g id="line2d_20">
    <g clip-path="url(#p3e393eb00b)">
     <use xlink:href="#mddb5f06a93" x="471.272727" y="123.721214" style="fill: #eff8aa; fill-opacity: 0.7; stroke: #eff8aa; stroke-opacity: 0.7"/>
     <use xlink:href="#mddb5f06a93" x="32.727273" y="61.883593" style="fill: #eff8aa; fill-opacity: 0.7; stroke: #eff8aa; stroke-opacity: 0.7"/>
    </g>
   </g>
   <g id="LineCollection_11">
    <path d="M 471.272727 166.723555 
L 471.272727 152.681211 
" clip-path="url(#p3e393eb00b)" style="fill: none; stroke: #fffab6; stroke-opacity: 0.7"/>
    <path d="M 32.727273 80.950957 
L 32.727273 80.950957 
" clip-path="url(#p3e393eb00b)" style="fill: none; stroke: #fffab6; stroke-opacity: 0.7"/>
   </g>
   <g id="line2d_21">
    <defs>
     <path id="m8c9d43571a" d="M 3 0 
L -3 -0 
" style="stroke: #fffab6; stroke-opacity: 0.7"/>
    </defs>
    <g clip-path="url(#p3e393eb00b)">
     <use xlink:href="#m8c9d43571a" x="471.272727" y="166.723555" style="fill: #fffab6; fill-opacity: 0.7; stroke: #fffab6; stroke-opacity: 0.7"/>
     <use xlink:href="#m8c9d43571a" x="32.727273" y="80.950957" style="fill: #fffab6; fill-opacity: 0.7; stroke: #fffab6; stroke-opacity: 0.7"/>
    </g>
   </g>
   <g id="line2d_22">
    <g clip-path="url(#p3e393eb00b)">
     <use xlink:href="#m8c9d43571a" x="471.272727" y="152.681211" style="fill: #fffab6; fill-opacity: 0.7; stroke: #fffab6; stroke-opacity: 0.7"/>
     <use xlink:href="#m8c9d43571a" x="32.727273" y="80.950957" style="fill: #fffab6; fill-opacity: 0.7; stroke: #fffab6; stroke-opacity: 0.7"/>
    </g>
   </g>
   <g id="LineCollection_12">
    <path d="M 471.272727 178.74952 
L 471.272727 164.908642 
" clip-path="url(#p3e393eb00b)" style="fill: none; stroke: #fee28f; stroke-opacity: 0.7"/>
    <path d="M 32.727273 82.023806 
L 32.727273 82.023806 
" clip-path="url(#p3e393eb00b)" style="fill: none; stroke: #fee28f; stroke-opacity: 0.7"/>
   </g>
   <g id="line2d_23">
    <defs>
     <path id="mdd195ddded" d="M 3 0 
L -3 -0 
" style="stroke: #fee28f; stroke-opacity: 0.7"/>
    </defs>
    <g clip-path="url(#p3e393eb00b)">
     <use xlink:href="#mdd195ddded" x="471.272727" y="178.74952" style="fill: #fee28f; fill-opacity: 0.7; stroke: #fee28f; stroke-opacity: 0.7"/>
     <use xlink:href="#mdd195ddded" x="32.727273" y="82.023806" style="fill: #fee28f; fill-opacity: 0.7; stroke: #fee28f; stroke-opacity: 0.7"/>
    </g>
   </g>
   <g id="line2d_24">
    <g clip-path="url(#p3e393eb00b)">
     <use xlink:href="#mdd195ddded" x="471.272727" y="164.908642" style="fill: #fee28f; fill-opacity: 0.7; stroke: #fee28f; stroke-opacity: 0.7"/>
     <use xlink:href="#mdd195ddded" x="32.727273" y="82.023806" style="fill: #fee28f; fill-opacity: 0.7; stroke: #fee28f; stroke-opacity: 0.7"/>
    </g>
   </g>
   <g id="LineCollection_13">
    <path d="M 471.272727 187.346212 
L 471.272727 172.710267 
" clip-path="url(#p3e393eb00b)" style="fill: none; stroke: #fee28f; stroke-opacity: 0.7"/>
    <path d="M 32.727273 90.115283 
L 32.727273 90.115283 
" clip-path="url(#p3e393eb00b)" style="fill: none; stroke: #fee28f; stroke-opacity: 0.7"/>
   </g>
   <g id="line2d_25">
    <g clip-path="url(#p3e393eb00b)">
     <use xlink:href="#mdd195ddded" x="471.272727" y="187.346212" style="fill: #fee28f; fill-opacity: 0.7; stroke: #fee28f; stroke-opacity: 0.7"/>
     <use xlink:href="#mdd195ddded" x="32.727273" y="90.115283" style="fill: #fee28f; fill-opacity: 0.7; stroke: #fee28f; stroke-opacity: 0.7"/>
    </g>
   </g>
   <g id="line2d_26">
    <g clip-path="url(#p3e393eb00b)">
     <use xlink:href="#mdd195ddded" x="471.272727" y="172.710267" style="fill: #fee28f; fill-opacity: 0.7; stroke: #fee28f; stroke-opacity: 0.7"/>
     <use xlink:href="#mdd195ddded" x="32.727273" y="90.115283" style="fill: #fee28f; fill-opacity: 0.7; stroke: #fee28f; stroke-opacity: 0.7"/>
    </g>
   </g>
   <g id="LineCollection_14">
    <path d="M 471.272727 250.047191 
L 471.272727 240.474096 
" clip-path="url(#p3e393eb00b)" style="fill: none; stroke: #b71126; stroke-opacity: 0.7"/>
    <path d="M 32.727273 99.26641 
L 32.727273 99.26641 
" clip-path="url(#p3e393eb00b)" style="fill: none; stroke: #b71126; stroke-opacity: 0.7"/>
   </g>
   <g id="line2d_27">
    <defs>
     <path id="mf62916d16e" d="M 3 0 
L -3 -0 
" style="stroke: #b71126; stroke-opacity: 0.7"/>
    </defs>
    <g clip-path="url(#p3e393eb00b)">
     <use xlink:href="#mf62916d16e" x="471.272727" y="250.047191" style="fill: #b71126; fill-opacity: 0.7; stroke: #b71126; stroke-opacity: 0.7"/>
     <use xlink:href="#mf62916d16e" x="32.727273" y="99.26641" style="fill: #b71126; fill-opacity: 0.7; stroke: #b71126; stroke-opacity: 0.7"/>
    </g>
   </g>
   <g id="line2d_28">
    <g clip-path="url(#p3e393eb00b)">
     <use xlink:href="#mf62916d16e" x="471.272727" y="240.474096" style="fill: #b71126; fill-opacity: 0.7; stroke: #b71126; stroke-opacity: 0.7"/>
     <use xlink:href="#mf62916d16e" x="32.727273" y="99.26641" style="fill: #b71126; fill-opacity: 0.7; stroke: #b71126; stroke-opacity: 0.7"/>
    </g>
   </g>
   <g id="LineCollection_15">
    <path d="M 471.272727 288.505875 
L 471.272727 281.982461 
" clip-path="url(#p3e393eb00b)" style="fill: none; stroke: #c01a27; stroke-opacity: 0.7"/>
    <path d="M 32.727273 142.370026 
L 32.727273 142.370026 
" clip-path="url(#p3e393eb00b)" style="fill: none; stroke: #c01a27; stroke-opacity: 0.7"/>
   </g>
   <g id="line2d_29">
    <defs>
     <path id="me86968cb9b" d="M 3 0 
L -3 -0 
" style="stroke: #c01a27; stroke-opacity: 0.7"/>
    </defs>
    <g clip-path="url(#p3e393eb00b)">
     <use xlink:href="#me86968cb9b" x="471.272727" y="288.505875" style="fill: #c01a27; fill-opacity: 0.7; stroke: #c01a27; stroke-opacity: 0.7"/>
     <use xlink:href="#me86968cb9b" x="32.727273" y="142.370026" style="fill: #c01a27; fill-opacity: 0.7; stroke: #c01a27; stroke-opacity: 0.7"/>
    </g>
   </g>
   <g id="line2d_30">
    <g clip-path="url(#p3e393eb00b)">
     <use xlink:href="#me86968cb9b" x="471.272727" y="281.982461" style="fill: #c01a27; fill-opacity: 0.7; stroke: #c01a27; stroke-opacity: 0.7"/>
     <use xlink:href="#me86968cb9b" x="32.727273" y="142.370026" style="fill: #c01a27; fill-opacity: 0.7; stroke: #c01a27; stroke-opacity: 0.7"/>
    </g>
   </g>
   <g id="LineCollection_16">
    <path d="M 471.272727 333.079615 
L 471.272727 330.630889 
" clip-path="url(#p3e393eb00b)" style="fill: none; stroke: #a50026; stroke-opacity: 0.7"/>
    <path d="M 32.727273 180.592678 
L 32.727273 180.592678 
" clip-path="url(#p3e393eb00b)" style="fill: none; stroke: #a50026; stroke-opacity: 0.7"/>
   </g>
   <g id="line2d_31">
    <defs>
     <path id="m852f962a39" d="M 3 0 
L -3 -0 
" style="stroke: #a50026; stroke-opacity: 0.7"/>
    </defs>
    <g clip-path="url(#p3e393eb00b)">
     <use xlink:href="#m852f962a39" x="471.272727" y="333.079615" style="fill: #a50026; fill-opacity: 0.7; stroke: #a50026; stroke-opacity: 0.7"/>
     <use xlink:href="#m852f962a39" x="32.727273" y="180.592678" style="fill: #a50026; fill-opacity: 0.7; stroke: #a50026; stroke-opacity: 0.7"/>
    </g>
   </g>
   <g id="line2d_32">
    <g clip-path="url(#p3e393eb00b)">
     <use xlink:href="#m852f962a39" x="471.272727" y="330.630889" style="fill: #a50026; fill-opacity: 0.7; stroke: #a50026; stroke-opacity: 0.7"/>
     <use xlink:href="#m852f962a39" x="32.727273" y="180.592678" style="fill: #a50026; fill-opacity: 0.7; stroke: #a50026; stroke-opacity: 0.7"/>
    </g>
   </g>
   <g id="LineCollection_17">
    <path d="M 471.272727 333.199183 
L 471.272727 331.374422 
" clip-path="url(#p3e393eb00b)" style="fill: none; stroke: #a50026; stroke-opacity: 0.7"/>
    <path d="M 32.727273 180.798715 
L 32.727273 180.798715 
" clip-path="url(#p3e393eb00b)" style="fill: none; stroke: #a50026; stroke-opacity: 0.7"/>
   </g>
   <g id="line2d_33">
    <g clip-path="url(#p3e393eb00b)">
     <use xlink:href="#m852f962a39" x="471.272727" y="333.199183" style="fill: #a50026; fill-opacity: 0.7; stroke: #a50026; stroke-opacity: 0.7"/>
     <use xlink:href="#m852f962a39" x="32.727273" y="180.798715" style="fill: #a50026; fill-opacity: 0.7; stroke: #a50026; stroke-opacity: 0.7"/>
    </g>
   </g>
   <g id="line2d_34">
    <g clip-path="url(#p3e393eb00b)">
     <use xlink:href="#m852f962a39" x="471.272727" y="331.374422" style="fill: #a50026; fill-opacity: 0.7; stroke: #a50026; stroke-opacity: 0.7"/>
     <use xlink:href="#m852f962a39" x="32.727273" y="180.798715" style="fill: #a50026; fill-opacity: 0.7; stroke: #a50026; stroke-opacity: 0.7"/>
    </g>
   </g>
   <g id="LineCollection_18">
    <path d="M 471.272727 333.519162 
L 471.272727 331.426467 
" clip-path="url(#p3e393eb00b)" style="fill: none; stroke: #a50026; stroke-opacity: 0.7"/>
    <path d="M 32.727273 180.849007 
L 32.727273 180.849007 
" clip-path="url(#p3e393eb00b)" style="fill: none; stroke: #a50026; stroke-opacity: 0.7"/>
   </g>
   <g id="line2d_35">
    <g clip-path="url(#p3e393eb00b)">
     <use xlink:href="#m852f962a39" x="471.272727" y="333.519162" style="fill: #a50026; fill-opacity: 0.7; stroke: #a50026; stroke-opacity: 0.7"/>
     <use xlink:href="#m852f962a39" x="32.727273" y="180.849007" style="fill: #a50026; fill-opacity: 0.7; stroke: #a50026; stroke-opacity: 0.7"/>
    </g>
   </g>
   <g id="line2d_36">
    <g clip-path="url(#p3e393eb00b)">
     <use xlink:href="#m852f962a39" x="471.272727" y="331.426467" style="fill: #a50026; fill-opacity: 0.7; stroke: #a50026; stroke-opacity: 0.7"/>
     <use xlink:href="#m852f962a39" x="32.727273" y="180.849007" style="fill: #a50026; fill-opacity: 0.7; stroke: #a50026; stroke-opacity: 0.7"/>
    </g>
   </g>
   <g id="LineCollection_19">
    <path d="M 471.272727 333.725429 
L 471.272727 331.639206 
" clip-path="url(#p3e393eb00b)" style="fill: none; stroke: #a50026; stroke-opacity: 0.7"/>
    <path d="M 32.727273 181.152265 
L 32.727273 181.152265 
" clip-path="url(#p3e393eb00b)" style="fill: none; stroke: #a50026; stroke-opacity: 0.7"/>
   </g>
   <g id="line2d_37">
    <g clip-path="url(#p3e393eb00b)">
     <use xlink:href="#m852f962a39" x="471.272727" y="333.725429" style="fill: #a50026; fill-opacity: 0.7; stroke: #a50026; stroke-opacity: 0.7"/>
     <use xlink:href="#m852f962a39" x="32.727273" y="181.152265" style="fill: #a50026; fill-opacity: 0.7; stroke: #a50026; stroke-opacity: 0.7"/>
    </g>
   </g>
   <g id="line2d_38">
    <g clip-path="url(#p3e393eb00b)">
     <use xlink:href="#m852f962a39" x="471.272727" y="331.639206" style="fill: #a50026; fill-opacity: 0.7; stroke: #a50026; stroke-opacity: 0.7"/>
     <use xlink:href="#m852f962a39" x="32.727273" y="181.152265" style="fill: #a50026; fill-opacity: 0.7; stroke: #a50026; stroke-opacity: 0.7"/>
    </g>
   </g>
   <g id="LineCollection_20">
    <path d="M 471.272727 333.818182 
L 471.272727 331.522398 
" clip-path="url(#p3e393eb00b)" style="fill: none; stroke: #a50026; stroke-opacity: 0.7"/>
    <path d="M 32.727273 181.178573 
L 32.727273 181.178573 
" clip-path="url(#p3e393eb00b)" style="fill: none; stroke: #a50026; stroke-opacity: 0.7"/>
   </g>
   <g id="line2d_39">
    <g clip-path="url(#p3e393eb00b)">
     <use xlink:href="#m852f962a39" x="471.272727" y="333.818182" style="fill: #a50026; fill-opacity: 0.7; stroke: #a50026; stroke-opacity: 0.7"/>
     <use xlink:href="#m852f962a39" x="32.727273" y="181.178573" style="fill: #a50026; fill-opacity: 0.7; stroke: #a50026; stroke-opacity: 0.7"/>
    </g>
   </g>
   <g id="line2d_40">
    <g clip-path="url(#p3e393eb00b)">
     <use xlink:href="#m852f962a39" x="471.272727" y="331.522398" style="fill: #a50026; fill-opacity: 0.7; stroke: #a50026; stroke-opacity: 0.7"/>
     <use xlink:href="#m852f962a39" x="32.727273" y="181.178573" style="fill: #a50026; fill-opacity: 0.7; stroke: #a50026; stroke-opacity: 0.7"/>
    </g>
   </g>
   <g id="line2d_41">
    <path d="M 471.272727 26.317102 
L 32.727273 36.93325 
" clip-path="url(#p3e393eb00b)" style="fill: none; stroke: #118848; stroke-opacity: 0.7; stroke-linecap: square"/>
    <defs>
     <path id="m86be035e4c" d="M 0 2 
C 0.530406 2 1.03916 1.789267 1.414214 1.414214 
C 1.789267 1.03916 2 0.530406 2 0 
C 2 -0.530406 1.789267 -1.03916 1.414214 -1.414214 
C 1.03916 -1.789267 0.530406 -2 0 -2 
C -0.530406 -2 -1.03916 -1.789267 -1.414214 -1.414214 
C -1.789267 -1.03916 -2 -0.530406 -2 0 
C -2 0.530406 -1.789267 1.03916 -1.414214 1.414214 
C -1.03916 1.789267 -0.530406 2 0 2 
z
" style="stroke: #118848; stroke-opacity: 0.7"/>
    </defs>
    <g clip-path="url(#p3e393eb00b)">
     <use xlink:href="#m86be035e4c" x="471.272727" y="26.317102" style="fill: #118848; fill-opacity: 0.7; stroke: #118848; stroke-opacity: 0.7"/>
     <use xlink:href="#m86be035e4c" x="32.727273" y="36.93325" style="fill: #118848; fill-opacity: 0.7; stroke: #118848; stroke-opacity: 0.7"/>
    </g>
   </g>
   <g id="line2d_42">
    <path d="M 471.272727 36.100415 
L 32.727273 39.940544 
" clip-path="url(#p3e393eb00b)" style="fill: none; stroke: #06733d; stroke-opacity: 0.7; stroke-linecap: square"/>
    <defs>
     <path id="me2c5be52bb" d="M 0 2 
C 0.530406 2 1.03916 1.789267 1.414214 1.414214 
C 1.789267 1.03916 2 0.530406 2 0 
C 2 -0.530406 1.789267 -1.03916 1.414214 -1.414214 
C 1.03916 -1.789267 0.530406 -2 0 -2 
C -0.530406 -2 -1.03916 -1.789267 -1.414214 -1.414214 
C -1.789267 -1.03916 -2 -0.530406 -2 0 
C -2 0.530406 -1.789267 1.03916 -1.414214 1.414214 
C -1.03916 1.789267 -0.530406 2 0 2 
z
" style="stroke: #06733d; stroke-opacity: 0.7"/>
    </defs>
    <g clip-path="url(#p3e393eb00b)">
     <use xlink:href="#me2c5be52bb" x="471.272727" y="36.100415" style="fill: #06733d; fill-opacity: 0.7; stroke: #06733d; stroke-opacity: 0.7"/>
     <use xlink:href="#me2c5be52bb" x="32.727273" y="39.940544" style="fill: #06733d; fill-opacity: 0.7; stroke: #06733d; stroke-opacity: 0.7"/>
    </g>
   </g>
   <g id="line2d_43">
    <path d="M 471.272727 41.665494 
L 32.727273 44.951467 
" clip-path="url(#p3e393eb00b)" style="fill: none; stroke: #05713c; stroke-opacity: 0.7; stroke-linecap: square"/>
    <defs>
     <path id="mc2fc00528e" d="M 0 2 
C 0.530406 2 1.03916 1.789267 1.414214 1.414214 
C 1.789267 1.03916 2 0.530406 2 0 
C 2 -0.530406 1.789267 -1.03916 1.414214 -1.414214 
C 1.03916 -1.789267 0.530406 -2 0 -2 
C -0.530406 -2 -1.03916 -1.789267 -1.414214 -1.414214 
C -1.789267 -1.03916 -2 -0.530406 -2 0 
C -2 0.530406 -1.789267 1.03916 -1.414214 1.414214 
C -1.03916 1.789267 -0.530406 2 0 2 
z
" style="stroke: #05713c; stroke-opacity: 0.7"/>
    </defs>
    <g clip-path="url(#p3e393eb00b)">
     <use xlink:href="#mc2fc00528e" x="471.272727" y="41.665494" style="fill: #05713c; fill-opacity: 0.7; stroke: #05713c; stroke-opacity: 0.7"/>
     <use xlink:href="#mc2fc00528e" x="32.727273" y="44.951467" style="fill: #05713c; fill-opacity: 0.7; stroke: #05713c; stroke-opacity: 0.7"/>
    </g>
   </g>
   <g id="line2d_44">
    <path d="M 471.272727 47.120263 
L 32.727273 46.847796 
" clip-path="url(#p3e393eb00b)" style="fill: none; stroke: #006837; stroke-opacity: 0.7; stroke-linecap: square"/>
    <defs>
     <path id="md4a6259395" d="M 0 2 
C 0.530406 2 1.03916 1.789267 1.414214 1.414214 
C 1.789267 1.03916 2 0.530406 2 0 
C 2 -0.530406 1.789267 -1.03916 1.414214 -1.414214 
C 1.03916 -1.789267 0.530406 -2 0 -2 
C -0.530406 -2 -1.03916 -1.789267 -1.414214 -1.414214 
C -1.789267 -1.03916 -2 -0.530406 -2 0 
C -2 0.530406 -1.789267 1.03916 -1.414214 1.414214 
C -1.03916 1.789267 -0.530406 2 0 2 
z
" style="stroke: #006837; stroke-opacity: 0.7"/>
    </defs>
    <g clip-path="url(#p3e393eb00b)">
     <use xlink:href="#md4a6259395" x="471.272727" y="47.120263" style="fill: #006837; fill-opacity: 0.7; stroke: #006837; stroke-opacity: 0.7"/>
     <use xlink:href="#md4a6259395" x="32.727273" y="46.847796" style="fill: #006837; fill-opacity: 0.7; stroke: #006837; stroke-opacity: 0.7"/>
    </g>
   </g>
   <g id="line2d_45">
    <path d="M 471.272727 54.192191 
L 32.727273 48.143256 
" clip-path="url(#p3e393eb00b)" style="fill: none; stroke: #0a7b41; stroke-opacity: 0.7; stroke-linecap: square"/>
    <defs>
     <path id="m4c839b3192" d="M 0 2 
C 0.530406 2 1.03916 1.789267 1.414214 1.414214 
C 1.789267 1.03916 2 0.530406 2 0 
C 2 -0.530406 1.789267 -1.03916 1.414214 -1.414214 
C 1.03916 -1.789267 0.530406 -2 0 -2 
C -0.530406 -2 -1.03916 -1.789267 -1.414214 -1.414214 
C -1.789267 -1.03916 -2 -0.530406 -2 0 
C -2 0.530406 -1.789267 1.03916 -1.414214 1.414214 
C -1.03916 1.789267 -0.530406 2 0 2 
z
" style="stroke: #0a7b41; stroke-opacity: 0.7"/>
    </defs>
    <g clip-path="url(#p3e393eb00b)">
     <use xlink:href="#m4c839b3192" x="471.272727" y="54.192191" style="fill: #0a7b41; fill-opacity: 0.7; stroke: #0a7b41; stroke-opacity: 0.7"/>
     <use xlink:href="#m4c839b3192" x="32.727273" y="48.143256" style="fill: #0a7b41; fill-opacity: 0.7; stroke: #0a7b41; stroke-opacity: 0.7"/>
    </g>
   </g>
   <g id="line2d_46">
    <path d="M 471.272727 64.15336 
L 32.727273 51.014926 
" clip-path="url(#p3e393eb00b)" style="fill: none; stroke: #16914d; stroke-opacity: 0.7; stroke-linecap: square"/>
    <defs>
     <path id="md38bbae723" d="M 0 2 
C 0.530406 2 1.03916 1.789267 1.414214 1.414214 
C 1.789267 1.03916 2 0.530406 2 0 
C 2 -0.530406 1.789267 -1.03916 1.414214 -1.414214 
C 1.03916 -1.789267 0.530406 -2 0 -2 
C -0.530406 -2 -1.03916 -1.789267 -1.414214 -1.414214 
C -1.789267 -1.03916 -2 -0.530406 -2 0 
C -2 0.530406 -1.789267 1.03916 -1.414214 1.414214 
C -1.03916 1.789267 -0.530406 2 0 2 
z
" style="stroke: #16914d; stroke-opacity: 0.7"/>
    </defs>
    <g clip-path="url(#p3e393eb00b)">
     <use xlink:href="#md38bbae723" x="471.272727" y="64.15336" style="fill: #16914d; fill-opacity: 0.7; stroke: #16914d; stroke-opacity: 0.7"/>
     <use xlink:href="#md38bbae723" x="32.727273" y="51.014926" style="fill: #16914d; fill-opacity: 0.7; stroke: #16914d; stroke-opacity: 0.7"/>
    </g>
   </g>
   <g id="line2d_47">
    <path d="M 471.272727 76.508387 
L 32.727273 53.443279 
" clip-path="url(#p3e393eb00b)" style="fill: none; stroke: #3faa59; stroke-opacity: 0.7; stroke-linecap: square"/>
    <defs>
     <path id="m220dbe34e2" d="M 0 2 
C 0.530406 2 1.03916 1.789267 1.414214 1.414214 
C 1.789267 1.03916 2 0.530406 2 0 
C 2 -0.530406 1.789267 -1.03916 1.414214 -1.414214 
C 1.03916 -1.789267 0.530406 -2 0 -2 
C -0.530406 -2 -1.03916 -1.789267 -1.414214 -1.414214 
C -1.789267 -1.03916 -2 -0.530406 -2 0 
C -2 0.530406 -1.789267 1.03916 -1.414214 1.414214 
C -1.03916 1.789267 -0.530406 2 0 2 
z
" style="stroke: #3faa59; stroke-opacity: 0.7"/>
    </defs>
    <g clip-path="url(#p3e393eb00b)">
     <use xlink:href="#m220dbe34e2" x="471.272727" y="76.508387" style="fill: #3faa59; fill-opacity: 0.7; stroke: #3faa59; stroke-opacity: 0.7"/>
     <use xlink:href="#m220dbe34e2" x="32.727273" y="53.443279" style="fill: #3faa59; fill-opacity: 0.7; stroke: #3faa59; stroke-opacity: 0.7"/>
    </g>
   </g>
   <g id="line2d_48">
    <path d="M 471.272727 91.408192 
L 32.727273 57.284935 
" clip-path="url(#p3e393eb00b)" style="fill: none; stroke: #75c465; stroke-opacity: 0.7; stroke-linecap: square"/>
    <defs>
     <path id="m58df53c27a" d="M 0 2 
C 0.530406 2 1.03916 1.789267 1.414214 1.414214 
C 1.789267 1.03916 2 0.530406 2 0 
C 2 -0.530406 1.789267 -1.03916 1.414214 -1.414214 
C 1.03916 -1.789267 0.530406 -2 0 -2 
C -0.530406 -2 -1.03916 -1.789267 -1.414214 -1.414214 
C -1.789267 -1.03916 -2 -0.530406 -2 0 
C -2 0.530406 -1.789267 1.03916 -1.414214 1.414214 
C -1.03916 1.789267 -0.530406 2 0 2 
z
" style="stroke: #75c465; stroke-opacity: 0.7"/>
    </defs>
    <g clip-path="url(#p3e393eb00b)">
     <use xlink:href="#m58df53c27a" x="471.272727" y="91.408192" style="fill: #75c465; fill-opacity: 0.7; stroke: #75c465; stroke-opacity: 0.7"/>
     <use xlink:href="#m58df53c27a" x="32.727273" y="57.284935" style="fill: #75c465; fill-opacity: 0.7; stroke: #75c465; stroke-opacity: 0.7"/>
    </g>
   </g>
   <g id="line2d_49">
    <path d="M 471.272727 109.128525 
L 32.727273 59.322936 
" clip-path="url(#p3e393eb00b)" style="fill: none; stroke: #b5df74; stroke-opacity: 0.7; stroke-linecap: square"/>
    <defs>
     <path id="m9eb233ec25" d="M 0 2 
C 0.530406 2 1.03916 1.789267 1.414214 1.414214 
C 1.789267 1.03916 2 0.530406 2 0 
C 2 -0.530406 1.789267 -1.03916 1.414214 -1.414214 
C 1.03916 -1.789267 0.530406 -2 0 -2 
C -0.530406 -2 -1.03916 -1.789267 -1.414214 -1.414214 
C -1.789267 -1.03916 -2 -0.530406 -2 0 
C -2 0.530406 -1.789267 1.03916 -1.414214 1.414214 
C -1.03916 1.789267 -0.530406 2 0 2 
z
" style="stroke: #b5df74; stroke-opacity: 0.7"/>
    </defs>
    <g clip-path="url(#p3e393eb00b)">
     <use xlink:href="#m9eb233ec25" x="471.272727" y="109.128525" style="fill: #b5df74; fill-opacity: 0.7; stroke: #b5df74; stroke-opacity: 0.7"/>
     <use xlink:href="#m9eb233ec25" x="32.727273" y="59.322936" style="fill: #b5df74; fill-opacity: 0.7; stroke: #b5df74; stroke-opacity: 0.7"/>
    </g>
   </g>
   <g id="line2d_50">
    <path d="M 471.272727 131.331459 
L 32.727273 61.883593 
" clip-path="url(#p3e393eb00b)" style="fill: none; stroke: #eff8aa; stroke-opacity: 0.7; stroke-linecap: square"/>
    <defs>
     <path id="m813fdf7331" d="M 0 2 
C 0.530406 2 1.03916 1.789267 1.414214 1.414214 
C 1.789267 1.03916 2 0.530406 2 0 
C 2 -0.530406 1.789267 -1.03916 1.414214 -1.414214 
C 1.03916 -1.789267 0.530406 -2 0 -2 
C -0.530406 -2 -1.03916 -1.789267 -1.414214 -1.414214 
C -1.789267 -1.03916 -2 -0.530406 -2 0 
C -2 0.530406 -1.789267 1.03916 -1.414214 1.414214 
C -1.03916 1.789267 -0.530406 2 0 2 
z
" style="stroke: #eff8aa; stroke-opacity: 0.7"/>
    </defs>
    <g clip-path="url(#p3e393eb00b)">
     <use xlink:href="#m813fdf7331" x="471.272727" y="131.331459" style="fill: #eff8aa; fill-opacity: 0.7; stroke: #eff8aa; stroke-opacity: 0.7"/>
     <use xlink:href="#m813fdf7331" x="32.727273" y="61.883593" style="fill: #eff8aa; fill-opacity: 0.7; stroke: #eff8aa; stroke-opacity: 0.7"/>
    </g>
   </g>
   <g id="line2d_51">
    <path d="M 471.272727 159.702383 
L 32.727273 80.950957 
" clip-path="url(#p3e393eb00b)" style="fill: none; stroke: #fffab6; stroke-opacity: 0.7; stroke-linecap: square"/>
    <defs>
     <path id="m4d17266178" d="M 0 2 
C 0.530406 2 1.03916 1.789267 1.414214 1.414214 
C 1.789267 1.03916 2 0.530406 2 0 
C 2 -0.530406 1.789267 -1.03916 1.414214 -1.414214 
C 1.03916 -1.789267 0.530406 -2 0 -2 
C -0.530406 -2 -1.03916 -1.789267 -1.414214 -1.414214 
C -1.789267 -1.03916 -2 -0.530406 -2 0 
C -2 0.530406 -1.789267 1.03916 -1.414214 1.414214 
C -1.03916 1.789267 -0.530406 2 0 2 
z
" style="stroke: #fffab6; stroke-opacity: 0.7"/>
    </defs>
    <g clip-path="url(#p3e393eb00b)">
     <use xlink:href="#m4d17266178" x="471.272727" y="159.702383" style="fill: #fffab6; fill-opacity: 0.7; stroke: #fffab6; stroke-opacity: 0.7"/>
     <use xlink:href="#m4d17266178" x="32.727273" y="80.950957" style="fill: #fffab6; fill-opacity: 0.7; stroke: #fffab6; stroke-opacity: 0.7"/>
    </g>
   </g>
   <g id="line2d_52">
    <path d="M 471.272727 171.829081 
L 32.727273 82.023806 
" clip-path="url(#p3e393eb00b)" style="fill: none; stroke: #fee28f; stroke-opacity: 0.7; stroke-linecap: square"/>
    <defs>
     <path id="maf14939e75" d="M 0 2 
C 0.530406 2 1.03916 1.789267 1.414214 1.414214 
C 1.789267 1.03916 2 0.530406 2 0 
C 2 -0.530406 1.789267 -1.03916 1.414214 -1.414214 
C 1.03916 -1.789267 0.530406 -2 0 -2 
C -0.530406 -2 -1.03916 -1.789267 -1.414214 -1.414214 
C -1.789267 -1.03916 -2 -0.530406 -2 0 
C -2 0.530406 -1.789267 1.03916 -1.414214 1.414214 
C -1.03916 1.789267 -0.530406 2 0 2 
z
" style="stroke: #fee28f; stroke-opacity: 0.7"/>
    </defs>
    <g clip-path="url(#p3e393eb00b)">
     <use xlink:href="#maf14939e75" x="471.272727" y="171.829081" style="fill: #fee28f; fill-opacity: 0.7; stroke: #fee28f; stroke-opacity: 0.7"/>
     <use xlink:href="#maf14939e75" x="32.727273" y="82.023806" style="fill: #fee28f; fill-opacity: 0.7; stroke: #fee28f; stroke-opacity: 0.7"/>
    </g>
   </g>
   <g id="line2d_53">
    <path d="M 471.272727 180.02824 
L 32.727273 90.115283 
" clip-path="url(#p3e393eb00b)" style="fill: none; stroke: #fee28f; stroke-opacity: 0.7; stroke-linecap: square"/>
    <g clip-path="url(#p3e393eb00b)">
     <use xlink:href="#maf14939e75" x="471.272727" y="180.02824" style="fill: #fee28f; fill-opacity: 0.7; stroke: #fee28f; stroke-opacity: 0.7"/>
     <use xlink:href="#maf14939e75" x="32.727273" y="90.115283" style="fill: #fee28f; fill-opacity: 0.7; stroke: #fee28f; stroke-opacity: 0.7"/>
    </g>
   </g>
   <g id="line2d_54">
    <path d="M 471.272727 245.260643 
L 32.727273 99.26641 
" clip-path="url(#p3e393eb00b)" style="fill: none; stroke: #b71126; stroke-opacity: 0.7; stroke-linecap: square"/>
    <defs>
     <path id="m53b0892123" d="M 0 2 
C 0.530406 2 1.03916 1.789267 1.414214 1.414214 
C 1.789267 1.03916 2 0.530406 2 0 
C 2 -0.530406 1.789267 -1.03916 1.414214 -1.414214 
C 1.03916 -1.789267 0.530406 -2 0 -2 
C -0.530406 -2 -1.03916 -1.789267 -1.414214 -1.414214 
C -1.789267 -1.03916 -2 -0.530406 -2 0 
C -2 0.530406 -1.789267 1.03916 -1.414214 1.414214 
C -1.03916 1.789267 -0.530406 2 0 2 
z
" style="stroke: #b71126; stroke-opacity: 0.7"/>
    </defs>
    <g clip-path="url(#p3e393eb00b)">
     <use xlink:href="#m53b0892123" x="471.272727" y="245.260643" style="fill: #b71126; fill-opacity: 0.7; stroke: #b71126; stroke-opacity: 0.7"/>
     <use xlink:href="#m53b0892123" x="32.727273" y="99.26641" style="fill: #b71126; fill-opacity: 0.7; stroke: #b71126; stroke-opacity: 0.7"/>
    </g>
   </g>
   <g id="line2d_55">
    <path d="M 471.272727 285.244168 
L 32.727273 142.370026 
" clip-path="url(#p3e393eb00b)" style="fill: none; stroke: #c01a27; stroke-opacity: 0.7; stroke-linecap: square"/>
    <defs>
     <path id="m6458115e16" d="M 0 2 
C 0.530406 2 1.03916 1.789267 1.414214 1.414214 
C 1.789267 1.03916 2 0.530406 2 0 
C 2 -0.530406 1.789267 -1.03916 1.414214 -1.414214 
C 1.03916 -1.789267 0.530406 -2 0 -2 
C -0.530406 -2 -1.03916 -1.789267 -1.414214 -1.414214 
C -1.789267 -1.03916 -2 -0.530406 -2 0 
C -2 0.530406 -1.789267 1.03916 -1.414214 1.414214 
C -1.03916 1.789267 -0.530406 2 0 2 
z
" style="stroke: #c01a27; stroke-opacity: 0.7"/>
    </defs>
    <g clip-path="url(#p3e393eb00b)">
     <use xlink:href="#m6458115e16" x="471.272727" y="285.244168" style="fill: #c01a27; fill-opacity: 0.7; stroke: #c01a27; stroke-opacity: 0.7"/>
     <use xlink:href="#m6458115e16" x="32.727273" y="142.370026" style="fill: #c01a27; fill-opacity: 0.7; stroke: #c01a27; stroke-opacity: 0.7"/>
    </g>
   </g>
   <g id="line2d_56">
    <path d="M 471.272727 331.855252 
L 32.727273 180.592678 
" clip-path="url(#p3e393eb00b)" style="fill: none; stroke: #a50026; stroke-opacity: 0.7; stroke-linecap: square"/>
    <defs>
     <path id="mf27e782e9f" d="M 0 2 
C 0.530406 2 1.03916 1.789267 1.414214 1.414214 
C 1.789267 1.03916 2 0.530406 2 0 
C 2 -0.530406 1.789267 -1.03916 1.414214 -1.414214 
C 1.03916 -1.789267 0.530406 -2 0 -2 
C -0.530406 -2 -1.03916 -1.789267 -1.414214 -1.414214 
C -1.789267 -1.03916 -2 -0.530406 -2 0 
C -2 0.530406 -1.789267 1.03916 -1.414214 1.414214 
C -1.03916 1.789267 -0.530406 2 0 2 
z
" style="stroke: #a50026; stroke-opacity: 0.7"/>
    </defs>
    <g clip-path="url(#p3e393eb00b)">
     <use xlink:href="#mf27e782e9f" x="471.272727" y="331.855252" style="fill: #a50026; fill-opacity: 0.7; stroke: #a50026; stroke-opacity: 0.7"/>
     <use xlink:href="#mf27e782e9f" x="32.727273" y="180.592678" style="fill: #a50026; fill-opacity: 0.7; stroke: #a50026; stroke-opacity: 0.7"/>
    </g>
   </g>
   <g id="line2d_57">
    <path d="M 471.272727 332.286802 
L 32.727273 180.798715 
" clip-path="url(#p3e393eb00b)" style="fill: none; stroke: #a50026; stroke-opacity: 0.7; stroke-linecap: square"/>
    <g clip-path="url(#p3e393eb00b)">
     <use xlink:href="#mf27e782e9f" x="471.272727" y="332.286802" style="fill: #a50026; fill-opacity: 0.7; stroke: #a50026; stroke-opacity: 0.7"/>
     <use xlink:href="#mf27e782e9f" x="32.727273" y="180.798715" style="fill: #a50026; fill-opacity: 0.7; stroke: #a50026; stroke-opacity: 0.7"/>
    </g>
   </g>
   <g id="line2d_58">
    <path d="M 471.272727 332.472815 
L 32.727273 180.849007 
" clip-path="url(#p3e393eb00b)" style="fill: none; stroke: #a50026; stroke-opacity: 0.7; stroke-linecap: square"/>
    <g clip-path="url(#p3e393eb00b)">
     <use xlink:href="#mf27e782e9f" x="471.272727" y="332.472815" style="fill: #a50026; fill-opacity: 0.7; stroke: #a50026; stroke-opacity: 0.7"/>
     <use xlink:href="#mf27e782e9f" x="32.727273" y="180.849007" style="fill: #a50026; fill-opacity: 0.7; stroke: #a50026; stroke-opacity: 0.7"/>
    </g>
   </g>
   <g id="line2d_59">
    <path d="M 471.272727 332.682318 
L 32.727273 181.152265 
" clip-path="url(#p3e393eb00b)" style="fill: none; stroke: #a50026; stroke-opacity: 0.7; stroke-linecap: square"/>
    <g clip-path="url(#p3e393eb00b)">
     <use xlink:href="#mf27e782e9f" x="471.272727" y="332.682318" style="fill: #a50026; fill-opacity: 0.7; stroke: #a50026; stroke-opacity: 0.7"/>
     <use xlink:href="#mf27e782e9f" x="32.727273" y="181.152265" style="fill: #a50026; fill-opacity: 0.7; stroke: #a50026; stroke-opacity: 0.7"/>
    </g>
   </g>
   <g id="line2d_60">
    <path d="M 471.272727 332.67029 
L 32.727273 181.178573 
" clip-path="url(#p3e393eb00b)" style="fill: none; stroke: #a50026; stroke-opacity: 0.7; stroke-linecap: square"/>
    <g clip-path="url(#p3e393eb00b)">
     <use xlink:href="#mf27e782e9f" x="471.272727" y="332.67029" style="fill: #a50026; fill-opacity: 0.7; stroke: #a50026; stroke-opacity: 0.7"/>
     <use xlink:href="#mf27e782e9f" x="32.727273" y="181.178573" style="fill: #a50026; fill-opacity: 0.7; stroke: #a50026; stroke-opacity: 0.7"/>
    </g>
   </g>
   <g id="patch_3">
    <path d="M 10.8 349.2 
L 10.8 10.8 
" style="fill: none; stroke: #000000; stroke-width: 0.8; stroke-linejoin: miter; stroke-linecap: square"/>
   </g>
   <g id="patch_4">
    <path d="M 493.2 349.2 
L 493.2 10.8 
" style="fill: none; stroke: #000000; stroke-width: 0.8; stroke-linejoin: miter; stroke-linecap: square"/>
   </g>
   <g id="patch_5">
    <path d="M 10.8 349.2 
L 493.2 349.2 
" style="fill: none; stroke: #000000; stroke-width: 0.8; stroke-linejoin: miter; stroke-linecap: square"/>
   </g>
   <g id="patch_6">
    <path d="M 10.8 10.8 
L 493.2 10.8 
" style="fill: none; stroke: #000000; stroke-width: 0.8; stroke-linejoin: miter; stroke-linecap: square"/>
   </g>
  </g>
 </g>
 <defs>
  <clipPath id="p3e393eb00b">
   <rect x="10.8" y="10.8" width="482.4" height="338.4"/>
  </clipPath>
 </defs>
</svg>
