<?xml version="1.0" encoding="utf-8" standalone="no"?>
<!DOCTYPE svg PUBLIC "-//W3C//DTD SVG 1.1//EN"
  "http://www.w3.org/Graphics/SVG/1.1/DTD/svg11.dtd">
<svg xmlns:xlink="http://www.w3.org/1999/xlink" width="720pt" height="720pt" viewBox="0 0 720 720" xmlns="http://www.w3.org/2000/svg" version="1.1">
 <metadata>
  <rdf:RDF xmlns:dc="http://purl.org/dc/elements/1.1/" xmlns:cc="http://creativecommons.org/ns#" xmlns:rdf="http://www.w3.org/1999/02/22-rdf-syntax-ns#">
   <cc:Work>
    <dc:type rdf:resource="http://purl.org/dc/dcmitype/StillImage"/>
    <dc:date>2026-04-20T23:44:03.396468</dc:date>
    <dc:format>image/svg+xml</dc:format>
    <dc:creator>
     <cc:Agent>
      <dc:title>Matplotlib v3.10.7, https://matplotlib.org/</dc:title>
     </cc:Agent>
    </dc:creator>
   </cc:Work>
  </rdf:RDF>
 </metadata>
 <defs>
  <style type="text/css">*{stroke-linejoin: round; stroke-linecap: butt}</style>
 </defs>
 <g id="figure_1">
  <g id="patch_1">
   <path d="M 0 720 
L 720 720 
L 720 0 
L 0 0 
L 0 720 
z
" style="fill: none"/>
  </g>
  <g id="axes_1">
   <g id="patch_2">
    <path d="M 10.8 141.84 
L 709.2 141.84 
L 709.2 10.8 
L 10.8 10.8 
L 10.8 141.84 
z
" style="fill: none"/>
   </g>
   <g id="matplotlib.axis_1"/>
   <g id="matplotlib.axis_2"/>
   <g id="line2d_1">
    <path d="M 42.545455 94.785861 
L 45.087633 60.40967 
L 45.723178 53.282496 
L 46.358722 47.638789 
L 46.994267 43.896442 
L 47.629812 42.279494 
L 48.265356 42.524446 
L 48.900901 43.868496 
L 50.17199 47.549602 
L 50.807535 49.89355 
L 51.443079 52.886571 
L 52.714169 61.059424 
L 53.985258 69.697335 
L 54.620803 72.664297 
L 55.256347 74.05072 
L 55.891892 73.84295 
L 56.527437 72.098454 
L 57.798526 66.07749 
L 58.43407 63.047327 
L 59.069615 60.593621 
L 59.70516 58.980543 
L 60.340704 58.446229 
L 60.976249 59.249599 
L 61.611794 61.624806 
L 62.247338 65.637341 
L 62.882883 71.202697 
L 64.153972 85.633178 
L 65.425061 100.930192 
L 66.060606 107.487719 
L 66.696151 112.814106 
L 67.331695 116.716674 
L 67.96724 119.126043 
L 68.602785 119.892293 
L 69.238329 118.852086 
L 69.873874 116.152336 
L 70.509419 112.189414 
L 71.780508 101.701196 
L 73.051597 88.228702 
L 74.958231 67.521344 
L 76.22932 56.42118 
L 77.50041 48.074291 
L 78.135954 44.638485 
L 78.771499 40.278462 
L 80.042588 27.449657 
L 80.678133 20.694197 
L 81.313677 16.756364 
L 81.949222 16.779432 
L 83.220311 22.534116 
L 83.855856 24.380762 
L 84.4914 24.357162 
L 85.76249 22.529016 
L 86.398034 21.76784 
L 87.033579 20.574268 
L 87.669124 18.977811 
L 88.304668 18.380345 
L 88.940213 20.032456 
L 89.575758 24.541746 
L 90.846847 37.518023 
L 92.117936 50.749186 
L 93.389025 60.454829 
L 95.295659 73.33401 
L 95.931204 79.035046 
L 97.202293 93.34566 
L 98.473382 107.672548 
L 99.108927 111.872128 
L 99.744472 112.552173 
L 100.380016 110.280619 
L 101.015561 105.744939 
L 101.651106 98.566247 
L 104.193284 59.432807 
L 104.828829 54.17923 
L 105.464373 51.685282 
L 106.099918 51.503673 
L 106.735463 53.038881 
L 107.371007 55.765938 
L 108.006552 59.345 
L 108.642097 63.840914 
L 109.913186 75.568756 
L 111.81982 94.551968 
L 112.455364 99.406668 
L 113.726454 106.749531 
L 114.361998 109.56877 
L 114.997543 111.710467 
L 115.633088 113.228416 
L 116.904177 115.486531 
L 117.539722 116.347526 
L 118.175266 116.615576 
L 118.810811 116.222534 
L 119.446355 115.294552 
L 120.0819 113.88117 
L 120.717445 111.855871 
L 121.352989 108.760376 
L 121.988534 104.126268 
L 123.259623 90.796691 
L 124.530713 77.594125 
L 125.166257 72.885067 
L 125.801802 69.845572 
L 126.437346 68.361918 
L 127.072891 68.053707 
L 127.708436 68.483798 
L 128.979525 70.20017 
L 130.250614 72.401954 
L 131.521704 74.914549 
L 132.157248 75.413879 
L 132.792793 74.4308 
L 133.428337 71.771085 
L 135.334971 58.846137 
L 136.606061 47.227191 
L 137.87715 35.374444 
L 138.512695 30.634634 
L 139.148239 27.195848 
L 139.783784 25.406743 
L 140.419328 25.645333 
L 141.054873 28.148387 
L 141.690418 32.728503 
L 142.325962 38.836193 
L 143.597052 54.370843 
L 145.503686 80.632308 
L 146.774775 94.934819 
L 148.045864 107.353197 
L 148.681409 112.264862 
L 149.316953 115.232589 
L 149.952498 115.796461 
L 150.588043 113.932935 
L 151.223587 110.137337 
L 153.130221 96.33063 
L 153.765766 92.971562 
L 155.036855 88.181593 
L 155.6724 85.857142 
L 156.307944 82.848012 
L 156.943489 78.767683 
L 157.579034 73.381414 
L 159.485667 54.443465 
L 160.756757 44.47025 
L 162.027846 35.821717 
L 162.663391 32.299187 
L 163.298935 29.896128 
L 163.93448 28.902912 
L 164.570025 29.277688 
L 165.205569 30.614508 
L 166.476658 33.593775 
L 167.112203 34.507408 
L 168.383292 35.627849 
L 169.018837 36.541838 
L 169.654382 38.227127 
L 170.289926 40.868895 
L 170.925471 44.469241 
L 171.561016 49.021847 
L 172.832105 60.87858 
L 176.009828 96.766847 
L 176.645373 102.73012 
L 177.280917 107.36837 
L 177.916462 109.569971 
L 178.552007 109.466376 
L 179.187551 107.260585 
L 179.823096 103.247377 
L 180.45864 97.774603 
L 184.271908 59.733915 
L 184.907453 55.649654 
L 186.178542 49.818774 
L 187.449631 45.189488 
L 188.085176 43.55363 
L 188.720721 42.928718 
L 189.356265 43.442224 
L 189.99181 44.943874 
L 191.262899 49.043806 
L 191.898444 51.947394 
L 192.533989 57.148269 
L 193.169533 66.054391 
L 194.440622 89.600215 
L 195.076167 97.504603 
L 195.711712 103.004004 
L 196.347256 107.011806 
L 196.982801 109.826382 
L 197.618346 111.212683 
L 198.25389 111.218941 
L 198.889435 109.594613 
L 199.52498 105.650892 
L 200.160524 99.433542 
L 201.431613 82.860705 
L 203.973792 45.592557 
L 204.609337 40.450375 
L 205.244881 38.947108 
L 205.880426 41.175155 
L 206.515971 46.42937 
L 207.78706 60.536233 
L 209.058149 76.676464 
L 211.600328 113.513272 
L 212.235872 120.397992 
L 212.871417 125.792348 
L 213.506962 129.32551 
L 214.142506 130.665442 
L 214.778051 129.996174 
L 215.413595 127.941161 
L 216.04914 124.955754 
L 216.684685 121.179071 
L 218.591319 108.044387 
L 219.226863 105.4443 
L 219.862408 105.138081 
L 220.497952 107.520666 
L 221.133497 112.131202 
L 222.404586 122.843146 
L 223.040131 126.775098 
L 223.675676 128.906681 
L 224.31122 128.916171 
L 224.946765 126.672509 
L 225.58231 122.260413 
L 226.217854 115.958842 
L 227.488943 100.098984 
L 229.395577 76.124792 
L 230.666667 61.887838 
L 231.302211 56.006253 
L 231.937756 51.352441 
L 233.208845 44.739182 
L 235.115479 36.494621 
L 235.751024 34.531356 
L 236.386568 33.527239 
L 237.022113 33.769167 
L 237.657658 35.383416 
L 238.293202 38.354117 
L 238.928747 42.80304 
L 239.564292 48.896299 
L 240.199836 56.800008 
L 240.835381 66.853916 
L 242.10647 91.221354 
L 242.742015 101.181241 
L 243.377559 108.39858 
L 244.013104 112.737572 
L 244.648649 114.225417 
L 245.284193 112.962164 
L 245.919738 108.823447 
L 246.555283 102.296307 
L 247.826372 85.24854 
L 249.097461 67.398696 
L 250.36855 52.637119 
L 251.004095 46.923196 
L 251.63964 42.631812 
L 252.275184 40.309122 
L 252.910729 40.30311 
L 253.546274 42.600507 
L 254.181818 47.000383 
L 254.817363 53.224777 
L 256.088452 69.372428 
L 258.630631 102.951749 
L 259.266175 108.65728 
L 259.90172 111.579909 
L 260.537265 111.359514 
L 261.172809 108.088237 
L 261.808354 102.128408 
L 263.079443 84.884182 
L 263.714988 75.880376 
L 264.350532 68.478946 
L 264.986077 64.15358 
L 265.621622 63.524936 
L 266.257166 66.05828 
L 266.892711 71.036935 
L 269.434889 96.957908 
L 270.070434 102.284798 
L 270.705979 106.60504 
L 271.341523 109.450369 
L 271.977068 110.3181 
L 272.612613 108.965442 
L 273.248157 105.545511 
L 273.883702 100.523359 
L 275.154791 87.912588 
L 277.061425 68.079641 
L 278.332514 57.177255 
L 279.603604 48.273669 
L 280.239148 44.876474 
L 280.874693 43.358509 
L 281.510238 45.030935 
L 283.416871 55.27669 
L 284.052416 59.193812 
L 284.687961 64.0302 
L 285.323505 70.27821 
L 288.501229 108.225954 
L 289.772318 119.48027 
L 290.407862 123.394527 
L 291.043407 125.776533 
L 291.678952 126.359446 
L 292.314496 125.003932 
L 292.950041 121.934251 
L 293.585586 117.381567 
L 294.856675 104.792034 
L 296.763309 83.7776 
L 298.034398 73.182134 
L 299.305487 65.079791 
L 300.576577 58.584503 
L 301.847666 53.95055 
L 303.118755 48.966286 
L 304.389844 42.937507 
L 305.025389 40.699237 
L 305.660934 40.307161 
L 306.296478 42.357526 
L 306.932023 46.60303 
L 308.203112 59.919233 
L 309.474201 72.60257 
L 311.380835 87.980319 
L 312.651925 97.008092 
L 313.287469 99.934972 
L 313.923014 101.455539 
L 314.558559 101.186077 
L 315.194103 98.819774 
L 315.829648 94.467029 
L 317.100737 81.673843 
L 319.007371 61.028364 
L 320.27846 49.539466 
L 320.914005 45.591097 
L 321.54955 43.104494 
L 323.456183 38.11241 
L 324.727273 32.735506 
L 325.362817 30.813219 
L 325.998362 30.476833 
L 326.633907 31.917663 
L 327.269451 35.041671 
L 327.904996 39.608703 
L 329.176085 51.933367 
L 330.447174 68.50494 
L 331.718264 87.716864 
L 332.989353 100.049279 
L 335.531532 122.41261 
L 336.167076 124.701267 
L 336.802621 124.730695 
L 337.438165 122.947414 
L 338.07371 119.854807 
L 338.709255 115.596999 
L 339.344799 110.095398 
L 341.251433 89.367085 
L 344.429156 56.179296 
L 345.064701 52.858686 
L 345.700246 51.990877 
L 346.33579 53.151178 
L 346.971335 55.811797 
L 347.60688 59.592726 
L 348.877969 69.503429 
L 350.149058 79.53722 
L 351.420147 88.155824 
L 352.055692 91.883307 
L 352.691237 94.822332 
L 353.326781 96.7917 
L 353.962326 97.735341 
L 354.597871 97.789558 
L 355.233415 96.974769 
L 355.86896 95.202955 
L 357.140049 89.894509 
L 358.411138 84.182013 
L 359.046683 81.81 
L 359.682228 79.99257 
L 360.317772 78.708586 
L 360.953317 77.848449 
L 361.588862 77.38088 
L 362.224406 77.337288 
L 363.495495 77.854018 
L 364.13104 77.607354 
L 364.766585 76.711436 
L 365.402129 75.141923 
L 366.037674 72.95145 
L 367.944308 64.624651 
L 368.579853 62.770473 
L 369.215397 62.238112 
L 369.850942 63.326983 
L 370.486486 66.020256 
L 371.122031 69.962702 
L 371.757576 75.091043 
L 373.028665 88.190799 
L 374.935299 108.480272 
L 375.570844 113.819885 
L 376.206388 117.985633 
L 376.841933 120.70858 
L 377.477477 121.722968 
L 378.113022 120.782871 
L 378.748567 117.777119 
L 379.384111 112.906857 
L 380.655201 99.113886 
L 382.561835 77.126523 
L 383.832924 65.151597 
L 385.104013 56.034538 
L 386.375102 49.511925 
L 388.917281 38.580586 
L 389.552826 35.705404 
L 390.18837 33.579074 
L 390.823915 33.248191 
L 391.459459 35.711172 
L 392.095004 41.087368 
L 393.366093 58.975817 
L 394.637183 76.49846 
L 395.908272 91.523404 
L 397.179361 103.45956 
L 397.814906 107.851346 
L 398.45045 110.760769 
L 399.085995 112.283104 
L 399.72154 112.26219 
L 400.357084 110.537803 
L 400.992629 106.834052 
L 401.628174 100.823477 
L 402.263718 92.365955 
L 404.805897 52.423335 
L 405.441441 45.096764 
L 406.076986 39.477578 
L 406.712531 36.026002 
L 407.348075 35.200176 
L 407.98362 37.098356 
L 408.619165 41.509629 
L 409.254709 48.125785 
L 409.890254 56.570653 
L 411.161343 77.467821 
L 412.432432 100.029721 
L 413.067977 109.709891 
L 413.703522 117.133375 
L 414.339066 121.612624 
L 414.974611 122.747035 
L 415.610156 120.510874 
L 416.2457 115.169194 
L 416.881245 107.423702 
L 420.058968 61.455923 
L 420.694513 54.972535 
L 421.330057 50.816967 
L 421.965602 49.605644 
L 422.601147 51.494085 
L 423.236691 56.210657 
L 423.872236 63.14545 
L 425.77887 89.331445 
L 427.049959 105.535188 
L 427.685504 111.846976 
L 428.321048 116.843753 
L 428.956593 120.480342 
L 429.592138 122.60139 
L 430.227682 122.770593 
L 430.863227 120.648425 
L 431.498771 116.115679 
L 432.134316 109.313623 
L 435.312039 66.782594 
L 435.947584 61.133282 
L 436.583129 57.78221 
L 437.218673 57.247709 
L 437.854218 59.783106 
L 438.489762 65.085291 
L 439.760852 81.150405 
L 441.667486 107.800718 
L 442.30303 114.609551 
L 442.938575 118.995259 
L 443.57412 120.573886 
L 444.209664 119.132836 
L 444.845209 114.550174 
L 445.480753 107.09234 
L 448.658477 60.238563 
L 449.294021 55.668307 
L 449.929566 54.371074 
L 450.565111 56.271773 
L 451.200655 60.904416 
L 451.8362 67.694766 
L 453.107289 84.972282 
L 455.013923 111.395733 
L 455.649468 118.08517 
L 456.285012 122.529819 
L 456.920557 124.450431 
L 457.556102 123.747684 
L 458.191646 120.531374 
L 458.827191 115.191648 
L 459.462735 107.999751 
L 460.733825 89.831742 
L 462.004914 71.171545 
L 462.640459 63.400562 
L 463.276003 57.423535 
L 463.911548 53.360774 
L 464.547093 51.043659 
L 465.182637 50.321254 
L 465.818182 51.230158 
L 466.453726 53.943749 
L 467.089271 58.56764 
L 467.724816 64.988392 
L 468.995905 81.316933 
L 470.902539 105.592296 
L 471.538084 112.016686 
L 472.173628 116.896195 
L 472.809173 120.003106 
L 473.444717 121.299808 
L 474.080262 121.029187 
L 474.715807 119.285249 
L 475.351351 115.917603 
L 475.986896 110.832108 
L 477.257985 96.640267 
L 480.435708 55.849946 
L 481.071253 51.31112 
L 481.706798 48.92784 
L 482.342342 48.495159 
L 482.977887 49.540176 
L 484.248976 53.618694 
L 484.884521 55.599778 
L 485.520066 56.893168 
L 486.15561 57.184641 
L 486.791155 56.51381 
L 487.426699 55.629409 
L 488.062244 55.506412 
L 488.697789 56.800849 
L 489.333333 59.84776 
L 489.968878 64.627914 
L 491.239967 77.32853 
L 492.511057 89.993129 
L 493.782146 100.123981 
L 494.41769 103.951048 
L 495.053235 106.908018 
L 495.68878 109.125912 
L 497.595414 114.334218 
L 498.230958 115.782748 
L 498.866503 116.337901 
L 499.502048 115.479322 
L 500.137592 113.031569 
L 500.773137 109.094988 
L 502.044226 98.059913 
L 504.586405 73.973829 
L 505.221949 68.962346 
L 505.857494 64.982628 
L 506.493038 62.00672 
L 507.128583 59.958116 
L 507.764128 58.635773 
L 508.399672 57.803111 
L 509.035217 57.344218 
L 509.670762 57.204164 
L 510.306306 57.492658 
L 510.941851 58.551083 
L 511.577396 60.756943 
L 512.21294 64.358086 
L 512.848485 69.406366 
L 514.119574 82.798428 
L 515.390663 96.298884 
L 517.297297 114.205638 
L 518.568387 124.713005 
L 519.203931 128.977449 
L 519.839476 132.29932 
L 520.47502 134.605998 
L 521.110565 135.830093 
L 521.74611 135.883636 
L 522.381654 134.739033 
L 523.017199 132.459648 
L 523.652744 129.145643 
L 524.288288 124.97884 
L 525.559378 114.587264 
L 528.737101 86.660397 
L 529.372645 82.730564 
L 530.00819 80.317569 
L 530.643735 79.64586 
L 531.279279 80.893438 
L 531.914824 84.006937 
L 533.185913 93.452467 
L 534.457002 103.41975 
L 535.728092 112.130168 
L 536.999181 119.100325 
L 537.634726 121.730989 
L 538.27027 123.501873 
L 538.905815 123.884471 
L 539.54136 122.441945 
L 540.176904 118.996745 
L 540.812449 113.770569 
L 542.083538 99.832307 
L 544.625717 67.987722 
L 545.261261 62.289831 
L 545.896806 58.085836 
L 546.532351 55.462679 
L 547.167895 54.308679 
L 547.80344 54.583461 
L 548.438984 56.516625 
L 549.074529 60.460073 
L 549.710074 66.525768 
L 550.981163 82.846237 
L 552.252252 100.101909 
L 552.887797 107.454366 
L 553.523342 113.023442 
L 554.158886 116.190079 
L 554.794431 116.434555 
L 555.429975 113.638101 
L 556.06552 108.027397 
L 556.701065 100.116894 
L 557.972154 80.481063 
L 559.243243 60.443458 
L 559.878788 51.852177 
L 560.514333 44.936188 
L 561.149877 40.215776 
L 561.785422 38.14264 
L 562.420966 38.578181 
L 563.056511 40.924415 
L 563.692056 44.478885 
L 564.963145 53.208157 
L 566.234234 63.540576 
L 569.411957 94.068003 
L 570.047502 98.372104 
L 570.683047 101.766754 
L 571.318591 104.107473 
L 571.954136 105.105899 
L 572.589681 104.436795 
L 573.225225 101.993753 
L 573.86077 98.009552 
L 575.131859 87.203942 
L 578.309582 56.31585 
L 579.580672 47.23232 
L 580.851761 39.779255 
L 581.487305 37.823339 
L 582.12285 38.084787 
L 582.758395 40.590075 
L 583.393939 44.748537 
L 584.029484 51.74344 
L 585.936118 76.900803 
L 586.571663 82.622634 
L 587.842752 91.394765 
L 588.478296 95.226756 
L 589.113841 97.52361 
L 589.749386 97.951691 
L 590.38493 96.548528 
L 591.020475 93.377502 
L 591.65602 88.430658 
L 592.927109 74.22043 
L 594.833743 52.938802 
L 595.469287 46.73956 
L 596.104832 42.328412 
L 596.740377 40.554751 
L 597.375921 41.802789 
L 598.011466 46.042609 
L 598.647011 53.00427 
L 599.9181 72.777698 
L 601.189189 93.342819 
L 601.824734 101.492543 
L 602.460278 107.402972 
L 603.095823 110.627626 
L 603.731368 110.794948 
L 604.366912 107.612453 
L 605.002457 101.165821 
L 605.638002 91.951993 
L 608.18018 49.437855 
L 608.815725 42.29753 
L 609.451269 37.942852 
L 610.086814 36.813364 
L 610.722359 39.034158 
L 611.357903 44.259309 
L 611.993448 51.810534 
L 613.264537 71.03969 
L 614.535627 90.696271 
L 615.806716 107.033634 
L 616.44226 112.928744 
L 617.077805 116.411207 
L 617.71335 116.849031 
L 618.348894 114.027448 
L 618.984439 108.20369 
L 619.619984 99.764303 
L 622.162162 58.963025 
L 622.797707 51.073927 
L 623.433251 44.788643 
L 624.068796 39.933096 
L 624.704341 36.21027 
L 625.339885 33.585317 
L 625.97543 32.4153 
L 626.610975 33.32776 
L 627.246519 36.942581 
L 627.882064 43.405879 
L 629.153153 62.548534 
L 629.788698 72.640864 
L 631.059787 88.239914 
L 632.330876 100.65867 
L 632.966421 105.017816 
L 633.601966 107.627113 
L 634.23751 108.23767 
L 634.873055 106.724824 
L 635.5086 103.106443 
L 636.144144 97.527845 
L 637.415233 82.0514 
L 638.686323 65.261273 
L 639.321867 58.61577 
L 639.957412 54.243207 
L 640.592957 52.780694 
L 641.228501 54.271109 
L 641.864046 58.287759 
L 642.49959 64.219599 
L 643.77068 80.286289 
L 645.677314 107.59455 
L 646.312858 114.986747 
L 646.948403 120.644003 
L 647.583948 123.990719 
L 648.219492 124.58262 
L 648.855037 122.104457 
L 649.490581 116.543437 
L 650.761671 99.170551 
L 652.668305 70.804942 
L 653.303849 63.251242 
L 653.939394 57.793707 
L 654.574939 54.659285 
L 655.210483 53.840798 
L 655.846028 55.300556 
L 656.481572 59.035531 
L 657.117117 64.861508 
L 659.659296 95.036267 
L 660.29484 100.434476 
L 660.930385 104.726197 
L 661.56593 107.928099 
L 662.201474 109.723103 
L 662.837019 109.670304 
L 663.472563 107.45413 
L 664.108108 102.999753 
L 664.743653 96.433456 
L 666.014742 79.393338 
L 667.285831 61.810598 
L 667.921376 54.195062 
L 668.556921 48.14596 
L 669.192465 43.92385 
L 669.82801 41.786753 
L 670.463554 41.9096 
L 671.099099 44.488271 
L 671.734644 49.617309 
L 672.370188 56.897072 
L 674.912367 90.450504 
L 675.547912 95.422639 
L 676.183456 98.621075 
L 676.819001 100.239982 
L 677.454545 100.203491 
L 677.454545 100.203491 
" clip-path="url(#p6544b7a0d6)" style="fill: none; stroke: #000000; stroke-width: 0.5; stroke-linecap: square"/>
   </g>
   <g id="patch_3">
    <path d="M 10.8 141.84 
L 10.8 10.8 
" style="fill: none; stroke: #000000; stroke-width: 0.8; stroke-linejoin: miter; stroke-linecap: square"/>
   </g>
   <g id="patch_4">
    <path d="M 709.2 141.84 
L 709.2 10.8 
" style="fill: none; stroke: #000000; stroke-width: 0.8; stroke-linejoin: miter; stroke-linecap: square"/>
   </g>
   <g id="patch_5">
    <path d="M 10.8 141.84 
L 709.2 141.84 
" style="fill: none; stroke: #000000; stroke-width: 0.8; stroke-linejoin: miter; stroke-linecap: square"/>
   </g>
   <g id="patch_6">
    <path d="M 10.8 10.8 
L 709.2 10.8 
" style="fill: none; stroke: #000000; stroke-width: 0.8; stroke-linejoin: miter; stroke-linecap: square"/>
   </g>
  </g>
  <g id="axes_2">
   <g id="patch_7">
    <path d="M 10.8 283.68 
L 709.2 283.68 
L 709.2 152.64 
L 10.8 152.64 
L 10.8 283.68 
z
" style="fill: none"/>
   </g>
   <g id="matplotlib.axis_3"/>
   <g id="matplotlib.axis_4"/>
   <g id="line2d_2">
    <path d="M 42.545455 177.068731 
L 43.180999 177.770466 
L 43.816544 180.01493 
L 44.452088 183.97869 
L 45.087633 189.718211 
L 46.358722 205.535335 
L 47.629812 222.86962 
L 48.265356 229.543131 
L 48.900901 233.550819 
L 49.536446 235.014931 
L 50.17199 234.957607 
L 50.807535 234.66181 
L 51.443079 235.062864 
L 52.078624 236.504621 
L 53.985258 243.364276 
L 54.620803 244.407099 
L 55.256347 244.220579 
L 55.891892 242.886853 
L 56.527437 240.336979 
L 57.162981 236.527828 
L 58.43407 226.066687 
L 60.976249 201.382822 
L 62.247338 188.105929 
L 62.882883 182.639115 
L 63.518428 178.545267 
L 64.153972 176.321423 
L 64.789517 176.131043 
L 65.425061 177.888996 
L 66.060606 181.316209 
L 66.696151 186.061738 
L 67.331695 192.059853 
L 68.602785 207.19214 
L 71.780508 247.620693 
L 73.051597 260.612229 
L 73.687142 265.938906 
L 74.322686 270.037343 
L 74.958231 272.842114 
L 75.593776 274.546109 
L 76.22932 275.333122 
L 76.864865 275.497563 
L 77.50041 275.231915 
L 78.135954 274.747671 
L 78.771499 274.557046 
L 79.407043 274.891647 
L 80.042588 275.59245 
L 81.313677 277.549495 
L 81.949222 277.723636 
L 82.584767 276.696199 
L 83.220311 274.152528 
L 83.855856 270.324704 
L 85.126945 261.196766 
L 85.76249 257.46928 
L 87.033579 251.890625 
L 87.669124 249.792496 
L 88.304668 248.38641 
L 88.940213 247.678803 
L 90.211302 247.269337 
L 90.846847 246.775227 
L 91.482391 245.891127 
L 92.117936 244.497446 
L 92.753481 242.440162 
L 93.389025 239.478842 
L 94.02457 235.541687 
L 95.295659 225.077842 
L 96.566749 215.016135 
L 98.473382 203.198346 
L 99.108927 197.005286 
L 101.651106 165.382565 
L 102.28665 159.983502 
L 102.922195 158.596364 
L 103.55774 163.144162 
L 104.828829 181.993704 
L 106.099918 199.862545 
L 106.735463 206.410839 
L 107.371007 211.164244 
L 108.006552 214.438053 
L 109.913186 222.676479 
L 111.184275 228.535372 
L 111.81982 230.358448 
L 112.455364 231.167103 
L 113.090909 231.181499 
L 113.726454 230.685283 
L 115.633088 228.291512 
L 116.268632 227.95958 
L 117.539722 227.547018 
L 118.810811 226.644418 
L 119.446355 226.249743 
L 120.0819 226.232608 
L 120.717445 226.435891 
L 121.352989 226.251557 
L 121.988534 224.950885 
L 122.624079 222.000582 
L 123.259623 217.441878 
L 126.437346 189.699859 
L 127.072891 185.457761 
L 127.708436 181.990635 
L 128.34398 179.296671 
L 128.979525 177.30331 
L 129.61507 175.808512 
L 130.250614 174.649916 
L 130.886159 173.766961 
L 131.521704 173.107931 
L 132.157248 172.641551 
L 134.063882 171.798044 
L 134.699427 171.842322 
L 135.334971 172.282132 
L 135.970516 173.236506 
L 136.606061 174.926777 
L 137.241605 177.568887 
L 137.87715 181.297766 
L 138.512695 186.140465 
L 139.148239 192.128532 
L 140.419328 207.586246 
L 141.690418 223.118325 
L 142.325962 229.048441 
L 142.961507 233.462168 
L 143.597052 236.510403 
L 144.232596 238.268013 
L 144.868141 238.775782 
L 145.503686 238.061641 
L 146.13923 236.29639 
L 146.774775 233.643992 
L 147.410319 229.810836 
L 148.045864 224.458258 
L 149.316953 209.921212 
L 150.588043 194.48686 
L 151.223587 188.404736 
L 151.859132 184.126736 
L 152.494676 181.540044 
L 153.130221 180.265787 
L 153.765766 179.832576 
L 154.40131 179.854682 
L 156.307944 180.582092 
L 156.943489 180.967355 
L 157.579034 181.663073 
L 158.214578 182.877703 
L 158.850123 184.676881 
L 160.121212 189.345298 
L 160.756757 192.150783 
L 162.027846 199.350716 
L 163.298935 208.991738 
L 165.205569 224.439667 
L 165.841114 227.296817 
L 166.476658 227.776146 
L 167.112203 226.069984 
L 167.747748 222.67111 
L 168.383292 218.152166 
L 169.654382 206.902317 
L 170.925471 195.345193 
L 172.19656 186.006424 
L 172.832105 182.760721 
L 173.467649 180.872354 
L 174.103194 180.577572 
L 174.738739 181.905248 
L 175.374283 184.773251 
L 176.009828 189.140462 
L 176.645373 195.115112 
L 177.916462 211.631745 
L 179.823096 238.160976 
L 181.094185 252.998568 
L 182.365274 263.99742 
L 183.000819 268.093617 
L 183.636364 271.300429 
L 184.271908 273.402176 
L 184.907453 274.434581 
L 185.542998 274.772192 
L 186.178542 274.794807 
L 187.449631 274.476047 
L 188.085176 274.204741 
L 188.720721 273.734124 
L 189.356265 272.762816 
L 189.99181 271.112976 
L 190.627355 268.671417 
L 191.262899 265.30096 
L 191.898444 260.887209 
L 192.533989 255.324011 
L 193.169533 248.505218 
L 195.711712 216.341568 
L 197.618346 196.510664 
L 199.52498 173.852474 
L 200.160524 167.745379 
L 200.796069 163.614788 
L 201.431613 161.835052 
L 202.067158 162.607742 
L 202.702703 166.240274 
L 203.338247 172.97943 
L 203.973792 182.616092 
L 205.244881 207.126286 
L 206.515971 232.260998 
L 207.151515 241.220133 
L 207.78706 246.774317 
L 208.422604 249.563086 
L 209.058149 250.381447 
L 209.693694 249.776385 
L 210.329238 247.960122 
L 210.964783 244.930583 
L 211.600328 240.660594 
L 212.235872 235.063937 
L 213.506962 220.624083 
L 214.778051 205.660026 
L 215.413595 199.878603 
L 216.04914 195.515684 
L 216.684685 192.235739 
L 217.320229 189.72608 
L 217.955774 187.891363 
L 218.591319 186.694891 
L 219.226863 186.106347 
L 219.862408 186.246348 
L 220.497952 187.305792 
L 221.133497 189.4849 
L 221.769042 192.864529 
L 222.404586 197.552233 
L 223.040131 203.607817 
L 226.217854 239.623291 
L 227.488943 249.785017 
L 228.124488 253.18116 
L 228.760033 255.213591 
L 229.395577 255.867508 
L 230.031122 255.386444 
L 231.937756 251.539421 
L 232.573301 250.754583 
L 233.208845 250.48334 
L 233.84439 250.83955 
L 234.479934 251.857425 
L 236.386568 256.621823 
L 237.022113 256.940106 
L 237.657658 255.306369 
L 238.293202 251.274414 
L 238.928747 245.264816 
L 240.199836 229.808784 
L 241.470925 211.530245 
L 242.10647 201.394092 
L 242.742015 193.512561 
L 243.377559 188.715473 
L 244.648649 181.439831 
L 245.284193 177.576298 
L 245.919738 174.643115 
L 246.555283 173.241552 
L 247.190827 173.670425 
L 247.826372 175.992467 
L 248.461916 180.245797 
L 249.097461 186.495376 
L 249.733006 194.546482 
L 251.004095 214.395137 
L 252.275184 234.730978 
L 253.546274 250.99555 
L 254.181818 256.582662 
L 254.817363 259.874333 
L 255.452907 260.465951 
L 256.088452 258.263958 
L 256.723997 253.472211 
L 257.359541 246.354499 
L 258.630631 227.470821 
L 260.537265 198.407359 
L 261.172809 191.215912 
L 261.808354 185.995991 
L 262.443898 182.637012 
L 263.079443 180.986877 
L 263.714988 180.745422 
L 264.350532 181.423595 
L 264.986077 182.334318 
L 265.621622 182.891066 
L 266.257166 182.989111 
L 267.528256 182.35732 
L 268.1638 182.471636 
L 268.799345 183.52686 
L 269.434889 185.944699 
L 270.070434 190.089263 
L 270.705979 196.032457 
L 273.883702 232.697054 
L 275.154791 243.59525 
L 276.42588 253.110696 
L 277.061425 257.079737 
L 277.69697 260.181634 
L 278.332514 262.218791 
L 278.968059 263.129962 
L 279.603604 262.983259 
L 280.239148 261.817304 
L 280.874693 259.574447 
L 281.510238 256.245554 
L 282.145782 251.167944 
L 282.781327 243.846 
L 284.052416 223.773239 
L 285.95905 191.201503 
L 286.594595 182.92651 
L 287.230139 176.986027 
L 287.865684 172.998668 
L 288.501229 170.857235 
L 289.136773 170.56832 
L 289.772318 172.107393 
L 290.407862 175.487041 
L 291.043407 180.697862 
L 291.678952 187.606819 
L 295.492219 235.595045 
L 296.127764 240.654509 
L 296.763309 244.00986 
L 297.398853 246.053371 
L 298.034398 247.152104 
L 298.669943 247.513095 
L 299.305487 247.072595 
L 299.941032 245.72801 
L 300.576577 243.492884 
L 301.212121 240.520665 
L 302.48321 232.944956 
L 304.389844 219.943556 
L 305.025389 216.969431 
L 305.660934 215.600871 
L 306.296478 215.716501 
L 306.932023 216.668109 
L 307.567568 217.859158 
L 308.203112 218.57986 
L 308.838657 218.655178 
L 309.474201 218.391672 
L 310.109746 217.59471 
L 310.745291 216.116695 
L 311.380835 213.66228 
L 312.01638 209.630087 
L 313.287469 197.695928 
L 315.194103 178.830353 
L 315.829648 174.348319 
L 316.465192 171.51911 
L 317.100737 170.467886 
L 317.736282 171.222622 
L 318.371826 173.661076 
L 319.007371 177.479143 
L 321.54955 195.511659 
L 322.820639 200.868201 
L 323.456183 203.379258 
L 324.091728 206.910165 
L 324.727273 211.727716 
L 325.998362 223.627645 
L 327.269451 236.170655 
L 328.540541 246.133765 
L 329.176085 249.701638 
L 329.81163 252.434031 
L 330.447174 254.360881 
L 331.082719 255.422481 
L 331.718264 255.354733 
L 332.353808 253.775424 
L 332.989353 250.700203 
L 333.624898 246.228876 
L 334.260442 240.466027 
L 335.531532 225.393689 
L 337.438165 200.599313 
L 338.07371 194.313844 
L 338.709255 189.277168 
L 339.344799 185.274712 
L 339.980344 182.272556 
L 340.615889 180.410643 
L 341.251433 179.773083 
L 341.886978 180.388362 
L 342.522523 182.474822 
L 343.158067 186.394126 
L 343.793612 192.07092 
L 345.064701 206.894093 
L 346.33579 221.617308 
L 347.60688 233.136699 
L 348.877969 242.483357 
L 349.513514 246.085982 
L 350.149058 248.692353 
L 350.784603 250.348224 
L 351.420147 251.181708 
L 352.055692 251.254072 
L 352.691237 250.701915 
L 354.597871 248.394773 
L 355.86896 246.93931 
L 357.775594 244.225513 
L 358.411138 243.5486 
L 359.046683 243.148239 
L 359.682228 243.006652 
L 360.317772 243.053976 
L 360.953317 243.227304 
L 361.588862 243.542424 
L 363.495495 245.14535 
L 364.13104 245.171408 
L 364.766585 244.52695 
L 365.402129 243.048154 
L 366.037674 240.587263 
L 366.673219 236.969381 
L 367.308763 232.124532 
L 368.579853 219.849213 
L 372.39312 181.679963 
L 373.028665 178.319975 
L 373.66421 177.527458 
L 374.299754 179.182199 
L 374.935299 182.899713 
L 375.570844 188.268161 
L 376.841933 202.349269 
L 378.748567 227.422489 
L 381.290745 262.736705 
L 381.92629 268.491583 
L 382.561835 272.299934 
L 383.197379 274.379227 
L 383.832924 274.843667 
L 384.468468 273.848633 
L 385.104013 271.686868 
L 385.739558 269.091799 
L 386.375102 267.443524 
L 387.010647 268.131892 
L 388.281736 271.302656 
L 388.917281 272.213153 
L 389.552826 272.671767 
L 390.18837 272.914215 
L 390.823915 272.968734 
L 391.459459 272.625676 
L 392.095004 271.531852 
L 392.730549 269.583827 
L 393.366093 266.464728 
L 394.001638 262.103363 
L 395.272727 249.83418 
L 396.543817 233.587644 
L 399.085995 195.819122 
L 400.357084 180.06277 
L 401.628174 167.175036 
L 402.263718 162.260761 
L 402.899263 160.139318 
L 403.534808 162.284005 
L 404.170352 167.748845 
L 404.805897 175.398274 
L 406.076986 194.833641 
L 407.348075 215.688804 
L 408.619165 233.075606 
L 409.890254 246.097856 
L 410.525799 250.45519 
L 411.161343 252.696071 
L 411.796888 252.285907 
L 412.432432 248.835045 
L 413.067977 242.286685 
L 414.339066 222.38611 
L 415.610156 201.440119 
L 416.2457 192.855204 
L 416.881245 186.579181 
L 417.51679 183.154628 
L 418.152334 182.696439 
L 418.787879 185.022423 
L 419.423423 189.815444 
L 420.058968 196.755641 
L 421.330057 215.880076 
L 422.601147 237.08949 
L 423.236691 246.331504 
L 423.872236 253.648882 
L 424.507781 258.451174 
L 425.143325 260.513191 
L 425.77887 259.902763 
L 426.414414 256.804438 
L 427.049959 251.603489 
L 428.321048 237.072134 
L 431.498771 197.220403 
L 432.134316 192.101706 
L 432.769861 189.203212 
L 433.405405 188.984927 
L 434.04095 191.568377 
L 434.676495 196.704578 
L 435.312039 203.84159 
L 436.583129 221.601388 
L 437.854218 240.045161 
L 438.489762 247.820419 
L 439.125307 253.893057 
L 439.760852 257.827499 
L 440.396396 259.347726 
L 441.031941 258.365266 
L 441.667486 254.885077 
L 442.30303 249.134887 
L 443.57412 232.986164 
L 444.845209 215.308751 
L 445.480753 207.799717 
L 446.116298 202.296571 
L 446.751843 199.510333 
L 447.387387 199.76524 
L 448.022932 202.98268 
L 448.658477 208.757406 
L 449.929566 225.181966 
L 451.200655 241.452824 
L 451.8362 247.483582 
L 452.471744 251.57529 
L 453.107289 253.433357 
L 453.742834 252.959792 
L 454.378378 250.191525 
L 455.013923 245.301056 
L 455.649468 238.643801 
L 456.920557 222.278878 
L 458.191646 205.451361 
L 458.827191 198.994615 
L 459.462735 194.739129 
L 460.09828 193.010192 
L 460.733825 193.969713 
L 461.369369 197.453861 
L 462.004914 202.963955 
L 463.276003 217.708797 
L 465.182637 241.205801 
L 466.453726 254.43442 
L 467.089271 259.250522 
L 467.724816 262.178092 
L 468.36036 262.887798 
L 468.995905 261.242015 
L 469.63145 257.400689 
L 470.266994 251.702246 
L 471.538084 236.709582 
L 473.444717 213.066988 
L 474.715807 201.001909 
L 475.986896 191.182052 
L 476.622441 187.51973 
L 477.257985 185.166049 
L 477.89353 184.353457 
L 478.529075 185.252706 
L 479.164619 187.98348 
L 479.800164 192.530355 
L 480.435708 198.705775 
L 482.342342 220.483508 
L 482.977887 225.563033 
L 483.613432 228.68461 
L 484.248976 230.129614 
L 484.884521 230.289893 
L 485.520066 229.144901 
L 486.15561 226.468255 
L 486.791155 222.248631 
L 488.062244 211.324131 
L 489.968878 194.119685 
L 490.604423 189.452733 
L 491.239967 186.028547 
L 491.875512 183.981351 
L 492.511057 183.182792 
L 493.146601 183.277782 
L 493.782146 183.885858 
L 495.053235 185.763755 
L 495.68878 187.067354 
L 496.324324 189.009207 
L 496.959869 192.094213 
L 497.595414 196.630318 
L 498.230958 202.570554 
L 499.502048 217.407879 
L 501.408681 240.946693 
L 502.679771 253.907617 
L 503.315315 259.020171 
L 503.95086 263.0659 
L 504.586405 265.945721 
L 505.221949 267.851119 
L 505.857494 269.12326 
L 506.493038 270.099483 
L 507.128583 270.871633 
L 507.764128 271.273884 
L 508.399672 270.991514 
L 509.035217 269.615563 
L 509.670762 266.70618 
L 510.306306 261.815389 
L 510.941851 254.683645 
L 512.21294 234.479258 
L 514.119574 201.195226 
L 514.755119 192.398194 
L 515.390663 185.392999 
L 516.026208 180.201874 
L 516.661753 176.627636 
L 517.297297 174.404134 
L 517.932842 173.388986 
L 518.568387 173.637335 
L 519.203931 175.22361 
L 519.839476 178.213416 
L 520.47502 182.694016 
L 521.110565 188.639403 
L 522.381654 203.952927 
L 524.288288 229.331669 
L 524.923833 236.690685 
L 525.559378 242.612555 
L 526.194922 246.400088 
L 526.830467 248.272157 
L 527.466011 248.906399 
L 528.101556 248.997335 
L 529.372645 248.680309 
L 530.00819 248.877091 
L 530.643735 249.476975 
L 531.914824 250.897476 
L 532.550369 250.877423 
L 533.185913 249.606711 
L 533.821458 246.597323 
L 534.457002 241.643131 
L 535.728092 227.102648 
L 536.999181 212.241149 
L 538.27027 201.010646 
L 539.54136 191.317744 
L 540.176904 187.013666 
L 540.812449 183.693978 
L 541.447993 182.044645 
L 542.083538 182.439312 
L 542.719083 185.028673 
L 543.354627 189.777774 
L 543.990172 196.474945 
L 545.261261 213.951318 
L 546.532351 232.896896 
L 547.80344 248.237525 
L 549.074529 259.104407 
L 549.710074 262.800926 
L 550.345618 264.77681 
L 550.981163 264.601571 
L 551.616708 262.129602 
L 552.252252 257.433803 
L 552.887797 250.724578 
L 554.158886 232.740289 
L 555.429975 213.408074 
L 556.06552 205.175653 
L 556.701065 198.607453 
L 557.336609 194.21801 
L 557.972154 192.241335 
L 558.607699 192.675613 
L 559.243243 195.275625 
L 559.878788 199.582678 
L 561.149877 209.949249 
L 561.785422 213.672241 
L 562.420966 215.150892 
L 563.056511 214.079827 
L 563.692056 210.797975 
L 566.234234 192.285788 
L 566.869779 188.935867 
L 567.505324 186.481483 
L 568.140868 185.017978 
L 568.776413 184.600321 
L 569.411957 185.270665 
L 570.047502 187.171608 
L 570.683047 190.582855 
L 571.318591 195.745715 
L 571.954136 202.74423 
L 575.131859 244.900317 
L 576.402948 256.084946 
L 577.038493 259.930311 
L 577.674038 262.369395 
L 578.309582 263.594185 
L 578.945127 263.963821 
L 579.580672 263.795425 
L 580.216216 263.209616 
L 580.851761 262.075977 
L 581.487305 260.191137 
L 582.12285 257.428379 
L 582.758395 253.765418 
L 584.665029 239.933067 
L 585.936118 228.450566 
L 586.571663 221.063079 
L 589.113841 183.462251 
L 589.749386 177.023964 
L 590.38493 172.481305 
L 591.65602 166.268664 
L 592.291564 163.412279 
L 592.927109 162.14991 
L 593.562654 163.971093 
L 594.198198 168.115521 
L 594.833743 173.955752 
L 595.469287 181.360639 
L 596.740377 200.200866 
L 598.011466 220.194653 
L 599.282555 236.173759 
L 599.9181 241.397213 
L 600.553645 244.221672 
L 601.189189 244.218967 
L 601.824734 241.317069 
L 602.460278 235.866283 
L 603.095823 228.443841 
L 605.002457 202.067116 
L 605.638002 195.458748 
L 606.273546 191.4993 
L 606.909091 190.716477 
L 607.544636 193.062912 
L 608.18018 198.093663 
L 608.815725 205.213338 
L 610.086814 223.176762 
L 611.357903 241.995406 
L 611.993448 249.163749 
L 612.628993 253.801993 
L 613.264537 255.692361 
L 613.900082 254.828898 
L 614.535627 251.400684 
L 615.171171 245.630708 
L 615.806716 237.878443 
L 617.077805 217.901271 
L 618.348894 196.894823 
L 618.984439 189.096736 
L 619.619984 184.026922 
L 620.255528 181.927669 
L 620.891073 182.807355 
L 621.526618 186.332406 
L 622.162162 192.027613 
L 623.433251 206.971944 
L 625.97543 236.959986 
L 627.246519 251.695598 
L 627.882064 257.845187 
L 628.517609 262.050242 
L 629.153153 263.7814 
L 629.788698 262.857657 
L 630.424242 259.319965 
L 631.059787 253.413935 
L 632.330876 236.456322 
L 634.873055 196.585078 
L 635.5086 189.136002 
L 636.144144 183.515181 
L 636.779689 179.957058 
L 637.415233 178.714507 
L 638.050778 179.930453 
L 638.686323 183.581609 
L 639.321867 189.503411 
L 640.592957 205.989532 
L 641.864046 223.208177 
L 642.49959 230.398562 
L 643.135135 236.243912 
L 643.77068 240.6015 
L 644.406224 243.495901 
L 645.041769 244.803195 
L 645.677314 244.364579 
L 646.312858 242.101172 
L 646.948403 238.022719 
L 647.583948 232.287797 
L 650.126126 204.359299 
L 650.761671 200.642611 
L 651.397215 199.479915 
L 652.03276 200.841792 
L 652.668305 204.549124 
L 653.303849 210.338689 
L 654.574939 225.790999 
L 655.846028 241.868187 
L 656.481572 248.765338 
L 657.117117 253.875353 
L 657.752662 256.676395 
L 658.388206 256.928103 
L 659.023751 254.648399 
L 659.659296 250.232185 
L 660.930385 237.149387 
L 663.472563 206.756599 
L 664.108108 200.844714 
L 664.743653 196.332596 
L 665.379197 193.447782 
L 666.014742 192.397506 
L 666.650287 193.322321 
L 667.285831 196.259202 
L 667.921376 201.028598 
L 669.192465 214.520137 
L 671.734644 244.348174 
L 672.370188 249.866522 
L 673.005733 253.155081 
L 673.641278 253.767948 
L 674.276822 251.568559 
L 674.912367 246.715867 
L 676.183456 231.812977 
L 677.454545 215.172444 
L 677.454545 215.172444 
" clip-path="url(#p02f5a563ce)" style="fill: none; stroke: #000000; stroke-width: 0.5; stroke-linecap: square"/>
   </g>
   <g id="patch_8">
    <path d="M 10.8 283.68 
L 10.8 152.64 
" style="fill: none; stroke: #000000; stroke-width: 0.8; stroke-linejoin: miter; stroke-linecap: square"/>
   </g>
   <g id="patch_9">
    <path d="M 709.2 283.68 
L 709.2 152.64 
" style="fill: none; stroke: #000000; stroke-width: 0.8; stroke-linejoin: miter; stroke-linecap: square"/>
   </g>
   <g id="patch_10">
    <path d="M 10.8 283.68 
L 709.2 283.68 
" style="fill: none; stroke: #000000; stroke-width: 0.8; stroke-linejoin: miter; stroke-linecap: square"/>
   </g>
   <g id="patch_11">
    <path d="M 10.8 152.64 
L 709.2 152.64 
" style="fill: none; stroke: #000000; stroke-width: 0.8; stroke-linejoin: miter; stroke-linecap: square"/>
   </g>
  </g>
  <g id="axes_3">
   <g id="patch_12">
    <path d="M 10.8 425.52 
L 709.2 425.52 
L 709.2 294.48 
L 10.8 294.48 
L 10.8 425.52 
z
" style="fill: none"/>
   </g>
   <g id="matplotlib.axis_5"/>
   <g id="matplotlib.axis_6"/>
   <g id="line2d_3">
    <path d="M 42.545455 385.024108 
L 44.452088 390.532015 
L 45.087633 391.727515 
L 45.723178 392.379198 
L 46.358722 392.468683 
L 46.994267 392.026991 
L 48.900901 389.485248 
L 49.536446 389.070305 
L 50.17199 388.962432 
L 51.443079 389.224148 
L 53.349713 389.728369 
L 54.620803 389.900245 
L 56.527437 389.866115 
L 57.798526 389.597293 
L 58.43407 389.302668 
L 59.069615 388.873588 
L 59.70516 388.28489 
L 60.340704 387.441752 
L 60.976249 386.256797 
L 61.611794 384.666322 
L 62.247338 382.725406 
L 63.518428 377.60066 
L 67.96724 357.47179 
L 68.602785 355.388763 
L 69.238329 353.745721 
L 69.873874 352.656303 
L 70.509419 352.315128 
L 71.144963 352.782321 
L 71.780508 354.078109 
L 72.416052 356.256915 
L 73.051597 359.343059 
L 74.322686 367.643193 
L 76.22932 382.047994 
L 76.864865 385.549171 
L 77.50041 387.401578 
L 78.135954 387.276055 
L 78.771499 384.78464 
L 79.407043 379.83183 
L 80.042588 372.887109 
L 82.584767 340.162639 
L 84.4914 320.147933 
L 85.126945 314.79657 
L 85.76249 310.955022 
L 86.398034 308.349812 
L 87.033579 306.583071 
L 87.669124 305.772877 
L 88.304668 306.368813 
L 88.940213 307.62379 
L 89.575758 308.498935 
L 90.211302 308.328237 
L 90.846847 307.292026 
L 92.753481 302.743251 
L 93.389025 301.645552 
L 94.02457 300.871826 
L 94.660115 300.436364 
L 95.295659 300.542908 
L 95.931204 301.557243 
L 96.566749 303.749608 
L 97.202293 307.283299 
L 97.837838 312.301959 
L 99.108927 324.747539 
L 100.380016 334.204413 
L 102.28665 344.594164 
L 102.922195 349.395376 
L 104.828829 367.368852 
L 105.464373 371.353448 
L 106.099918 374.120819 
L 106.735463 376.003015 
L 107.371007 377.311385 
L 109.277641 380.477104 
L 110.548731 383.600498 
L 111.81982 386.877623 
L 113.090909 389.439752 
L 114.997543 392.951927 
L 116.268632 394.576751 
L 118.175266 396.408388 
L 118.810811 396.786232 
L 119.446355 396.961634 
L 120.0819 396.798581 
L 120.717445 396.16546 
L 121.352989 394.902123 
L 121.988534 392.866327 
L 123.259623 386.791704 
L 124.530713 380.244348 
L 125.801802 374.771946 
L 127.072891 370.208909 
L 128.34398 366.470763 
L 130.250614 361.579793 
L 131.521704 357.453534 
L 134.063882 347.87745 
L 134.699427 346.152887 
L 135.334971 344.868204 
L 135.970516 343.983827 
L 136.606061 343.508535 
L 137.241605 343.455674 
L 137.87715 343.740198 
L 138.512695 344.183197 
L 139.148239 344.442773 
L 139.783784 344.417547 
L 141.054873 343.928898 
L 142.961507 342.852467 
L 143.597052 342.718556 
L 144.232596 342.769864 
L 144.868141 343.004036 
L 145.503686 343.383718 
L 146.13923 343.922391 
L 146.774775 344.700612 
L 147.410319 345.87872 
L 148.045864 347.595986 
L 148.681409 349.871652 
L 149.952498 355.736205 
L 151.223587 361.959886 
L 151.859132 364.523891 
L 152.494676 366.494201 
L 153.130221 367.802942 
L 153.765766 368.514596 
L 154.40131 368.748155 
L 155.036855 368.628 
L 155.6724 368.255031 
L 157.579034 366.837778 
L 158.214578 366.657973 
L 159.485667 366.536348 
L 160.121212 366.349878 
L 161.392301 365.570748 
L 165.205569 362.405054 
L 165.841114 362.166914 
L 166.476658 362.16153 
L 169.018837 362.694061 
L 170.289926 362.798404 
L 170.925471 362.710086 
L 171.561016 362.320895 
L 172.19656 361.53723 
L 172.832105 360.274345 
L 174.103194 356.778446 
L 175.374283 353.317456 
L 176.009828 352.061302 
L 177.916462 349.378877 
L 178.552007 348.597716 
L 179.187551 348.253618 
L 179.823096 348.55584 
L 180.45864 349.609344 
L 181.094185 351.50308 
L 181.72973 354.309019 
L 182.365274 357.96572 
L 184.907453 375.275362 
L 185.542998 377.762975 
L 186.178542 379.324949 
L 186.814087 379.652322 
L 187.449631 378.289555 
L 188.085176 375.002048 
L 188.720721 369.714566 
L 189.356265 362.182764 
L 191.262899 332.476941 
L 191.898444 325.340408 
L 192.533989 320.373365 
L 193.169533 317.66875 
L 193.805078 317.049367 
L 194.440622 317.435068 
L 195.076167 318.243985 
L 195.711712 319.328493 
L 196.347256 320.742073 
L 197.618346 324.850369 
L 198.25389 327.557532 
L 200.160524 337.814356 
L 201.431613 345.161 
L 203.973792 362.071749 
L 204.609337 365.06435 
L 205.244881 367.247029 
L 205.880426 368.675294 
L 206.515971 369.501082 
L 207.151515 369.696067 
L 207.78706 369.387184 
L 209.058149 368.253756 
L 209.693694 367.892478 
L 210.329238 367.980331 
L 210.964783 368.580038 
L 211.600328 369.65636 
L 212.235872 371.20088 
L 212.871417 373.22332 
L 214.142506 378.487674 
L 216.04914 386.671047 
L 216.684685 388.946897 
L 217.320229 390.724887 
L 217.955774 391.828769 
L 218.591319 392.299353 
L 219.226863 392.251936 
L 219.862408 391.672837 
L 220.497952 390.483303 
L 221.133497 388.687713 
L 222.404586 383.955502 
L 224.31122 376.50177 
L 224.946765 374.522919 
L 225.58231 372.964125 
L 226.217854 371.93185 
L 226.853399 371.556357 
L 227.488943 371.856597 
L 228.124488 372.732766 
L 230.666667 377.836996 
L 231.302211 378.708607 
L 231.937756 379.145312 
L 232.573301 379.108771 
L 233.208845 378.45243 
L 233.84439 376.917514 
L 234.479934 374.315265 
L 235.115479 370.569453 
L 235.751024 365.60991 
L 236.386568 359.31886 
L 237.657658 343.129562 
L 238.928747 325.374358 
L 239.564292 318.201787 
L 240.199836 313.568305 
L 240.835381 312.250615 
L 241.470925 313.83061 
L 242.10647 317.4478 
L 242.742015 322.805028 
L 244.013104 336.529128 
L 247.190827 375.682102 
L 247.826372 380.643553 
L 248.461916 384.272946 
L 249.097461 386.863699 
L 249.733006 388.537789 
L 250.36855 389.304689 
L 251.004095 389.085799 
L 251.63964 387.769774 
L 252.275184 385.427362 
L 252.910729 382.183348 
L 254.181818 373.432063 
L 256.723997 353.30226 
L 257.359541 350.091708 
L 257.995086 348.339921 
L 258.630631 348.224177 
L 259.266175 349.640055 
L 259.90172 352.238515 
L 261.808354 361.853627 
L 263.079443 366.723579 
L 263.714988 368.51981 
L 264.350532 369.715005 
L 264.986077 370.165633 
L 265.621622 369.902387 
L 266.257166 369.064305 
L 266.892711 367.709517 
L 268.799345 362.41471 
L 270.070434 358.638266 
L 271.977068 352.473293 
L 272.612613 350.887747 
L 273.248157 349.740471 
L 273.883702 349.156291 
L 274.519247 349.274221 
L 275.154791 350.283229 
L 275.790336 352.294868 
L 276.42588 355.30292 
L 277.69697 363.855739 
L 279.603604 378.283429 
L 280.874693 387.052607 
L 282.781327 402.412401 
L 283.416871 405.718402 
L 284.052416 407.462382 
L 284.687961 407.592984 
L 285.323505 406.181139 
L 285.95905 403.356408 
L 286.594595 399.30804 
L 287.230139 394.172599 
L 289.136773 376.766467 
L 291.043407 362.129755 
L 292.314496 351.920462 
L 292.950041 347.665127 
L 293.585586 344.411581 
L 294.22113 342.186178 
L 294.856675 340.891527 
L 295.492219 340.395303 
L 296.127764 340.433203 
L 298.034398 341.141652 
L 298.669943 340.959946 
L 299.305487 340.209385 
L 299.941032 338.733541 
L 300.576577 336.56622 
L 301.847666 331.03446 
L 303.118755 324.662574 
L 305.025389 314.056188 
L 305.660934 311.778509 
L 306.296478 310.789144 
L 306.932023 310.732736 
L 307.567568 311.299093 
L 309.474201 313.652061 
L 310.745291 315.673941 
L 312.01638 318.510036 
L 312.651925 320.31252 
L 313.287469 322.73866 
L 313.923014 326.30918 
L 315.194103 336.752591 
L 316.465192 347.346788 
L 317.100737 351.52536 
L 318.371826 357.903981 
L 319.642916 362.835155 
L 320.27846 364.492157 
L 320.914005 365.537279 
L 321.54955 366.097745 
L 322.185094 366.352117 
L 322.820639 366.396674 
L 323.456183 366.262338 
L 324.091728 365.947746 
L 325.362817 364.749578 
L 326.633907 362.963439 
L 327.904996 360.915254 
L 328.540541 360.088793 
L 329.176085 359.502419 
L 329.81163 359.201868 
L 331.718264 359.155897 
L 332.989353 358.175868 
L 333.624898 357.993274 
L 334.260442 358.358323 
L 334.895987 359.35182 
L 335.531532 360.867057 
L 336.802621 365.004793 
L 339.344799 375.008098 
L 340.615889 379.687777 
L 341.251433 381.535277 
L 342.522523 384.313946 
L 343.793612 386.44731 
L 345.064701 387.910496 
L 346.33579 388.853843 
L 350.784603 391.111841 
L 352.055692 391.845932 
L 353.326781 392.302441 
L 354.597871 392.411787 
L 355.86896 392.157731 
L 357.140049 391.452155 
L 359.682228 389.437472 
L 360.317772 389.156777 
L 361.588862 388.956239 
L 362.859951 388.949084 
L 363.495495 389.04922 
L 364.766585 389.606857 
L 366.037674 390.351985 
L 366.673219 390.608785 
L 367.308763 390.676572 
L 367.944308 390.487967 
L 368.579853 390.012788 
L 369.215397 389.279884 
L 369.850942 388.26232 
L 370.486486 386.751484 
L 371.122031 384.488024 
L 371.757576 381.454097 
L 374.299754 367.238825 
L 375.570844 362.153528 
L 376.841933 358.459451 
L 377.477477 356.97553 
L 378.113022 355.798543 
L 378.748567 355.090962 
L 379.384111 355.14619 
L 380.019656 356.221032 
L 380.655201 358.354553 
L 381.92629 364.675609 
L 383.197379 371.274655 
L 383.832924 373.652566 
L 384.468468 374.934222 
L 385.104013 375.008324 
L 385.739558 374.347388 
L 386.375102 373.962952 
L 387.010647 374.79409 
L 387.646192 375.1376 
L 388.281736 373.573298 
L 388.917281 369.889949 
L 389.552826 364.095038 
L 391.459459 342.957626 
L 392.095004 337.941981 
L 393.366093 330.520648 
L 394.637183 324.96955 
L 395.272727 323.122899 
L 395.908272 322.200922 
L 396.543817 322.201526 
L 397.179361 323.132627 
L 397.814906 324.802112 
L 399.085995 329.235789 
L 400.357084 333.809424 
L 400.992629 335.234257 
L 401.628174 336.270358 
L 402.263718 337.758455 
L 402.899263 340.930788 
L 404.805897 359.16582 
L 405.441441 363.218571 
L 406.076986 365.737026 
L 406.712531 366.912534 
L 407.348075 367.079275 
L 407.98362 366.670809 
L 409.890254 364.732231 
L 411.161343 363.480214 
L 411.796888 363.000079 
L 412.432432 362.762822 
L 413.067977 362.847704 
L 413.703522 363.392777 
L 414.339066 364.544201 
L 414.974611 366.357977 
L 415.610156 368.845767 
L 417.51679 378.436644 
L 418.787879 384.297418 
L 419.423423 386.488595 
L 420.058968 387.902742 
L 420.694513 388.485422 
L 421.330057 388.320771 
L 421.965602 387.513005 
L 422.601147 386.136717 
L 423.872236 382.23578 
L 425.143325 378.287058 
L 426.414414 375.051884 
L 427.049959 373.796658 
L 427.685504 372.937562 
L 428.321048 372.579097 
L 428.956593 372.827761 
L 429.592138 373.773144 
L 430.227682 375.408149 
L 430.863227 377.67632 
L 432.134316 383.538645 
L 433.405405 389.497284 
L 434.04095 391.981373 
L 434.676495 393.966436 
L 435.312039 395.307969 
L 435.947584 395.938673 
L 436.583129 395.858126 
L 437.218673 395.187393 
L 437.854218 394.127989 
L 439.125307 391.314712 
L 440.396396 388.327052 
L 441.031941 387.093552 
L 441.667486 386.108654 
L 442.30303 385.409412 
L 442.938575 385.016125 
L 443.57412 384.920928 
L 444.209664 385.040537 
L 445.480753 385.605441 
L 446.751843 386.151938 
L 447.387387 386.259404 
L 448.022932 386.184685 
L 448.658477 385.872672 
L 449.294021 385.289301 
L 450.565111 383.492295 
L 453.742834 378.395542 
L 454.378378 377.833808 
L 455.013923 377.625125 
L 455.649468 377.77511 
L 456.285012 378.312405 
L 456.920557 379.324977 
L 457.556102 380.867764 
L 458.191646 382.922168 
L 459.462735 388.045936 
L 460.733825 393.274065 
L 461.369369 395.390408 
L 462.004914 396.833904 
L 462.640459 397.452429 
L 463.276003 397.26283 
L 463.911548 396.325801 
L 464.547093 394.681386 
L 465.182637 392.298208 
L 465.818182 389.122616 
L 467.089271 381.116245 
L 468.995905 369.294476 
L 469.63145 366.290321 
L 470.266994 364.081827 
L 470.902539 362.783118 
L 471.538084 362.41825 
L 472.173628 362.872434 
L 472.809173 363.966372 
L 474.080262 367.134964 
L 475.351351 371.095754 
L 477.89353 379.351171 
L 479.164619 382.539673 
L 479.800164 383.647695 
L 480.435708 384.45117 
L 481.071253 384.967874 
L 481.706798 385.183683 
L 483.613432 385.207436 
L 485.520066 385.809618 
L 486.15561 385.76625 
L 486.791155 385.483522 
L 487.426699 384.978452 
L 488.697789 383.480166 
L 489.333333 382.485129 
L 489.968878 381.280556 
L 491.239967 378.211214 
L 492.511057 374.999746 
L 496.959869 364.714016 
L 498.866503 359.82649 
L 499.502048 358.50777 
L 500.137592 357.635447 
L 500.773137 357.416027 
L 501.408681 357.987369 
L 502.044226 359.369408 
L 502.679771 361.486315 
L 503.95086 367.156723 
L 505.857494 376.609351 
L 507.128583 384.390315 
L 509.670762 402.478387 
L 510.941851 411.646593 
L 511.577396 415.471318 
L 512.21294 418.216428 
L 512.848485 419.563636 
L 513.484029 419.463446 
L 514.119574 418.073535 
L 514.755119 415.680525 
L 516.026208 408.948971 
L 517.297297 400.515095 
L 521.74611 366.830926 
L 522.381654 363.302365 
L 523.017199 360.531692 
L 523.652744 358.531855 
L 524.288288 357.292944 
L 524.923833 356.690906 
L 525.559378 356.553607 
L 528.101556 357.147185 
L 528.737101 356.91051 
L 530.00819 356.12541 
L 530.643735 355.933949 
L 531.279279 355.913371 
L 533.185913 356.297024 
L 533.821458 356.247253 
L 535.092547 355.843126 
L 535.728092 355.962488 
L 536.363636 356.684463 
L 536.999181 358.124029 
L 537.634726 360.320108 
L 538.27027 363.329207 
L 539.54136 371.408821 
L 542.083538 390.6652 
L 543.354627 398.207136 
L 543.990172 400.85522 
L 544.625717 402.547714 
L 545.261261 403.231941 
L 545.896806 402.931679 
L 546.532351 401.712405 
L 547.167895 399.709651 
L 547.80344 397.08036 
L 549.074529 390.409817 
L 550.981163 379.447354 
L 551.616708 376.456742 
L 552.252252 374.057374 
L 552.887797 372.317447 
L 553.523342 371.262527 
L 554.158886 370.83504 
L 554.794431 370.892669 
L 555.429975 371.308085 
L 556.701065 372.679517 
L 557.972154 374.110404 
L 558.607699 374.599044 
L 559.243243 374.80837 
L 559.878788 374.705084 
L 560.514333 374.300751 
L 561.785422 373.226745 
L 562.420966 372.899488 
L 563.056511 372.759962 
L 564.963145 372.645371 
L 565.59869 372.325571 
L 566.234234 371.593472 
L 566.869779 370.367618 
L 567.505324 368.656223 
L 568.776413 364.133655 
L 572.589681 349.837626 
L 573.225225 348.529349 
L 573.86077 348.133806 
L 574.496314 348.738243 
L 575.131859 350.319661 
L 575.767404 352.73989 
L 577.674038 361.30723 
L 578.309582 362.809174 
L 578.945127 363.055806 
L 579.580672 361.825219 
L 580.216216 358.709934 
L 580.851761 353.379746 
L 581.487305 345.781883 
L 583.393939 319.273082 
L 584.029484 314.741508 
L 584.665029 312.77054 
L 585.300573 312.443974 
L 585.936118 312.88569 
L 586.571663 313.486768 
L 587.207207 314.286448 
L 587.842752 315.932321 
L 590.38493 327.858133 
L 591.020475 328.86234 
L 591.65602 328.816877 
L 592.291564 329.3288 
L 592.927109 332.078246 
L 595.469287 354.589721 
L 596.104832 357.451809 
L 596.740377 359.309353 
L 597.375921 360.547951 
L 598.647011 362.338462 
L 599.9181 363.743687 
L 601.189189 364.742309 
L 603.095823 365.912501 
L 603.731368 366.603253 
L 604.366912 367.548057 
L 605.638002 370.06892 
L 606.909091 372.713564 
L 607.544636 373.537395 
L 608.18018 373.783634 
L 608.815725 373.415065 
L 609.451269 372.460804 
L 610.086814 371.028919 
L 611.357903 367.286604 
L 613.900082 359.153402 
L 614.535627 357.609175 
L 615.171171 356.541526 
L 615.806716 356.183138 
L 616.44226 356.794052 
L 617.077805 358.479762 
L 617.71335 361.139517 
L 618.984439 368.142955 
L 620.891073 379.000082 
L 621.526618 381.505947 
L 622.162162 383.189411 
L 622.797707 384.061779 
L 623.433251 384.194617 
L 624.068796 383.721191 
L 624.704341 382.66923 
L 625.339885 380.986479 
L 625.97543 378.597911 
L 626.610975 375.428481 
L 627.882064 367.037425 
L 629.788698 353.364866 
L 630.424242 349.831334 
L 631.059787 347.007521 
L 631.695332 344.992475 
L 632.330876 343.916629 
L 632.966421 343.810864 
L 633.601966 344.663421 
L 634.23751 346.369897 
L 634.873055 348.730453 
L 636.144144 354.643212 
L 638.686323 367.67849 
L 639.321867 370.202149 
L 639.957412 372.247346 
L 641.228501 375.178353 
L 650.126126 391.607242 
L 651.397215 393.179198 
L 652.03276 393.619641 
L 652.668305 393.693248 
L 653.303849 393.386906 
L 653.939394 392.720422 
L 654.574939 391.577378 
L 655.210483 389.822937 
L 655.846028 387.373948 
L 659.023751 372.661715 
L 659.659296 370.645306 
L 660.29484 369.135294 
L 660.930385 368.172851 
L 661.56593 367.810688 
L 662.201474 368.054877 
L 662.837019 368.848961 
L 664.108108 371.435318 
L 665.379197 374.096733 
L 666.014742 375.086073 
L 666.650287 375.778474 
L 667.285831 376.194873 
L 667.921376 376.316682 
L 668.556921 376.112341 
L 669.192465 375.542222 
L 669.82801 374.620329 
L 670.463554 373.295307 
L 671.099099 371.483665 
L 672.370188 366.755213 
L 674.276822 359.347104 
L 674.912367 357.481093 
L 675.547912 356.037146 
L 676.183456 355.043217 
L 676.819001 354.546294 
L 677.454545 354.54459 
L 677.454545 354.54459 
" clip-path="url(#paaa4929f1c)" style="fill: none; stroke: #000000; stroke-width: 0.5; stroke-linecap: square"/>
   </g>
   <g id="patch_13">
    <path d="M 10.8 425.52 
L 10.8 294.48 
" style="fill: none; stroke: #000000; stroke-width: 0.8; stroke-linejoin: miter; stroke-linecap: square"/>
   </g>
   <g id="patch_14">
    <path d="M 709.2 425.52 
L 709.2 294.48 
" style="fill: none; stroke: #000000; stroke-width: 0.8; stroke-linejoin: miter; stroke-linecap: square"/>
   </g>
   <g id="patch_15">
    <path d="M 10.8 425.52 
L 709.2 425.52 
" style="fill: none; stroke: #000000; stroke-width: 0.8; stroke-linejoin: miter; stroke-linecap: square"/>
   </g>
   <g id="patch_16">
    <path d="M 10.8 294.48 
L 709.2 294.48 
" style="fill: none; stroke: #000000; stroke-width: 0.8; stroke-linejoin: miter; stroke-linecap: square"/>
   </g>
  </g>
  <g id="axes_4">
   <g id="patch_17">
    <path d="M 10.8 567.36 
L 709.2 567.36 
L 709.2 436.32 
L 10.8 436.32 
L 10.8 567.36 
z
" style="fill: none"/>
   </g>
   <g id="matplotlib.axis_7"/>
   <g id="matplotlib.axis_8"/>
   <g id="line2d_4">
    <path d="M 42.545455 521.595127 
L 43.180999 520.013823 
L 43.816544 519.132145 
L 44.452088 518.721447 
L 45.087633 518.61761 
L 46.358722 518.850164 
L 46.994267 519.590234 
L 47.629812 521.478014 
L 50.17199 533.138353 
L 52.078624 540.724055 
L 52.714169 543.306694 
L 53.349713 545.394347 
L 53.985258 546.537986 
L 54.620803 546.541588 
L 55.256347 545.483408 
L 56.527437 542.264049 
L 57.162981 541.154546 
L 57.798526 540.59732 
L 59.069615 540.185584 
L 59.70516 540.041895 
L 60.340704 540.161718 
L 61.611794 541.251713 
L 62.247338 541.372639 
L 62.882883 540.949391 
L 63.518428 539.9061 
L 64.153972 538.107582 
L 64.789517 535.391589 
L 66.060606 528.912179 
L 66.696151 527.359322 
L 67.331695 526.247568 
L 67.96724 524.557 
L 69.238329 519.372307 
L 69.873874 515.670215 
L 71.144963 505.398805 
L 72.416052 495.147599 
L 74.322686 481.897812 
L 74.958231 478.239193 
L 75.593776 475.35384 
L 76.22932 473.365836 
L 77.50041 471.091271 
L 78.135954 469.044946 
L 78.771499 465.452054 
L 79.407043 460.03819 
L 80.678133 446.338962 
L 81.313677 442.42014 
L 81.949222 442.276364 
L 82.584767 445.114913 
L 83.855856 453.124054 
L 84.4914 456.028316 
L 85.126945 457.949396 
L 85.76249 459.176905 
L 86.398034 459.686105 
L 87.033579 459.013085 
L 88.304668 455.066293 
L 88.940213 455.397135 
L 89.575758 459.721558 
L 90.211302 466.869085 
L 92.753481 501.604285 
L 95.931204 537.273534 
L 96.566749 541.95686 
L 97.202293 544.154534 
L 97.837838 542.932686 
L 98.473382 538.09633 
L 100.380016 518.536701 
L 101.015561 514.995092 
L 101.651106 516.392213 
L 102.28665 522.747457 
L 102.922195 530.243844 
L 103.55774 535.677728 
L 104.193284 539.521272 
L 105.464373 545.053759 
L 109.277641 559.745659 
L 109.913186 561.180764 
L 110.548731 561.403636 
L 111.184275 560.631635 
L 113.090909 557.015979 
L 113.726454 555.268657 
L 115.633088 548.164526 
L 116.268632 546.536702 
L 117.539722 543.876542 
L 118.810811 539.675385 
L 119.446355 538.31278 
L 120.0819 538.692623 
L 120.717445 541.292296 
L 121.352989 545.678067 
L 122.624079 555.853635 
L 123.259623 559.393823 
L 123.895168 560.634603 
L 124.530713 559.589778 
L 125.166257 556.82814 
L 127.072891 544.804347 
L 128.34398 537.393258 
L 128.979525 534.516115 
L 129.61507 532.346523 
L 130.250614 530.756237 
L 132.157248 527.26196 
L 132.792793 525.280194 
L 134.699427 516.973193 
L 135.334971 515.245986 
L 135.970516 514.105606 
L 136.606061 513.669016 
L 137.241605 514.085189 
L 137.87715 515.32964 
L 138.512695 517.321778 
L 139.148239 520.030562 
L 141.690418 533.438617 
L 142.325962 535.151226 
L 142.961507 535.56676 
L 143.597052 534.806562 
L 144.232596 533.183067 
L 145.503686 529.381545 
L 146.13923 528.39324 
L 146.774775 528.433859 
L 147.410319 529.338388 
L 148.045864 530.579734 
L 148.681409 531.404995 
L 149.316953 531.439632 
L 149.952498 530.791016 
L 150.588043 529.536687 
L 151.859132 525.670683 
L 153.130221 521.797987 
L 155.6724 514.663493 
L 156.307944 512.6498 
L 156.943489 511.007133 
L 157.579034 510.13454 
L 158.214578 510.256464 
L 160.121212 513.029222 
L 160.756757 513.30683 
L 162.663391 513.173212 
L 163.298935 513.804912 
L 163.93448 515.234313 
L 164.570025 517.437983 
L 165.841114 522.703695 
L 166.476658 524.757478 
L 167.112203 526.041332 
L 167.747748 526.470486 
L 168.383292 526.094184 
L 169.018837 525.037258 
L 169.654382 523.696973 
L 170.289926 522.754533 
L 170.925471 522.740986 
L 171.561016 523.683207 
L 172.832105 527.17487 
L 173.467649 528.371627 
L 174.103194 528.785465 
L 174.738739 528.539291 
L 176.009828 527.248321 
L 176.645373 526.217034 
L 177.280917 523.960383 
L 179.187551 510.275901 
L 180.45864 501.052439 
L 183.636364 474.627296 
L 184.271908 471.106154 
L 184.907453 468.691894 
L 185.542998 467.277186 
L 186.814087 465.827079 
L 188.085176 463.663028 
L 188.720721 463.447203 
L 189.356265 464.71941 
L 189.99181 467.825715 
L 191.898444 482.159278 
L 192.533989 488.821157 
L 193.169533 497.970412 
L 194.440622 519.057806 
L 195.076167 525.655009 
L 195.711712 529.812908 
L 196.347256 532.155188 
L 196.982801 532.781715 
L 197.618346 532.354268 
L 198.25389 531.496025 
L 198.889435 529.789005 
L 200.160524 524.762801 
L 200.796069 523.374629 
L 201.431613 523.396556 
L 202.067158 524.635119 
L 203.338247 528.260726 
L 203.973792 529.003358 
L 204.609337 528.415446 
L 206.515971 523.798747 
L 207.151515 523.575201 
L 207.78706 524.602725 
L 209.693694 530.22845 
L 210.329238 531.233058 
L 210.964783 531.732472 
L 211.600328 532.033177 
L 212.235872 532.206463 
L 212.871417 532.21522 
L 213.506962 531.946794 
L 214.778051 530.682797 
L 215.413595 530.441067 
L 216.04914 530.548385 
L 216.684685 530.451274 
L 217.320229 529.54846 
L 219.226863 524.031213 
L 219.862408 523.140707 
L 220.497952 523.176579 
L 221.133497 523.806379 
L 222.404586 525.461214 
L 223.040131 526.011367 
L 224.31122 526.687883 
L 224.946765 526.990293 
L 225.58231 527.023103 
L 226.217854 526.341187 
L 226.853399 524.690029 
L 227.488943 522.337434 
L 228.124488 519.498557 
L 230.031122 509.77245 
L 231.937756 503.451985 
L 233.208845 498.884915 
L 233.84439 495.747352 
L 235.115479 487.683213 
L 235.751024 483.379605 
L 236.386568 479.899998 
L 237.022113 478.621502 
L 237.657658 480.807392 
L 238.293202 486.48894 
L 239.564292 504.001927 
L 241.470925 530.935283 
L 242.10647 538.570649 
L 242.742015 542.904935 
L 244.013104 546.196546 
L 245.284193 551.209396 
L 245.919738 551.476112 
L 246.555283 549.790517 
L 247.190827 546.932276 
L 248.461916 539.328361 
L 249.733006 529.598692 
L 251.004095 516.159252 
L 252.275184 502.374281 
L 252.910729 497.725361 
L 253.546274 495.164911 
L 254.181818 494.595175 
L 254.817363 495.615305 
L 255.452907 497.806873 
L 256.088452 501.083257 
L 256.723997 505.376879 
L 257.995086 516.924732 
L 258.630631 523.058209 
L 259.266175 527.692327 
L 259.90172 529.867013 
L 260.537265 529.655491 
L 261.172809 527.677843 
L 263.079443 518.944998 
L 263.714988 517.851167 
L 264.350532 517.955776 
L 264.986077 518.83999 
L 267.528256 523.440471 
L 268.1638 524.626636 
L 269.434889 527.491678 
L 270.070434 528.297804 
L 270.705979 528.254261 
L 271.341523 527.511842 
L 271.977068 526.288751 
L 272.612613 524.416963 
L 273.248157 521.474271 
L 273.883702 517.131018 
L 277.061425 489.338982 
L 277.69697 485.637434 
L 278.332514 482.658152 
L 278.968059 480.279283 
L 279.603604 478.650459 
L 280.239148 478.422467 
L 280.874693 480.868467 
L 281.510238 487.354443 
L 282.781327 506.753998 
L 284.052416 525.878231 
L 285.323505 540.067739 
L 285.95905 545.310372 
L 286.594595 549.128695 
L 287.230139 551.257516 
L 287.865684 551.904065 
L 288.501229 552.340675 
L 289.136773 553.688173 
L 289.772318 554.766967 
L 290.407862 554.5262 
L 291.043407 552.520613 
L 291.678952 548.775737 
L 292.950041 537.963088 
L 294.22113 524.71914 
L 297.398853 486.992106 
L 298.034398 482.342551 
L 299.305487 475.515178 
L 299.941032 473.116075 
L 300.576577 471.905334 
L 301.212121 472.161755 
L 301.847666 473.714287 
L 302.48321 476.289968 
L 303.118755 479.739215 
L 303.7543 483.922427 
L 305.025389 494.701666 
L 308.203112 527.374471 
L 308.838657 530.718871 
L 309.474201 532.184392 
L 311.380835 534.531585 
L 313.287469 540.124011 
L 313.923014 540.493063 
L 314.558559 539.306953 
L 317.100737 529.553601 
L 317.736282 528.043594 
L 319.007371 526.162126 
L 319.642916 525.480977 
L 320.27846 525.317637 
L 320.914005 525.908804 
L 321.54955 526.902819 
L 322.185094 527.574938 
L 322.820639 527.288457 
L 323.456183 525.67409 
L 325.362817 517.176148 
L 325.998362 515.970866 
L 326.633907 516.176772 
L 327.269451 517.57871 
L 327.904996 519.876659 
L 329.176085 525.851713 
L 331.082719 535.494971 
L 331.718264 536.599721 
L 332.353808 534.614865 
L 333.624898 528.898054 
L 334.260442 527.455157 
L 335.531532 526.145922 
L 336.802621 523.70852 
L 337.438165 522.969875 
L 338.07371 523.131351 
L 338.709255 523.831667 
L 339.344799 524.356823 
L 339.980344 524.39812 
L 341.251433 524.166405 
L 342.522523 524.219617 
L 343.158067 524.580978 
L 343.793612 525.333467 
L 344.429156 526.756262 
L 345.064701 529.019952 
L 346.971335 537.618116 
L 347.60688 539.824073 
L 348.242424 541.416007 
L 348.877969 542.38896 
L 349.513514 542.739423 
L 350.149058 542.659309 
L 350.784603 542.279715 
L 351.420147 541.499238 
L 352.055692 540.039049 
L 355.86896 526.209998 
L 357.140049 520.164779 
L 358.411138 514.152009 
L 359.046683 511.818459 
L 359.682228 510.009056 
L 360.317772 509.041508 
L 360.953317 509.014037 
L 361.588862 509.756051 
L 362.224406 511.1066 
L 362.859951 512.873305 
L 363.495495 515.042514 
L 364.13104 517.911212 
L 365.402129 525.291986 
L 366.673219 532.383912 
L 367.308763 535.00793 
L 369.215397 541.288636 
L 370.486486 546.83495 
L 371.122031 547.826649 
L 371.757576 546.660929 
L 372.39312 544.086404 
L 375.570844 528.251183 
L 377.477477 519.81855 
L 378.113022 516.611351 
L 379.384111 508.417488 
L 380.655201 498.325766 
L 383.197379 477.223364 
L 383.832924 473.722312 
L 384.468468 471.672896 
L 385.104013 471.153753 
L 386.375102 472.410937 
L 387.010647 471.312812 
L 387.646192 469.090299 
L 390.18837 458.62701 
L 390.823915 459.075422 
L 391.459459 462.849213 
L 392.095004 469.654318 
L 394.001638 496.769615 
L 395.272727 511.073614 
L 396.543817 522.220835 
L 397.179361 525.806417 
L 397.814906 527.667079 
L 398.45045 528.184521 
L 399.085995 528.253159 
L 399.72154 528.124379 
L 400.992629 527.41928 
L 401.628174 528.214582 
L 402.899263 532.377806 
L 403.534808 533.422659 
L 404.170352 533.487918 
L 404.805897 532.677463 
L 406.712531 528.18993 
L 407.348075 528.02265 
L 407.98362 528.767952 
L 408.619165 529.79802 
L 409.254709 530.502496 
L 409.890254 530.256348 
L 410.525799 529.000533 
L 411.796888 525.740014 
L 412.432432 524.833606 
L 413.067977 524.318496 
L 413.703522 523.990956 
L 414.339066 523.882385 
L 414.974611 524.108972 
L 416.881245 525.263446 
L 417.51679 525.640485 
L 418.787879 526.738412 
L 419.423423 526.64108 
L 420.058968 525.569043 
L 420.694513 523.651187 
L 421.965602 518.952728 
L 422.601147 517.11296 
L 423.236691 516.099251 
L 423.872236 515.854902 
L 425.77887 516.433197 
L 427.049959 515.784194 
L 427.685504 516.033609 
L 428.321048 517.420599 
L 428.956593 519.967226 
L 430.227682 525.52524 
L 430.863227 527.04504 
L 431.498771 527.624192 
L 432.134316 527.56584 
L 433.405405 526.945826 
L 434.04095 526.824446 
L 434.676495 526.480987 
L 435.312039 525.482094 
L 437.218673 520.613139 
L 437.854218 520.184837 
L 439.125307 520.187264 
L 439.760852 519.860816 
L 440.396396 519.356334 
L 441.031941 518.70321 
L 441.667486 517.73831 
L 442.30303 516.34453 
L 444.209664 511.256435 
L 444.845209 509.894957 
L 445.480753 508.825628 
L 446.116298 508.476667 
L 446.751843 509.018068 
L 447.387387 510.283808 
L 448.022932 512.1317 
L 448.658477 514.488795 
L 451.200655 525.745167 
L 451.8362 526.425382 
L 452.471744 525.727191 
L 454.378378 520.524796 
L 455.013923 519.859531 
L 455.649468 519.889467 
L 456.285012 520.566793 
L 456.920557 521.893204 
L 458.827191 526.804119 
L 459.462735 527.551503 
L 460.09828 527.306123 
L 460.733825 525.899012 
L 461.369369 523.671024 
L 463.276003 515.248715 
L 464.547093 510.60514 
L 466.453726 502.264338 
L 467.089271 500.894358 
L 467.724816 501.11679 
L 468.36036 502.745473 
L 468.995905 505.286882 
L 470.266994 512.188744 
L 471.538084 520.169085 
L 472.173628 523.234222 
L 472.809173 525.085169 
L 473.444717 525.902129 
L 474.080262 526.235945 
L 474.715807 526.298657 
L 475.351351 525.832746 
L 477.257985 522.671709 
L 478.529075 521.518267 
L 479.800164 520.451522 
L 480.435708 520.119533 
L 481.071253 520.401974 
L 481.706798 521.541177 
L 482.342342 523.443875 
L 484.884521 532.591599 
L 485.520066 534.017635 
L 486.15561 534.51502 
L 486.791155 533.822895 
L 488.062244 531.213517 
L 488.697789 530.42661 
L 489.333333 530.187229 
L 489.968878 530.678067 
L 490.604423 532.082671 
L 491.875512 536.649665 
L 492.511057 538.931709 
L 493.146601 540.780251 
L 493.782146 541.959683 
L 494.41769 542.275856 
L 495.053235 541.444174 
L 495.68878 539.255657 
L 497.595414 528.674152 
L 500.773137 511.064628 
L 502.679771 496.11765 
L 503.315315 492.571131 
L 503.95086 489.989156 
L 505.221949 486.231564 
L 505.857494 484.831315 
L 506.493038 483.82028 
L 507.128583 483.248408 
L 507.764128 483.063579 
L 508.399672 483.277403 
L 509.035217 484.356567 
L 509.670762 486.883142 
L 510.306306 491.374917 
L 510.941851 497.991711 
L 514.119574 539.079524 
L 514.755119 544.562488 
L 515.390663 548.830419 
L 516.026208 552.099939 
L 516.661753 554.395641 
L 517.297297 555.49129 
L 517.932842 555.285501 
L 518.568387 553.92445 
L 519.203931 551.619584 
L 519.839476 548.580886 
L 521.110565 540.944651 
L 522.381654 532.279922 
L 525.559378 507.851102 
L 528.101556 483.597435 
L 528.737101 479.419327 
L 529.372645 476.831446 
L 530.00819 475.908391 
L 530.643735 476.559085 
L 531.279279 478.830779 
L 531.914824 482.757435 
L 533.821458 498.326033 
L 535.728092 515.027959 
L 537.634726 533.404793 
L 538.27027 538.051228 
L 538.905815 541.228157 
L 539.54136 542.787519 
L 540.176904 543.010662 
L 540.812449 542.31866 
L 541.447993 541.013177 
L 542.083538 538.948948 
L 542.719083 535.914764 
L 543.990172 527.977976 
L 546.532351 510.815438 
L 547.80344 504.351345 
L 548.438984 502.303206 
L 549.074529 501.767111 
L 549.710074 502.671477 
L 552.887797 511.139128 
L 553.523342 512.126795 
L 554.158886 512.466836 
L 554.794431 512.248021 
L 556.06552 511.181226 
L 556.701065 511.016362 
L 557.336609 511.221904 
L 557.972154 511.592569 
L 558.607699 511.778075 
L 559.243243 511.601566 
L 559.878788 511.190892 
L 560.514333 510.960531 
L 561.149877 511.33491 
L 561.785422 512.637059 
L 564.3276 521.251637 
L 564.963145 522.65697 
L 565.59869 524.512406 
L 566.869779 529.741338 
L 568.140868 535.545196 
L 568.776413 537.769937 
L 569.411957 538.98433 
L 570.047502 538.904299 
L 570.683047 537.305332 
L 571.318591 534.081353 
L 571.954136 529.297701 
L 573.225225 516.376384 
L 575.767404 487.802272 
L 577.038493 477.138629 
L 578.309582 469.814976 
L 579.580672 464.31554 
L 580.216216 462.266475 
L 580.851761 461.614138 
L 581.487305 463.619777 
L 582.12285 469.05661 
L 583.393939 485.650897 
L 584.665029 503.808432 
L 585.936118 518.458487 
L 587.842752 536.435953 
L 588.478296 539.392736 
L 589.113841 540.300464 
L 589.749386 539.052332 
L 591.020475 533.967033 
L 591.65602 532.438259 
L 592.927109 531.676498 
L 594.198198 529.57715 
L 594.833743 529.218469 
L 595.469287 529.925257 
L 596.104832 531.937023 
L 597.375921 537.585775 
L 598.011466 539.569354 
L 598.647011 540.402438 
L 599.282555 540.034639 
L 599.9181 538.284602 
L 600.553645 534.912709 
L 603.095823 518.325118 
L 604.366912 512.399671 
L 605.002457 510.735706 
L 605.638002 510.353481 
L 606.273546 510.9805 
L 607.544636 513.104689 
L 608.18018 513.804257 
L 611.993448 516.11005 
L 612.628993 516.363089 
L 613.900082 516.557997 
L 614.535627 517.260162 
L 615.171171 518.939904 
L 617.077805 526.733131 
L 617.71335 528.041119 
L 618.348894 528.457613 
L 618.984439 528.297571 
L 619.619984 527.756998 
L 620.255528 526.894992 
L 620.891073 525.718984 
L 621.526618 524.166661 
L 622.797707 520.139264 
L 623.433251 517.884359 
L 624.068796 515.065737 
L 625.339885 507.245369 
L 625.97543 503.095342 
L 626.610975 499.786426 
L 627.246519 498.188036 
L 627.882064 498.831951 
L 628.517609 501.508208 
L 629.788698 508.857486 
L 630.424242 510.634139 
L 631.059787 511.92592 
L 631.695332 513.683902 
L 633.601966 520.335596 
L 634.23751 521.854363 
L 634.873055 522.899534 
L 635.5086 523.608708 
L 636.779689 524.694664 
L 637.415233 525.593034 
L 638.050778 526.836904 
L 638.686323 528.493758 
L 639.321867 530.800509 
L 641.228501 540.313016 
L 641.864046 542.431135 
L 642.49959 543.362144 
L 643.135135 543.235433 
L 643.77068 542.27232 
L 644.406224 540.36139 
L 645.677314 534.273549 
L 648.219492 521.571802 
L 648.855037 519.040887 
L 649.490581 517.10838 
L 650.126126 515.924108 
L 650.761671 515.587469 
L 652.03276 515.775385 
L 652.668305 515.413685 
L 653.303849 514.544195 
L 653.939394 513.250477 
L 655.846028 508.105754 
L 656.481572 507.034023 
L 657.117117 506.70396 
L 657.752662 507.031806 
L 658.388206 507.548264 
L 659.659296 508.053759 
L 660.29484 508.881091 
L 660.930385 510.810338 
L 662.837019 519.289142 
L 663.472563 520.69373 
L 664.108108 521.057664 
L 664.743653 520.395002 
L 666.650287 516.739199 
L 667.285831 516.159649 
L 667.921376 515.956712 
L 668.556921 515.94363 
L 669.192465 515.779585 
L 669.82801 515.154061 
L 671.734644 512.073018 
L 672.370188 511.372205 
L 673.005733 511.069508 
L 673.641278 511.036739 
L 675.547912 511.39804 
L 676.183456 512.038232 
L 677.454545 514.701045 
L 677.454545 514.701045 
" clip-path="url(#pbe662d20a5)" style="fill: none; stroke: #000000; stroke-width: 0.5; stroke-linecap: square"/>
   </g>
   <g id="patch_18">
    <path d="M 10.8 567.36 
L 10.8 436.32 
" style="fill: none; stroke: #000000; stroke-width: 0.8; stroke-linejoin: miter; stroke-linecap: square"/>
   </g>
   <g id="patch_19">
    <path d="M 709.2 567.36 
L 709.2 436.32 
" style="fill: none; stroke: #000000; stroke-width: 0.8; stroke-linejoin: miter; stroke-linecap: square"/>
   </g>
   <g id="patch_20">
    <path d="M 10.8 567.36 
L 709.2 567.36 
" style="fill: none; stroke: #000000; stroke-width: 0.8; stroke-linejoin: miter; stroke-linecap: square"/>
   </g>
   <g id="patch_21">
    <path d="M 10.8 436.32 
L 709.2 436.32 
" style="fill: none; stroke: #000000; stroke-width: 0.8; stroke-linejoin: miter; stroke-linecap: square"/>
   </g>
  </g>
  <g id="axes_5">
   <g id="patch_22">
    <path d="M 10.8 709.2 
L 709.2 709.2 
L 709.2 578.16 
L 10.8 578.16 
L 10.8 709.2 
z
" style="fill: none"/>
   </g>
   <g id="matplotlib.axis_9"/>
   <g id="matplotlib.axis_10"/>
   <g id="line2d_5">
    <path d="M 42.545455 623.068362 
L 43.180999 623.145318 
L 43.816544 624.918699 
L 44.452088 627.763002 
L 45.723178 635.49121 
L 46.994267 643.903126 
L 48.900901 659.319509 
L 49.536446 662.269701 
L 50.17199 664.259843 
L 50.807535 665.730126 
L 51.443079 666.814532 
L 52.078624 667.353332 
L 52.714169 666.825578 
L 53.349713 664.624756 
L 53.985258 660.206117 
L 55.891892 639.698385 
L 56.527437 635.829232 
L 57.162981 635.163955 
L 57.798526 637.260059 
L 59.069615 644.385855 
L 59.70516 646.602955 
L 60.340704 647.127648 
L 60.976249 646.25385 
L 62.247338 643.4046 
L 62.882883 643.635609 
L 63.518428 646.320403 
L 64.153972 651.09642 
L 65.425061 661.974722 
L 66.060606 665.304757 
L 66.696151 666.033587 
L 67.331695 665.091252 
L 67.96724 663.597362 
L 68.602785 662.992763 
L 69.238329 664.720517 
L 69.873874 666.992116 
L 70.509419 667.912318 
L 71.144963 666.509839 
L 71.780508 663.348113 
L 73.051597 656.164828 
L 74.958231 647.829437 
L 75.593776 644.005137 
L 76.864865 633.197574 
L 78.135954 622.556362 
L 80.042588 607.651996 
L 80.678133 606.471468 
L 81.313677 611.115367 
L 81.949222 621.909499 
L 82.584767 635.259847 
L 83.220311 645.873997 
L 83.855856 651.704479 
L 84.4914 653.011399 
L 85.76249 651.257507 
L 86.398034 649.845127 
L 87.033579 645.844586 
L 87.669124 639.436851 
L 88.304668 634.169748 
L 88.940213 633.95064 
L 89.575758 641.247807 
L 90.211302 653.468598 
L 91.482391 682.254405 
L 92.117936 694.075305 
L 92.753481 701.333599 
L 93.389025 703.243636 
L 94.02457 699.316875 
L 94.660115 689.348387 
L 95.931204 658.292224 
L 96.566749 641.833115 
L 97.202293 628.648915 
L 97.837838 621.689455 
L 98.473382 622.179081 
L 99.108927 625.66538 
L 99.744472 631.176515 
L 101.015561 646.989219 
L 101.651106 647.458741 
L 102.922195 634.374306 
L 103.55774 630.6585 
L 104.193284 630.530975 
L 104.828829 632.848127 
L 106.735463 642.23479 
L 107.371007 644.874474 
L 108.006552 647.00145 
L 108.642097 648.385224 
L 109.277641 648.401348 
L 109.913186 646.707992 
L 111.184275 641.268543 
L 111.81982 639.79087 
L 113.090909 638.897571 
L 113.726454 637.116907 
L 114.361998 633.356312 
L 114.997543 628.806352 
L 115.633088 625.768778 
L 116.268632 625.143303 
L 116.904177 625.724008 
L 117.539722 625.666528 
L 118.175266 623.793505 
L 120.0819 612.020082 
L 120.717445 611.495543 
L 121.352989 613.667972 
L 121.988534 618.079879 
L 123.259623 629.079926 
L 123.895168 632.969394 
L 124.530713 634.589696 
L 125.166257 634.516282 
L 126.437346 633.318314 
L 127.072891 632.507191 
L 127.708436 631.127989 
L 128.34398 629.013465 
L 129.61507 622.984835 
L 130.886159 617.115443 
L 132.792793 610.11884 
L 134.063882 603.788823 
L 134.699427 601.761586 
L 135.334971 601.030533 
L 135.970516 601.603709 
L 136.606061 603.591038 
L 138.512695 612.840351 
L 139.148239 616.352777 
L 140.419328 624.895712 
L 141.054873 627.576651 
L 141.690418 627.955245 
L 142.325962 626.363673 
L 142.961507 624.361729 
L 143.597052 623.482527 
L 144.232596 624.640666 
L 144.868141 627.901818 
L 148.045864 648.69145 
L 148.681409 648.623354 
L 149.316953 645.862141 
L 150.588043 638.146323 
L 151.223587 635.301937 
L 151.859132 634.0336 
L 153.130221 633.729298 
L 153.765766 632.843438 
L 154.40131 631.177417 
L 155.036855 628.796503 
L 156.307944 623.493851 
L 156.943489 622.538422 
L 157.579034 624.091591 
L 158.214578 628.299639 
L 158.850123 633.597616 
L 159.485667 637.430182 
L 160.121212 638.367531 
L 160.756757 636.484711 
L 161.392301 632.804354 
L 162.663391 624.163129 
L 163.298935 621.549172 
L 163.93448 621.515646 
L 164.570025 623.925799 
L 167.112203 639.828971 
L 167.747748 642.684463 
L 168.383292 644.78816 
L 169.018837 646.175935 
L 169.654382 646.417069 
L 170.289926 644.551571 
L 170.925471 640.119571 
L 172.19656 627.530077 
L 172.832105 623.205356 
L 173.467649 622.8947 
L 174.103194 626.966555 
L 174.738739 634.604296 
L 176.009828 656.044378 
L 177.280917 677.836317 
L 177.916462 681.986262 
L 178.552007 682.198177 
L 179.187551 680.605586 
L 180.45864 675.714449 
L 181.72973 669.10054 
L 183.000819 660.617287 
L 184.907453 646.717561 
L 186.814087 633.906107 
L 187.449631 631.339317 
L 188.085176 631.627781 
L 188.720721 635.535187 
L 189.356265 642.499369 
L 190.627355 658.602364 
L 191.262899 660.873589 
L 191.898444 659.601127 
L 192.533989 657.866413 
L 193.169533 658.750882 
L 193.805078 662.928726 
L 194.440622 663.655597 
L 195.076167 660.566603 
L 196.347256 649.704573 
L 197.618346 638.103638 
L 198.25389 633.688533 
L 198.889435 631.767142 
L 199.52498 631.116994 
L 200.160524 630.91904 
L 200.796069 630.545141 
L 201.431613 629.616403 
L 202.067158 627.941124 
L 203.338247 623.353866 
L 203.973792 622.189885 
L 204.609337 624.049184 
L 205.244881 630.459443 
L 207.151515 661.858358 
L 207.78706 665.522098 
L 208.422604 664.903041 
L 209.693694 658.612718 
L 210.329238 657.227328 
L 210.964783 657.307776 
L 212.235872 659.190036 
L 212.871417 659.567236 
L 213.506962 658.553257 
L 214.778051 653.600776 
L 215.413595 652.145039 
L 216.04914 651.53367 
L 216.684685 650.206906 
L 217.320229 646.988429 
L 218.591319 638.841838 
L 219.226863 637.057607 
L 219.862408 637.563131 
L 220.497952 640.124886 
L 222.404586 651.450905 
L 223.040131 653.075953 
L 223.675676 653.458234 
L 224.31122 652.756758 
L 224.946765 651.103814 
L 226.217854 645.871702 
L 227.488943 639.557583 
L 228.124488 635.244662 
L 228.760033 629.549794 
L 230.031122 614.155873 
L 231.302211 597.83168 
L 231.937756 591.587886 
L 232.573301 587.26255 
L 233.208845 584.814648 
L 233.84439 584.116364 
L 234.479934 585.457285 
L 235.115479 589.429175 
L 235.751024 596.244262 
L 237.657658 624.569135 
L 238.293202 628.782576 
L 238.928747 629.034485 
L 239.564292 626.589974 
L 241.470925 614.956697 
L 242.10647 613.325426 
L 242.742015 619.235011 
L 244.013104 646.269835 
L 244.648649 653.085376 
L 245.284193 651.865838 
L 245.919738 644.783717 
L 247.826372 616.826927 
L 248.461916 610.627153 
L 249.097461 607.191756 
L 249.733006 606.146244 
L 250.36855 606.368652 
L 251.004095 607.443951 
L 251.63964 610.403709 
L 252.275184 616.723392 
L 252.910729 626.588997 
L 254.181818 649.063276 
L 254.817363 657.21643 
L 255.452907 662.147295 
L 256.088452 664.528585 
L 256.723997 665.354901 
L 257.359541 665.145223 
L 257.995086 663.868145 
L 258.630631 660.565342 
L 259.266175 654.621459 
L 260.537265 639.162102 
L 261.172809 632.885628 
L 261.808354 628.208894 
L 262.443898 625.016137 
L 263.079443 623.552122 
L 263.714988 623.93234 
L 264.350532 626.225434 
L 265.621622 633.096947 
L 266.257166 635.709404 
L 266.892711 637.170357 
L 267.528256 637.446667 
L 268.1638 637.418094 
L 268.799345 637.963601 
L 269.434889 639.793057 
L 270.070434 643.311519 
L 271.341523 652.366151 
L 271.977068 655.880584 
L 272.612613 658.15755 
L 273.248157 659.103947 
L 273.883702 658.685804 
L 274.519247 657.307133 
L 276.42588 650.262934 
L 277.69697 647.163964 
L 278.332514 644.008025 
L 278.968059 638.217952 
L 279.603604 629.66002 
L 280.239148 619.573741 
L 280.874693 611.775414 
L 281.510238 611.397827 
L 282.781327 618.693303 
L 283.416871 621.163993 
L 284.052416 622.466371 
L 284.687961 623.457368 
L 285.323505 625.167814 
L 285.95905 628.327448 
L 286.594595 632.270011 
L 287.230139 634.961619 
L 288.501229 635.386012 
L 289.136773 639.046051 
L 291.678952 660.915837 
L 292.950041 669.597568 
L 293.585586 673.275124 
L 294.22113 675.535835 
L 294.856675 674.793481 
L 295.492219 669.998546 
L 298.034398 637.652866 
L 298.669943 631.793576 
L 299.305487 627.36151 
L 299.941032 625.183853 
L 300.576577 626.237725 
L 301.847666 634.304514 
L 302.48321 637.059732 
L 303.118755 638.045659 
L 303.7543 638.196007 
L 304.389844 638.526078 
L 305.025389 639.717812 
L 306.296478 644.602953 
L 307.567568 647.673068 
L 308.203112 648.155461 
L 309.474201 646.430609 
L 310.109746 645.155888 
L 310.745291 644.252194 
L 311.380835 642.982526 
L 312.01638 638.635852 
L 313.923014 616.444041 
L 314.558559 613.626217 
L 315.194103 613.797206 
L 315.829648 615.001129 
L 316.465192 615.68316 
L 317.100737 615.661429 
L 317.736282 615.885345 
L 318.371826 616.961066 
L 319.007371 618.567034 
L 319.642916 620.55381 
L 320.27846 623.333984 
L 321.54955 629.630334 
L 322.185094 630.460848 
L 322.820639 628.368091 
L 323.456183 623.222696 
L 324.727273 610.289081 
L 325.362817 607.738543 
L 325.998362 609.921127 
L 326.633907 616.164824 
L 329.176085 650.351526 
L 329.81163 656.310043 
L 330.447174 661.197801 
L 331.082719 664.67562 
L 331.718264 665.407658 
L 332.353808 661.855565 
L 332.989353 656.862437 
L 333.624898 653.096179 
L 334.260442 651.250189 
L 334.895987 650.177554 
L 335.531532 648.192595 
L 336.167076 645.290198 
L 336.802621 642.995685 
L 337.438165 642.870416 
L 338.07371 644.826489 
L 338.709255 647.23323 
L 339.344799 648.275991 
L 339.980344 647.599318 
L 340.615889 646.313592 
L 341.886978 644.187224 
L 342.522523 642.321904 
L 343.158067 639.960848 
L 343.793612 638.725014 
L 344.429156 640.139595 
L 345.064701 644.399091 
L 346.33579 654.643808 
L 346.971335 657.465418 
L 347.60688 658.095752 
L 348.242424 657.031646 
L 348.877969 654.801597 
L 350.149058 649.628654 
L 350.784603 647.73093 
L 351.420147 645.264525 
L 352.055692 641.002758 
L 353.326781 629.056676 
L 353.962326 624.430048 
L 355.233415 617.412922 
L 355.86896 612.898939 
L 357.775594 596.594542 
L 358.411138 592.953025 
L 359.046683 591.306745 
L 359.682228 591.397291 
L 360.317772 592.64681 
L 360.953317 594.638786 
L 361.588862 597.273539 
L 364.13104 610.001313 
L 364.766585 612.600008 
L 365.402129 615.739202 
L 366.037674 619.784597 
L 369.215397 642.86905 
L 370.486486 649.094827 
L 371.122031 649.980909 
L 371.757576 649.398757 
L 372.39312 649.7756 
L 373.028665 651.96564 
L 374.299754 659.340203 
L 375.570844 666.841882 
L 376.841933 673.412452 
L 377.477477 676.366181 
L 378.113022 678.661726 
L 378.748567 679.547894 
L 379.384111 678.77147 
L 380.019656 676.393312 
L 380.655201 672.836781 
L 381.92629 664.102711 
L 382.561835 658.555146 
L 383.197379 651.619204 
L 385.739558 618.721821 
L 386.375102 614.325855 
L 387.010647 614.232088 
L 388.281736 618.27003 
L 388.917281 620.653033 
L 389.552826 624.782602 
L 390.18837 631.806562 
L 392.095004 658.267783 
L 392.730549 666.431104 
L 393.366093 672.54692 
L 394.001638 675.912996 
L 394.637183 677.128253 
L 395.272727 676.633002 
L 395.908272 673.231377 
L 396.543817 665.688534 
L 398.45045 632.647684 
L 399.085995 626.808718 
L 399.72154 624.492853 
L 400.357084 624.0996 
L 400.992629 623.899376 
L 401.628174 621.877521 
L 402.263718 618.673017 
L 402.899263 616.590409 
L 403.534808 618.784302 
L 404.170352 621.689773 
L 404.805897 621.982388 
L 406.076986 617.809316 
L 406.712531 618.92341 
L 407.348075 623.109617 
L 408.619165 633.90015 
L 409.254709 637.433949 
L 409.890254 640.147985 
L 410.525799 643.422246 
L 411.796888 652.303891 
L 412.432432 655.429477 
L 413.067977 656.554492 
L 413.703522 655.945819 
L 414.974611 652.709893 
L 415.610156 650.473781 
L 418.152334 638.865999 
L 418.787879 634.672679 
L 420.058968 623.462249 
L 420.694513 620.47896 
L 421.330057 621.967203 
L 421.965602 628.012959 
L 423.236691 647.852985 
L 423.872236 657.749681 
L 424.507781 665.664492 
L 425.143325 670.7421 
L 425.77887 672.814867 
L 426.414414 672.140168 
L 428.321048 665.059112 
L 428.956593 663.934241 
L 429.592138 662.560549 
L 430.227682 659.62873 
L 431.498771 650.278683 
L 432.769861 641.345964 
L 433.405405 638.477172 
L 434.04095 636.801036 
L 434.676495 635.8969 
L 435.312039 635.421374 
L 435.947584 635.892359 
L 436.583129 638.79261 
L 437.218673 644.855922 
L 438.489762 659.880394 
L 439.125307 664.889082 
L 439.760852 667.953806 
L 440.396396 669.994392 
L 441.031941 671.33291 
L 441.667486 671.305878 
L 442.30303 669.281227 
L 443.57412 661.606304 
L 445.480753 650.746613 
L 446.116298 647.555193 
L 446.751843 645.158038 
L 447.387387 643.951735 
L 448.022932 643.867954 
L 448.658477 645.045466 
L 449.294021 647.788693 
L 449.929566 651.086634 
L 450.565111 653.145666 
L 451.200655 653.374872 
L 452.471744 651.446247 
L 453.107289 651.749253 
L 453.742834 654.307135 
L 455.013923 662.821308 
L 455.649468 665.792874 
L 456.285012 666.836466 
L 456.920557 665.570262 
L 457.556102 661.625916 
L 459.462735 643.545457 
L 460.09828 639.019578 
L 460.733825 635.341047 
L 461.369369 633.379141 
L 462.004914 632.757656 
L 462.640459 633.27716 
L 464.547093 637.775146 
L 465.182637 638.894116 
L 465.818182 641.148039 
L 466.453726 645.222459 
L 467.724816 657.616099 
L 468.36036 664.159784 
L 468.995905 669.380641 
L 469.63145 672.532162 
L 470.266994 673.584582 
L 470.902539 672.678145 
L 471.538084 669.778289 
L 472.173628 665.047866 
L 473.444717 654.038212 
L 474.080262 650.419273 
L 475.351351 645.866964 
L 477.257985 637.030449 
L 479.164619 627.307046 
L 479.800164 625.650472 
L 480.435708 626.085777 
L 481.071253 629.218986 
L 482.342342 641.177243 
L 482.977887 646.983362 
L 483.613432 651.371933 
L 484.248976 654.229589 
L 484.884521 655.824775 
L 485.520066 655.808651 
L 486.15561 653.782384 
L 488.062244 642.510132 
L 488.697789 640.745924 
L 489.333333 639.977144 
L 489.968878 639.724129 
L 490.604423 639.749383 
L 491.239967 640.464134 
L 491.875512 642.334998 
L 493.146601 647.315536 
L 493.782146 649.287016 
L 494.41769 650.786899 
L 495.68878 653.094678 
L 496.324324 654.636376 
L 496.959869 657.126174 
L 498.866503 667.587021 
L 499.502048 669.894103 
L 500.137592 670.900638 
L 500.773137 670.39017 
L 501.408681 668.250117 
L 502.044226 664.673769 
L 503.315315 656.389425 
L 503.95086 652.945324 
L 504.586405 650.616834 
L 505.221949 649.988385 
L 505.857494 651.086449 
L 506.493038 653.689287 
L 507.764128 659.812258 
L 508.399672 660.91183 
L 509.035217 659.771363 
L 509.670762 656.145568 
L 510.941851 643.878437 
L 511.577396 637.766378 
L 512.21294 633.493932 
L 512.848485 631.712373 
L 513.484029 632.153609 
L 514.755119 635.698518 
L 515.390663 637.816994 
L 516.026208 640.838655 
L 516.661753 645.172902 
L 518.568387 660.426044 
L 519.203931 664.511505 
L 519.839476 667.587949 
L 522.381654 676.729953 
L 523.017199 678.272035 
L 523.652744 678.316709 
L 524.288288 676.560103 
L 524.923833 672.902067 
L 525.559378 667.541232 
L 526.830467 653.268498 
L 527.466011 646.034083 
L 528.101556 640.224776 
L 528.737101 636.785861 
L 529.372645 635.978449 
L 530.00819 637.481005 
L 530.643735 640.619552 
L 531.279279 645.424864 
L 533.821458 670.070856 
L 535.092547 678.601491 
L 535.728092 682.265146 
L 536.363636 685.138767 
L 536.999181 686.833592 
L 537.634726 686.710456 
L 538.27027 683.816028 
L 538.905815 677.599435 
L 539.54136 668.402784 
L 540.812449 646.220274 
L 541.447993 637.065355 
L 542.083538 630.29035 
L 542.719083 625.519452 
L 543.354627 622.778022 
L 543.990172 622.461686 
L 544.625717 624.534648 
L 545.261261 628.705012 
L 546.532351 641.605515 
L 547.167895 647.877689 
L 549.074529 662.563257 
L 549.710074 667.388015 
L 550.345618 670.907949 
L 550.981163 672.56834 
L 551.616708 672.749515 
L 552.252252 672.152306 
L 552.887797 670.991175 
L 553.523342 669.002862 
L 554.158886 665.776142 
L 554.794431 661.235885 
L 556.06552 648.740984 
L 557.336609 636.420099 
L 558.607699 627.859813 
L 559.243243 624.62869 
L 559.878788 622.631293 
L 560.514333 622.737165 
L 561.149877 625.286669 
L 561.785422 629.881078 
L 563.056511 640.605601 
L 563.692056 643.988077 
L 564.3276 644.85658 
L 564.963145 643.016226 
L 566.234234 634.778046 
L 566.869779 631.830169 
L 567.505324 630.601276 
L 568.140868 631.481048 
L 568.776413 634.529128 
L 569.411957 639.23924 
L 570.683047 651.595381 
L 571.318591 657.97037 
L 571.954136 663.223939 
L 572.589681 666.560798 
L 573.225225 667.666178 
L 573.86077 666.739194 
L 574.496314 664.215383 
L 575.131859 660.407801 
L 575.767404 655.561022 
L 577.674038 638.470007 
L 578.309582 634.065681 
L 578.945127 630.769355 
L 579.580672 628.765019 
L 580.216216 628.561502 
L 580.851761 631.017292 
L 581.487305 637.079133 
L 582.758395 656.403618 
L 583.393939 661.982443 
L 584.029484 663.636563 
L 584.665029 660.108665 
L 585.300573 651.459869 
L 587.207207 616.11951 
L 587.842752 608.156762 
L 589.113841 600.30349 
L 589.749386 598.850304 
L 590.38493 598.870761 
L 591.020475 598.609457 
L 591.65602 596.679001 
L 592.291564 593.951809 
L 592.927109 594.819303 
L 594.833743 616.317215 
L 595.469287 619.478215 
L 596.740377 623.431935 
L 598.011466 627.083281 
L 598.647011 629.682527 
L 599.282555 632.799694 
L 601.189189 644.417936 
L 601.824734 645.785005 
L 602.460278 645.135999 
L 603.095823 643.320429 
L 604.366912 638.996314 
L 605.002457 637.088239 
L 605.638002 634.643264 
L 606.909091 627.640427 
L 607.544636 624.063141 
L 608.18018 621.138516 
L 608.815725 619.772482 
L 609.451269 621.094198 
L 610.086814 625.734691 
L 611.357903 641.265822 
L 611.993448 648.785959 
L 612.628993 654.223966 
L 613.264537 657.210149 
L 613.900082 658.381738 
L 614.535627 658.954292 
L 615.171171 659.70121 
L 615.806716 660.120521 
L 616.44226 658.757691 
L 617.077805 654.616284 
L 619.619984 629.818433 
L 620.255528 625.390849 
L 620.891073 622.213193 
L 621.526618 620.276407 
L 622.162162 619.442702 
L 622.797707 619.554508 
L 623.433251 619.976545 
L 624.068796 619.547929 
L 624.704341 618.050896 
L 625.339885 617.213576 
L 625.97543 619.255746 
L 626.610975 625.60227 
L 628.517609 656.438039 
L 629.153153 662.260722 
L 629.788698 664.598258 
L 630.424242 664.253947 
L 631.059787 662.431339 
L 631.695332 659.822758 
L 632.330876 656.229794 
L 634.23751 640.890127 
L 634.873055 637.735015 
L 635.5086 636.363614 
L 636.144144 635.939469 
L 636.779689 635.851968 
L 638.686323 636.523998 
L 639.321867 636.772364 
L 639.957412 637.458466 
L 642.49959 641.55267 
L 643.77068 643.82239 
L 644.406224 644.92816 
L 645.041769 646.603092 
L 645.677314 649.412993 
L 646.948403 656.960956 
L 647.583948 659.586387 
L 648.219492 660.603214 
L 648.855037 659.837816 
L 649.490581 657.177563 
L 650.761671 648.930801 
L 652.03276 640.017424 
L 652.668305 636.379952 
L 653.303849 634.322041 
L 653.939394 634.25175 
L 654.574939 635.916284 
L 655.210483 638.897025 
L 655.846028 643.102487 
L 657.752662 659.54846 
L 658.388206 662.924034 
L 659.023751 663.471642 
L 660.29484 660.677977 
L 660.930385 659.965755 
L 661.56593 659.676695 
L 662.201474 658.516331 
L 662.837019 656.253226 
L 663.472563 653.39285 
L 664.108108 649.957656 
L 665.379197 640.459705 
L 666.650287 630.376313 
L 667.285831 626.206715 
L 667.921376 623.223763 
L 668.556921 621.80197 
L 669.192465 621.941593 
L 669.82801 623.498717 
L 670.463554 626.747587 
L 671.099099 632.220854 
L 673.005733 653.627516 
L 673.641278 658.147004 
L 674.276822 660.08957 
L 674.912367 659.029718 
L 675.547912 655.687369 
L 676.819001 647.785429 
L 677.454545 644.664089 
L 677.454545 644.664089 
" clip-path="url(#pa293bb53f5)" style="fill: none; stroke: #000000; stroke-width: 0.5; stroke-linecap: square"/>
   </g>
   <g id="patch_23">
    <path d="M 10.8 709.2 
L 10.8 578.16 
" style="fill: none; stroke: #000000; stroke-width: 0.8; stroke-linejoin: miter; stroke-linecap: square"/>
   </g>
   <g id="patch_24">
    <path d="M 709.2 709.2 
L 709.2 578.16 
" style="fill: none; stroke: #000000; stroke-width: 0.8; stroke-linejoin: miter; stroke-linecap: square"/>
   </g>
   <g id="patch_25">
    <path d="M 10.8 709.2 
L 709.2 709.2 
" style="fill: none; stroke: #000000; stroke-width: 0.8; stroke-linejoin: miter; stroke-linecap: square"/>
   </g>
   <g id="patch_26">
    <path d="M 10.8 578.16 
L 709.2 578.16 
" style="fill: none; stroke: #000000; stroke-width: 0.8; stroke-linejoin: miter; stroke-linecap: square"/>
   </g>
  </g>
 </g>
 <defs>
  <clipPath id="p6544b7a0d6">
   <rect x="10.8" y="10.8" width="698.4" height="131.04"/>
  </clipPath>
  <clipPath id="p02f5a563ce">
   <rect x="10.8" y="152.64" width="698.4" height="131.04"/>
  </clipPath>
  <clipPath id="paaa4929f1c">
   <rect x="10.8" y="294.48" width="698.4" height="131.04"/>
  </clipPath>
  <clipPath id="pbe662d20a5">
   <rect x="10.8" y="436.32" width="698.4" height="131.04"/>
  </clipPath>
  <clipPath id="pa293bb53f5">
   <rect x="10.8" y="578.16" width="698.4" height="131.04"/>
  </clipPath>
 </defs>
</svg>
