<?xml version="1.0" encoding="utf-8" standalone="no"?>
<!DOCTYPE svg PUBLIC "-//W3C//DTD SVG 1.1//EN"
  "http://www.w3.org/Graphics/SVG/1.1/DTD/svg11.dtd">
<svg xmlns:xlink="http://www.w3.org/1999/xlink" width="460.8pt" height="345.6pt" viewBox="0 0 460.8 345.6" xmlns="http://www.w3.org/2000/svg" version="1.1">
 <metadata>
  <rdf:RDF xmlns:dc="http://purl.org/dc/elements/1.1/" xmlns:cc="http://creativecommons.org/ns#" xmlns:rdf="http://www.w3.org/1999/02/22-rdf-syntax-ns#">
   <cc:Work>
    <dc:type rdf:resource="http://purl.org/dc/dcmitype/StillImage"/>
    <dc:date>2026-05-05T22:46:54.483347</dc:date>
    <dc:format>image/svg+xml</dc:format>
    <dc:creator>
     <cc:Agent>
      <dc:title>Matplotlib v3.10.7, https://matplotlib.org/</dc:title>
     </cc:Agent>
    </dc:creator>
   </cc:Work>
  </rdf:RDF>
 </metadata>
 <defs>
  <style type="text/css">*{stroke-linejoin: round; stroke-linecap: butt}</style>
 </defs>
 <g id="figure_1">
  <g id="patch_1">
   <path d="M 0 345.6 
L 460.8 345.6 
L 460.8 0 
L 0 0 
L 0 345.6 
z
" style="fill: none"/>
  </g>
  <g id="axes_1">
   <g id="patch_2">
    <path d="M 57.6 307.584 
L 414.72 307.584 
L 414.72 41.472 
L 57.6 41.472 
L 57.6 307.584 
z
" style="fill: none"/>
   </g>
   <g id="line2d_1">
    <path d="M 73.832727 53.568 
L 90.919809 62.385847 
L 108.00689 69.514069 
L 125.093971 73.66809 
L 142.181053 81.395574 
L 159.268134 93.329607 
L 176.355215 107.460756 
L 193.442297 123.901521 
L 210.529378 141.722128 
L 227.616459 166.180058 
L 244.703541 184.237415 
L 261.790622 195.758524 
L 278.877703 209.944314 
L 295.964785 237.527122 
L 313.051866 265.368084 
L 330.138947 295.009122 
L 347.226029 295.156425 
L 364.31311 295.183247 
L 381.400191 295.233194 
L 398.487273 295.300788 
" clip-path="url(#p63f2a9d031)" style="fill: none; stroke: #d3d3d3; stroke-opacity: 0.6; stroke-width: 0.8; stroke-linecap: square"/>
   </g>
   <g id="line2d_2">
    <path d="M 73.832727 60.701697 
L 90.919809 66.276429 
L 108.00689 70.784952 
L 125.093971 74.178162 
L 142.181053 80.043005 
L 159.268134 87.665378 
L 176.355215 96.959859 
L 193.442297 106.30356 
L 210.529378 120.261948 
L 227.616459 137.720865 
L 244.703541 161.351456 
L 261.790622 171.021581 
L 278.877703 178.876868 
L 295.964785 222.711489 
L 313.051866 251.865803 
L 330.138947 289.525419 
L 347.226029 289.726238 
L 364.31311 289.865014 
L 381.400191 289.949591 
L 398.487273 289.992308 
" clip-path="url(#p63f2a9d031)" style="fill: none; stroke: #d3d3d3; stroke-opacity: 0.6; stroke-width: 0.8; stroke-linecap: square"/>
   </g>
   <g id="line2d_3">
    <path d="M 73.832727 58.077174 
L 90.919809 65.927804 
L 108.00689 70.785215 
L 125.093971 73.987346 
L 142.181053 81.091042 
L 159.268134 90.51094 
L 176.355215 102.468042 
L 193.442297 117.424797 
L 210.529378 136.907936 
L 227.616459 162.738033 
L 244.703541 176.761085 
L 261.790622 188.041118 
L 278.877703 207.598646 
L 295.964785 232.077657 
L 313.051866 263.38805 
L 330.138947 292.407783 
L 347.226029 292.586877 
L 364.31311 292.745762 
L 381.400191 292.771496 
L 398.487273 292.804146 
" clip-path="url(#p63f2a9d031)" style="fill: none; stroke: #d3d3d3; stroke-opacity: 0.6; stroke-width: 0.8; stroke-linecap: square"/>
   </g>
   <g id="line2d_4">
    <path d="M 73.832727 61.111269 
L 90.919809 67.47655 
L 108.00689 71.157842 
L 125.093971 74.630947 
L 142.181053 81.383005 
L 159.268134 89.552767 
L 176.355215 98.557472 
L 193.442297 112.208664 
L 210.529378 139.550907 
L 227.616459 156.176057 
L 244.703541 167.654569 
L 261.790622 176.579529 
L 278.877703 188.543427 
L 295.964785 245.672634 
L 313.051866 262.210553 
L 330.138947 291.202724 
L 347.226029 291.438448 
L 364.31311 291.53976 
L 381.400191 291.597822 
L 398.487273 291.734117 
" clip-path="url(#p63f2a9d031)" style="fill: none; stroke: #d3d3d3; stroke-opacity: 0.6; stroke-width: 0.8; stroke-linecap: square"/>
   </g>
   <g id="line2d_5">
    <path d="M 73.832727 60.878754 
L 90.919809 67.195624 
L 108.00689 71.017331 
L 125.093971 74.484835 
L 142.181053 81.308148 
L 159.268134 89.899187 
L 176.355215 100.683117 
L 193.442297 112.41959 
L 210.529378 132.263914 
L 227.616459 151.542085 
L 244.703541 163.234207 
L 261.790622 172.741925 
L 278.877703 184.593458 
L 295.964785 240.443649 
L 313.051866 261.666659 
L 330.138947 291.071452 
L 347.226029 291.46906 
L 364.31311 291.622384 
L 381.400191 291.720555 
L 398.487273 291.821902 
" clip-path="url(#p63f2a9d031)" style="fill: none; stroke: #d3d3d3; stroke-opacity: 0.6; stroke-width: 0.8; stroke-linecap: square"/>
   </g>
   <g id="line2d_6">
    <path d="M 73.832727 56.560732 
L 90.919809 65.821048 
L 108.00689 71.21647 
L 125.093971 75.566573 
L 142.181053 84.908848 
L 159.268134 96.240493 
L 176.355215 110.452385 
L 193.442297 126.710714 
L 210.529378 144.896461 
L 227.616459 184.357216 
L 244.703541 203.092988 
L 261.790622 217.124404 
L 278.877703 230.033465 
L 295.964785 252.69126 
L 313.051866 277.185806 
L 330.138947 293.98836 
L 347.226029 294.537686 
L 364.31311 294.712055 
L 381.400191 294.821118 
L 398.487273 294.991904 
" clip-path="url(#p63f2a9d031)" style="fill: none; stroke: #d3d3d3; stroke-opacity: 0.6; stroke-width: 0.8; stroke-linecap: square"/>
   </g>
   <g id="line2d_7">
    <path d="M 73.832727 61.699224 
L 90.919809 67.865646 
L 108.00689 71.366035 
L 125.093971 75.026985 
L 142.181053 83.193314 
L 159.268134 91.154923 
L 176.355215 104.156299 
L 193.442297 113.348569 
L 210.529378 127.568696 
L 227.616459 149.771054 
L 244.703541 173.86435 
L 261.790622 186.16068 
L 278.877703 197.457888 
L 295.964785 251.520275 
L 313.051866 270.363963 
L 330.138947 291.264105 
L 347.226029 291.534309 
L 364.31311 291.712653 
L 381.400191 291.819793 
L 398.487273 291.894564 
" clip-path="url(#p63f2a9d031)" style="fill: none; stroke: #d3d3d3; stroke-opacity: 0.6; stroke-width: 0.8; stroke-linecap: square"/>
   </g>
   <g id="line2d_8">
    <path d="M 73.832727 66.178681 
L 90.919809 69.933034 
L 108.00689 71.712084 
L 125.093971 75.505277 
L 142.181053 79.407839 
L 159.268134 85.171195 
L 176.355215 92.61651 
L 193.442297 101.610973 
L 210.529378 112.768488 
L 227.616459 135.070575 
L 244.703541 145.535788 
L 261.790622 149.047893 
L 278.877703 155.448616 
L 295.964785 228.032979 
L 313.051866 255.384067 
L 330.138947 288.892928 
L 347.226029 289.013201 
L 364.31311 289.116249 
L 381.400191 289.23958 
L 398.487273 289.276846 
" clip-path="url(#p63f2a9d031)" style="fill: none; stroke: #d3d3d3; stroke-opacity: 0.6; stroke-width: 0.8; stroke-linecap: square"/>
   </g>
   <g id="line2d_9">
    <path d="M 73.832727 55.22055 
L 90.919809 64.134565 
L 108.00689 70.393366 
L 125.093971 75.224735 
L 142.181053 82.888293 
L 159.268134 93.614646 
L 176.355215 106.015668 
L 193.442297 121.346079 
L 210.529378 139.821412 
L 227.616459 172.558497 
L 244.703541 188.791276 
L 261.790622 200.438591 
L 278.877703 210.646731 
L 295.964785 256.015106 
L 313.051866 275.033312 
L 330.138947 294.632611 
L 347.226029 295.054895 
L 364.31311 295.250928 
L 381.400191 295.349116 
L 398.487273 295.488 
" clip-path="url(#p63f2a9d031)" style="fill: none; stroke: #d3d3d3; stroke-opacity: 0.6; stroke-width: 0.8; stroke-linecap: square"/>
   </g>
   <g id="line2d_10">
    <path d="M 73.832727 60.88565 
L 90.919809 66.954302 
L 108.00689 71.316567 
L 125.093971 74.667768 
L 142.181053 81.202685 
L 159.268134 89.367496 
L 176.355215 100.163756 
L 193.442297 111.806463 
L 210.529378 136.464177 
L 227.616459 161.838124 
L 244.703541 175.459471 
L 261.790622 188.500126 
L 278.877703 201.688562 
L 295.964785 250.51116 
L 313.051866 267.584229 
L 330.138947 291.282223 
L 347.226029 291.400212 
L 364.31311 291.756544 
L 381.400191 291.77947 
L 398.487273 292.010735 
" clip-path="url(#p63f2a9d031)" style="fill: none; stroke: #d3d3d3; stroke-opacity: 0.6; stroke-width: 0.8; stroke-linecap: square"/>
   </g>
   <g id="line2d_11">
    <path d="M 73.832727 55.932799 
L 90.919809 64.772938 
L 108.00689 70.691071 
L 125.093971 75.197499 
L 142.181053 83.475061 
L 159.268134 95.255094 
L 176.355215 107.731673 
L 193.442297 124.068871 
L 210.529378 142.08469 
L 227.616459 169.017796 
L 244.703541 183.358082 
L 261.790622 195.23535 
L 278.877703 207.652308 
L 295.964785 251.621105 
L 313.051866 272.487073 
L 330.138947 293.674537 
L 347.226029 294.075597 
L 364.31311 294.350259 
L 381.400191 294.402273 
L 398.487273 294.565666 
" clip-path="url(#p63f2a9d031)" style="fill: none; stroke: #d3d3d3; stroke-opacity: 0.6; stroke-width: 0.8; stroke-linecap: square"/>
   </g>
   <g id="line2d_12">
    <path d="M 73.832727 61.757415 
L 90.919809 67.910794 
L 108.00689 71.463683 
L 125.093971 76.244139 
L 142.181053 82.493804 
L 159.268134 90.229603 
L 176.355215 98.909065 
L 193.442297 110.215178 
L 210.529378 129.79384 
L 227.616459 150.819262 
L 244.703541 167.041753 
L 261.790622 177.296183 
L 278.877703 184.935299 
L 295.964785 252.327667 
L 313.051866 265.578935 
L 330.138947 291.05505 
L 347.226029 291.332688 
L 364.31311 291.410343 
L 381.400191 291.479326 
L 398.487273 291.603762 
" clip-path="url(#p63f2a9d031)" style="fill: none; stroke: #d3d3d3; stroke-opacity: 0.6; stroke-width: 0.8; stroke-linecap: square"/>
   </g>
   <g id="matplotlib.axis_1">
    <g id="xtick_1">
     <g id="line2d_13">
      <defs>
       <path id="maf8beeb409" d="M 0 0 
L 0 3.5 
" style="stroke: #000000; stroke-width: 0.8"/>
      </defs>
      <g>
       <use xlink:href="#maf8beeb409" x="73.832727" y="307.584" style="stroke: #000000; stroke-width: 0.8"/>
      </g>
     </g>
    </g>
    <g id="xtick_2">
     <g id="line2d_14">
      <g>
       <use xlink:href="#maf8beeb409" x="398.487273" y="307.584" style="stroke: #000000; stroke-width: 0.8"/>
      </g>
     </g>
    </g>
   </g>
   <g id="matplotlib.axis_2">
    <g id="ytick_1">
     <g id="line2d_15">
      <defs>
       <path id="m97c5278b89" d="M 0 0 
L -3.5 0 
" style="stroke: #000000; stroke-width: 0.8"/>
      </defs>
      <g>
       <use xlink:href="#m97c5278b89" x="57.6" y="71.314114" style="stroke: #000000; stroke-width: 0.8"/>
      </g>
     </g>
    </g>
    <g id="ytick_2">
     <g id="line2d_16">
      <g>
       <use xlink:href="#m97c5278b89" x="57.6" y="111.544263" style="stroke: #000000; stroke-width: 0.8"/>
      </g>
     </g>
    </g>
   </g>
   <g id="line2d_17">
    <path d="M 57.6 71.314114 
L 414.72 71.314114 
" clip-path="url(#p63f2a9d031)" style="fill: none; stroke: #000000; stroke-linecap: square"/>
   </g>
   <g id="patch_3">
    <path d="M 57.6 307.584 
L 57.6 41.472 
" style="fill: none; stroke: #000000; stroke-width: 0.8; stroke-linejoin: miter; stroke-linecap: square"/>
   </g>
   <g id="patch_4">
    <path d="M 414.72 307.584 
L 414.72 41.472 
" style="fill: none; stroke: #000000; stroke-width: 0.8; stroke-linejoin: miter; stroke-linecap: square"/>
   </g>
   <g id="patch_5">
    <path d="M 57.6 307.584 
L 414.72 307.584 
" style="fill: none; stroke: #000000; stroke-width: 0.8; stroke-linejoin: miter; stroke-linecap: square"/>
   </g>
   <g id="patch_6">
    <path d="M 57.6 41.472 
L 414.72 41.472 
" style="fill: none; stroke: #000000; stroke-width: 0.8; stroke-linejoin: miter; stroke-linecap: square"/>
   </g>
   <g id="LineCollection_1">
    <path d="M 73.832727 61.484206 
L 73.832727 57.011532 
" clip-path="url(#p63f2a9d031)" style="fill: none; stroke: #808080; stroke-width: 1.5"/>
    <path d="M 90.919809 67.475614 
L 90.919809 65.115512 
" clip-path="url(#p63f2a9d031)" style="fill: none; stroke: #808080; stroke-width: 1.5"/>
    <path d="M 108.00689 71.42592 
L 108.00689 70.613514 
" clip-path="url(#p63f2a9d031)" style="fill: none; stroke: #808080; stroke-width: 1.5"/>
    <path d="M 125.093971 75.685355 
L 125.093971 74.344555 
" clip-path="url(#p63f2a9d031)" style="fill: none; stroke: #808080; stroke-width: 1.5"/>
    <path d="M 142.181053 83.566698 
L 142.181053 80.659774 
" clip-path="url(#p63f2a9d031)" style="fill: none; stroke: #808080; stroke-width: 1.5"/>
    <path d="M 159.268134 94.026401 
L 159.268134 89.145003 
" clip-path="url(#p63f2a9d031)" style="fill: none; stroke: #808080; stroke-width: 1.5"/>
    <path d="M 176.355215 106.80108 
L 176.355215 99.025923 
" clip-path="url(#p63f2a9d031)" style="fill: none; stroke: #808080; stroke-width: 1.5"/>
    <path d="M 193.442297 121.773734 
L 193.442297 110.618905 
" clip-path="url(#p63f2a9d031)" style="fill: none; stroke: #808080; stroke-width: 1.5"/>
    <path d="M 210.529378 140.662907 
L 210.529378 127.186246 
" clip-path="url(#p63f2a9d031)" style="fill: none; stroke: #808080; stroke-width: 1.5"/>
    <path d="M 227.616459 168.437934 
L 227.616459 147.656711 
" clip-path="url(#p63f2a9d031)" style="fill: none; stroke: #808080; stroke-width: 1.5"/>
    <path d="M 244.703541 184.805797 
L 244.703541 163.169118 
" clip-path="url(#p63f2a9d031)" style="fill: none; stroke: #808080; stroke-width: 1.5"/>
    <path d="M 261.790622 196.925468 
L 261.790622 173.714912 
" clip-path="url(#p63f2a9d031)" style="fill: none; stroke: #808080; stroke-width: 1.5"/>
    <path d="M 278.877703 208.883269 
L 278.877703 183.769912 
" clip-path="url(#p63f2a9d031)" style="fill: none; stroke: #808080; stroke-width: 1.5"/>
    <path d="M 295.964785 250.276586 
L 295.964785 236.219261 
" clip-path="url(#p63f2a9d031)" style="fill: none; stroke: #808080; stroke-width: 1.5"/>
    <path d="M 313.051866 270.818172 
L 313.051866 260.875887 
" clip-path="url(#p63f2a9d031)" style="fill: none; stroke: #808080; stroke-width: 1.5"/>
    <path d="M 330.138947 293.364684 
L 330.138947 290.571386 
" clip-path="url(#p63f2a9d031)" style="fill: none; stroke: #808080; stroke-width: 1.5"/>
    <path d="M 347.226029 293.710945 
L 347.226029 290.871789 
" clip-path="url(#p63f2a9d031)" style="fill: none; stroke: #808080; stroke-width: 1.5"/>
    <path d="M 364.31311 293.873624 
L 364.31311 291.030289 
" clip-path="url(#p63f2a9d031)" style="fill: none; stroke: #808080; stroke-width: 1.5"/>
    <path d="M 381.400191 293.986718 
L 381.400191 291.134907 
" clip-path="url(#p63f2a9d031)" style="fill: none; stroke: #808080; stroke-width: 1.5"/>
    <path d="M 398.487273 294.074092 
L 398.487273 291.236364 
" clip-path="url(#p63f2a9d031)" style="fill: none; stroke: #808080; stroke-width: 1.5"/>
   </g>
   <g id="line2d_18">
    <defs>
     <path id="mf4b38f4a51" d="M 5 0 
L -5 -0 
" style="stroke: #808080"/>
    </defs>
    <g clip-path="url(#p63f2a9d031)">
     <use xlink:href="#mf4b38f4a51" x="73.832727" y="61.484206" style="stroke: #808080"/>
     <use xlink:href="#mf4b38f4a51" x="90.919809" y="67.475614" style="stroke: #808080"/>
     <use xlink:href="#mf4b38f4a51" x="108.00689" y="71.42592" style="stroke: #808080"/>
     <use xlink:href="#mf4b38f4a51" x="125.093971" y="75.685355" style="stroke: #808080"/>
     <use xlink:href="#mf4b38f4a51" x="142.181053" y="83.566698" style="stroke: #808080"/>
     <use xlink:href="#mf4b38f4a51" x="159.268134" y="94.026401" style="stroke: #808080"/>
     <use xlink:href="#mf4b38f4a51" x="176.355215" y="106.80108" style="stroke: #808080"/>
     <use xlink:href="#mf4b38f4a51" x="193.442297" y="121.773734" style="stroke: #808080"/>
     <use xlink:href="#mf4b38f4a51" x="210.529378" y="140.662907" style="stroke: #808080"/>
     <use xlink:href="#mf4b38f4a51" x="227.616459" y="168.437934" style="stroke: #808080"/>
     <use xlink:href="#mf4b38f4a51" x="244.703541" y="184.805797" style="stroke: #808080"/>
     <use xlink:href="#mf4b38f4a51" x="261.790622" y="196.925468" style="stroke: #808080"/>
     <use xlink:href="#mf4b38f4a51" x="278.877703" y="208.883269" style="stroke: #808080"/>
     <use xlink:href="#mf4b38f4a51" x="295.964785" y="250.276586" style="stroke: #808080"/>
     <use xlink:href="#mf4b38f4a51" x="313.051866" y="270.818172" style="stroke: #808080"/>
     <use xlink:href="#mf4b38f4a51" x="330.138947" y="293.364684" style="stroke: #808080"/>
     <use xlink:href="#mf4b38f4a51" x="347.226029" y="293.710945" style="stroke: #808080"/>
     <use xlink:href="#mf4b38f4a51" x="364.31311" y="293.873624" style="stroke: #808080"/>
     <use xlink:href="#mf4b38f4a51" x="381.400191" y="293.986718" style="stroke: #808080"/>
     <use xlink:href="#mf4b38f4a51" x="398.487273" y="294.074092" style="stroke: #808080"/>
    </g>
   </g>
   <g id="line2d_19">
    <g clip-path="url(#p63f2a9d031)">
     <use xlink:href="#mf4b38f4a51" x="73.832727" y="57.011532" style="stroke: #808080"/>
     <use xlink:href="#mf4b38f4a51" x="90.919809" y="65.115512" style="stroke: #808080"/>
     <use xlink:href="#mf4b38f4a51" x="108.00689" y="70.613514" style="stroke: #808080"/>
     <use xlink:href="#mf4b38f4a51" x="125.093971" y="74.344555" style="stroke: #808080"/>
     <use xlink:href="#mf4b38f4a51" x="142.181053" y="80.659774" style="stroke: #808080"/>
     <use xlink:href="#mf4b38f4a51" x="159.268134" y="89.145003" style="stroke: #808080"/>
     <use xlink:href="#mf4b38f4a51" x="176.355215" y="99.025923" style="stroke: #808080"/>
     <use xlink:href="#mf4b38f4a51" x="193.442297" y="110.618905" style="stroke: #808080"/>
     <use xlink:href="#mf4b38f4a51" x="210.529378" y="127.186246" style="stroke: #808080"/>
     <use xlink:href="#mf4b38f4a51" x="227.616459" y="147.656711" style="stroke: #808080"/>
     <use xlink:href="#mf4b38f4a51" x="244.703541" y="163.169118" style="stroke: #808080"/>
     <use xlink:href="#mf4b38f4a51" x="261.790622" y="173.714912" style="stroke: #808080"/>
     <use xlink:href="#mf4b38f4a51" x="278.877703" y="183.769912" style="stroke: #808080"/>
     <use xlink:href="#mf4b38f4a51" x="295.964785" y="236.219261" style="stroke: #808080"/>
     <use xlink:href="#mf4b38f4a51" x="313.051866" y="260.875887" style="stroke: #808080"/>
     <use xlink:href="#mf4b38f4a51" x="330.138947" y="290.571386" style="stroke: #808080"/>
     <use xlink:href="#mf4b38f4a51" x="347.226029" y="290.871789" style="stroke: #808080"/>
     <use xlink:href="#mf4b38f4a51" x="364.31311" y="291.030289" style="stroke: #808080"/>
     <use xlink:href="#mf4b38f4a51" x="381.400191" y="291.134907" style="stroke: #808080"/>
     <use xlink:href="#mf4b38f4a51" x="398.487273" y="291.236364" style="stroke: #808080"/>
    </g>
   </g>
   <g id="line2d_20">
    <defs>
     <path id="m3d953aa6c7" d="M 0 2 
C 0.530406 2 1.03916 1.789267 1.414214 1.414214 
C 1.789267 1.03916 2 0.530406 2 0 
C 2 -0.530406 1.789267 -1.03916 1.414214 -1.414214 
C 1.03916 -1.789267 0.530406 -2 0 -2 
C -0.530406 -2 -1.03916 -1.789267 -1.414214 -1.414214 
C -1.789267 -1.03916 -2 -0.530406 -2 0 
C -2 0.530406 -1.789267 1.03916 -1.414214 1.414214 
C -1.03916 1.789267 -0.530406 2 0 2 
z
" style="stroke: #000000"/>
    </defs>
    <g clip-path="url(#p63f2a9d031)">
     <use xlink:href="#m3d953aa6c7" x="73.832727" y="59.380995" style="stroke: #000000"/>
     <use xlink:href="#m3d953aa6c7" x="90.919809" y="66.387882" style="stroke: #000000"/>
     <use xlink:href="#m3d953aa6c7" x="108.00689" y="70.951557" style="stroke: #000000"/>
     <use xlink:href="#m3d953aa6c7" x="125.093971" y="74.865196" style="stroke: #000000"/>
     <use xlink:href="#m3d953aa6c7" x="142.181053" y="81.899218" style="stroke: #000000"/>
     <use xlink:href="#m3d953aa6c7" x="159.268134" y="90.999277" style="stroke: #000000"/>
     <use xlink:href="#m3d953aa6c7" x="176.355215" y="102.181217" style="stroke: #000000"/>
     <use xlink:href="#m3d953aa6c7" x="193.442297" y="115.113748" style="stroke: #000000"/>
     <use xlink:href="#m3d953aa6c7" x="210.529378" y="133.675383" style="stroke: #000000"/>
     <use xlink:href="#m3d953aa6c7" x="227.616459" y="158.149135" style="stroke: #000000"/>
     <use xlink:href="#m3d953aa6c7" x="244.703541" y="174.198537" style="stroke: #000000"/>
     <use xlink:href="#m3d953aa6c7" x="261.790622" y="184.828825" style="stroke: #000000"/>
     <use xlink:href="#m3d953aa6c7" x="278.877703" y="196.451632" style="stroke: #000000"/>
     <use xlink:href="#m3d953aa6c7" x="295.964785" y="243.429342" style="stroke: #000000"/>
     <use xlink:href="#m3d953aa6c7" x="313.051866" y="265.676378" style="stroke: #000000"/>
     <use xlink:href="#m3d953aa6c7" x="330.138947" y="292.000526" style="stroke: #000000"/>
     <use xlink:href="#m3d953aa6c7" x="347.226029" y="292.277136" style="stroke: #000000"/>
     <use xlink:href="#m3d953aa6c7" x="364.31311" y="292.438767" style="stroke: #000000"/>
     <use xlink:href="#m3d953aa6c7" x="381.400191" y="292.513611" style="stroke: #000000"/>
     <use xlink:href="#m3d953aa6c7" x="398.487273" y="292.623728" style="stroke: #000000"/>
    </g>
   </g>
  </g>
 </g>
 <defs>
  <clipPath id="p63f2a9d031">
   <rect x="57.6" y="41.472" width="357.12" height="266.112"/>
  </clipPath>
 </defs>
</svg>
